<svg width="237" height="71" viewBox="0 0 237 71" fill="none" xmlns="http://www.w3.org/2000/svg">
<path d="M131.391 39.0555C133.151 39.0555 134.547 39.811 135.274 40.645H135.386V39.4868H138.459V52.2495C138.459 57.501 135.248 59.6554 131.447 59.6554C127.872 59.6554 125.72 57.3388 124.912 55.4552L127.733 54.3237C128.236 55.4819 129.465 56.8541 131.447 56.8541C133.878 56.8541 135.386 55.4017 135.386 52.6807V51.6578H135.274C134.547 52.5202 133.151 53.274 131.391 53.274C127.703 53.274 124.324 50.177 124.324 46.1924C124.324 42.181 127.703 39.0555 131.391 39.0555ZM204.313 39.4751L208.161 48.534H208.273L211.98 39.4751H215.58L206.683 59.179H203.309L206.6 52.1358L200.828 39.4751H204.313ZM22.6393 16.9623L41.032 35.2037L22.6319 53.4521C21.7024 52.9999 21.0625 52.0521 21.0625 50.956V19.4622C21.0625 18.3632 21.7058 17.4132 22.6393 16.9623ZM152.453 39.0555C156.28 39.0555 158.152 41.9922 158.766 43.58L159.101 44.3873L149.242 48.3184C149.994 49.7457 151.168 50.4728 152.815 50.4728C154.466 50.4728 155.61 49.6922 156.448 48.5072L158.962 50.1235C158.152 51.2817 156.196 53.274 152.815 53.274C148.626 53.274 145.498 50.1502 145.498 46.1656C145.498 41.937 148.654 39.0555 152.453 39.0555ZM80.2071 31.1933C83.6992 31.1933 86.1856 32.5137 88.0564 34.2369L85.8492 36.3646C84.5089 35.1512 82.6935 34.2085 80.2071 34.2085C75.5985 34.2085 71.9955 37.792 71.9955 42.2345C71.9955 46.6771 75.5985 50.2589 80.2071 50.2589C83.1964 50.2589 84.899 49.1006 85.9896 48.0493C86.8843 47.1885 87.4704 45.95 87.6941 44.2536H80.2071V41.2384H90.7387C90.8497 41.7766 90.9052 42.4234 90.9052 43.122C90.9052 45.3851 90.2637 48.1847 88.1951 50.177C86.1856 52.196 83.6142 53.274 80.2071 53.274C73.8941 53.274 68.5867 48.3184 68.5867 42.2345C68.5867 36.149 73.8941 31.1933 80.2071 31.1933ZM99.4168 39.0555C103.495 39.0555 106.819 42.0457 106.819 46.1656C106.819 50.2589 103.495 53.274 99.4168 53.274C95.3387 53.274 92.0149 50.2589 92.0149 46.1656C92.0149 42.0457 95.3387 39.0555 99.4168 39.0555ZM115.564 39.0555C119.644 39.0555 122.968 42.0457 122.968 46.1656C122.968 50.2589 119.644 53.274 115.564 53.274C111.486 53.274 108.163 50.2589 108.163 46.1656C108.163 42.0457 111.486 39.0555 115.564 39.0555ZM194.023 39.0171C197.731 39.0171 200.604 41.088 200.604 44.7968V52.8077H197.48V51.1948H197.369C196.617 52.2979 195.417 53.2389 193.242 53.2389C190.397 53.2389 187.859 51.4372 187.859 48.6409C187.859 45.5773 191.011 43.9377 194.106 43.9377C195.64 43.9377 196.894 44.4207 197.48 44.7433V44.5277C197.454 42.8078 195.751 41.8401 194.078 41.8401C192.88 41.8401 191.737 42.2161 191.122 43.3727L188.251 42.2161C189.254 40.0133 191.68 39.0171 194.023 39.0171ZM143.933 31.9488V52.8428H140.694V31.9488H143.933ZM173.944 31.9471C177.53 31.9471 181.057 34.4509 181.057 38.4371C181.057 42.4251 177.53 44.9271 173.944 44.9271H169.426V52.8428H166.192V31.9471H173.944ZM186.075 31.9488V52.8428H182.841V31.9488H186.075ZM42.6171 36.7756L46.8671 40.9906L26.7559 52.5062L42.6171 36.7756ZM131.671 41.8568C129.436 41.8568 127.565 43.687 127.565 46.1924C127.565 48.6694 129.436 50.4728 131.671 50.4728C133.878 50.4728 135.61 48.6694 135.61 46.1924C135.61 43.687 133.878 41.8568 131.671 41.8568ZM115.564 41.8568C113.33 41.8568 111.403 43.6067 111.403 46.1656C111.403 48.6961 113.33 50.4728 115.564 50.4728C117.799 50.4728 119.726 48.6961 119.726 46.1656C119.726 43.6067 117.799 41.8568 115.564 41.8568ZM99.4168 41.8568C97.1819 41.8568 95.2538 43.6067 95.2538 46.1656C95.2538 48.6961 97.1819 50.4728 99.4168 50.4728C101.652 50.4728 103.578 48.6961 103.578 46.1656C103.578 43.6067 101.652 41.8568 99.4168 41.8568ZM194.525 46.4631C192.936 46.4631 191.096 47.0832 191.096 48.6944C191.096 49.958 192.573 50.4694 193.631 50.4694C195.502 50.4694 197.23 49.0989 197.48 47.1618C196.617 46.7606 195.946 46.4631 194.525 46.4631ZM152.566 41.8033C150.918 41.8033 148.626 43.2023 148.709 45.95L155.303 43.3109C154.939 42.4234 153.85 41.8033 152.566 41.8033ZM174.029 34.857H169.426V42.0189H174.029C176.446 42.0189 177.82 40.0567 177.82 38.4371C177.82 36.7858 176.446 34.857 174.029 34.857ZM48.8737 30.5705L53.1185 33.0012C53.7874 33.5089 54.2189 34.3091 54.2189 35.2091C54.2189 36.0955 53.8005 36.8849 53.1487 37.3936L48.8769 39.8398L44.2021 35.2037L48.8737 30.5705ZM26.7677 17.9128L46.864 29.4198L42.6171 33.6316L26.7677 17.9128ZM71.9134 12.5836C73.5849 12.5836 74.9229 13.0908 75.9254 14.1052C76.928 15.1196 77.4284 16.4369 77.4284 18.057C77.4284 19.6772 76.928 20.9963 75.9254 22.0089C74.9229 23.0233 73.5849 23.5305 71.9134 23.5305H68.5867V12.5836H71.9134ZM80.1899 12.5836V23.5305H78.6777V12.5836H80.1899ZM85.1713 12.5836C85.995 12.5836 86.6633 12.8054 87.1779 13.249C87.6941 13.6943 88.029 14.1798 88.1811 14.7055L87.0436 15.2172C86.961 14.8872 86.7604 14.5798 86.44 14.2951C86.1196 14.0139 85.7053 13.8725 85.1988 13.8725C84.7199 13.8725 84.3105 14.0157 83.9723 14.3038C83.6325 14.592 83.4625 14.95 83.4625 15.3797C83.4625 15.7691 83.6195 16.0992 83.9302 16.3664C84.2441 16.6354 84.7021 16.8764 85.3073 17.0912C85.7862 17.2571 86.1859 17.4178 86.5079 17.575C86.8283 17.7304 87.1552 17.9383 87.4837 18.1967C87.8138 18.4552 88.0614 18.7766 88.2297 19.1625C88.3964 19.5485 88.4805 19.9939 88.4805 20.5021C88.4805 21.0086 88.3834 21.4627 88.1892 21.8626C87.9951 22.2625 87.7361 22.5804 87.4157 22.8144C87.0937 23.0485 86.7507 23.2266 86.3785 23.3489C86.0079 23.4694 85.6277 23.5305 85.2393 23.5305C84.5338 23.5305 83.8461 23.2825 83.1729 22.7847C82.4981 22.287 82.0564 21.5902 81.8492 20.6925L82.9884 20.1947C83.1243 20.7693 83.4011 21.2548 83.8218 21.6495C84.2441 22.0442 84.715 22.2433 85.2393 22.2433C85.7814 22.2433 86.2458 22.0896 86.6293 21.7823C87.0144 21.4749 87.2054 21.0575 87.2054 20.53C87.2054 19.945 87.0144 19.4944 86.6293 19.1765C86.2458 18.8604 85.6374 18.5653 84.8056 18.2911C83.9464 17.9994 83.2959 17.6204 82.8525 17.1576C82.4107 16.693 82.1874 16.101 82.1874 15.3797C82.1874 14.6269 82.4641 13.9738 83.0159 13.4184C83.5677 12.863 84.2862 12.5836 85.1713 12.5836ZM94.1486 12.5836C95.0075 12.5836 95.7532 12.8919 96.3804 13.5086C97.0094 14.1252 97.3222 14.9025 97.3222 15.8403C97.3222 16.7781 97.0094 17.5553 96.3804 18.1701C95.7532 18.7886 95.0075 19.097 94.1486 19.097H91.9945V23.5305H90.6909V12.5836H94.1486ZM103.953 12.5836C105.515 12.5836 106.825 13.1145 107.888 14.1781C108.949 15.2417 109.48 16.5341 109.48 18.057C109.48 19.5887 108.951 20.8828 107.895 21.9412C106.838 23.0013 105.524 23.5305 103.953 23.5305C102.381 23.5305 101.067 23.0013 100.012 21.9412C98.9543 20.8828 98.4274 19.5887 98.4274 18.057C98.4274 16.5254 98.9543 15.2295 100.012 14.1711C101.067 13.1127 102.381 12.5836 103.953 12.5836ZM113.259 12.5836L118.135 21.0984H118.192L118.135 18.9893V12.5836H119.426V23.5305H118.08L112.979 14.6014H112.923L112.979 16.7124V23.5305H111.69V12.5836H113.259ZM123.374 12.5836V23.5305H121.861V12.5836H123.374ZM129.561 12.5836C130.32 12.5836 130.976 12.8682 131.531 13.4319C132.087 13.9994 132.364 14.7091 132.364 15.5648C132.364 16.0848 132.245 16.5445 132.004 16.9404C131.767 17.34 131.447 17.6392 131.05 17.8436V17.9038C131.528 18.088 131.92 18.4037 132.229 18.8525C132.534 19.3013 132.689 19.8213 132.689 20.4124C132.689 21.3101 132.397 22.0527 131.816 22.6438C131.234 23.2349 130.546 23.5305 129.752 23.5305H126.058V12.5836H129.561ZM136.164 12.5836V22.1858H140.426V23.5305H134.899V12.5836H136.164ZM148.162 12.5836V13.9282H143.852V17.3984H147.738V18.7138H143.852V22.184H148.162V23.5305H142.636V12.5836H148.162ZM155.905 12.5836C156.729 12.5836 157.397 12.8054 157.912 13.249C158.428 13.6943 158.763 14.1798 158.915 14.7055L157.777 15.2172C157.695 14.8872 157.494 14.5798 157.174 14.2951C156.853 14.0139 156.439 13.8725 155.932 13.8725C155.454 13.8725 155.044 14.0157 154.706 14.3038C154.366 14.592 154.196 14.95 154.196 15.3797C154.196 15.7691 154.353 16.0992 154.664 16.3664C154.978 16.6354 155.436 16.8764 156.041 17.0912C156.52 17.2571 156.92 17.4178 157.242 17.575C157.562 17.7304 157.889 17.9383 158.217 18.1967C158.547 18.4552 158.795 18.7766 158.963 19.1625C159.13 19.5485 159.214 19.9939 159.214 20.5021C159.214 21.0086 159.117 21.4627 158.923 21.8626C158.729 22.2625 158.47 22.5804 158.149 22.8144C157.827 23.0485 157.484 23.2266 157.112 23.3489C156.742 23.4694 156.361 23.5305 155.973 23.5305C155.267 23.5305 154.58 23.2825 153.907 22.7847C153.232 22.287 152.79 21.5902 152.583 20.6925L153.722 20.1947C153.858 20.7693 154.135 21.2548 154.555 21.6495C154.978 22.0442 155.449 22.2433 155.973 22.2433C156.515 22.2433 156.979 22.0896 157.363 21.7823C157.748 21.4749 157.939 21.0575 157.939 20.53C157.939 19.945 157.748 19.4944 157.363 19.1765C156.979 18.8604 156.371 18.5653 155.539 18.2911C154.68 17.9994 154.03 17.6204 153.586 17.1576C153.144 16.693 152.921 16.101 152.921 15.3797C152.921 14.6269 153.198 13.9738 153.75 13.4184C154.301 12.863 155.02 12.5836 155.905 12.5836ZM162.767 12.5836V19.3741C162.767 20.2218 162.983 20.9053 163.417 21.43C163.849 21.9529 164.474 22.2152 165.293 22.2152C166.11 22.2152 166.735 21.9529 167.167 21.43C167.601 20.9053 167.817 20.2218 167.817 19.3741V12.5836H169.161V19.3134C169.161 20.5805 168.813 21.5995 168.116 22.3723C167.421 23.145 166.479 23.5305 165.293 23.5305C164.143 23.5305 163.213 23.1414 162.497 22.3651C161.782 21.587 161.425 20.5698 161.425 19.3134V12.5836H162.767ZM174.634 12.5836C175.444 12.5836 176.148 12.8919 176.739 13.5086C177.333 14.1252 177.628 14.9025 177.628 15.8403C177.628 16.6047 177.411 17.2798 176.972 17.8655C176.537 18.4529 175.993 18.8215 175.342 18.9747L175.315 19.0204L178.003 23.4703V23.5305H176.546L173.965 19.097H172.601V23.5305H171.371V12.5836H174.634ZM103.953 13.8707C102.8 13.8707 101.827 14.2637 101.031 15.0496C100.237 15.8338 99.8378 16.838 99.8378 18.057C99.8378 19.2761 100.237 20.2785 101.031 21.0645C101.827 21.8504 102.8 22.2416 103.953 22.2416C105.103 22.2416 106.078 21.8504 106.874 21.0645C107.669 20.2785 108.069 19.2761 108.069 18.057C108.069 16.838 107.669 15.8338 106.874 15.0496C106.078 14.2637 105.103 13.8707 103.953 13.8707ZM71.9134 13.93H69.9844V22.1858H71.9134C73.1698 22.1858 74.1651 21.8246 74.8993 21.1003C75.6336 20.376 75.9998 19.3615 75.9998 18.057C75.9998 16.7635 75.6336 15.7527 74.8993 15.0229C74.1651 14.2949 73.1698 13.93 71.9134 13.93ZM129.752 18.5916H127.303V22.1858H129.807C130.285 22.1858 130.672 21.9961 130.969 21.6184C131.268 21.2426 131.417 20.8302 131.417 20.3814C131.417 19.9326 131.263 19.5239 130.957 19.1499C130.65 18.7795 130.248 18.5916 129.752 18.5916ZM174.661 13.9282H172.601V17.7815H174.579C175.071 17.7815 175.492 17.5973 175.843 17.2305C176.195 16.8656 176.371 16.4004 176.371 15.8403C176.371 15.3604 176.216 14.9226 175.903 14.5248C175.592 14.1271 175.178 13.9282 174.661 13.9282ZM94.1773 13.9282H91.9945V17.7505H94.1773C94.7252 17.7505 95.1648 17.5535 95.4945 17.1557C95.8259 16.758 95.9899 16.3201 95.9899 15.8403C95.9899 15.3604 95.8259 14.9226 95.4945 14.5248C95.1648 14.1271 94.7252 13.9282 94.1773 13.9282ZM129.618 13.93H127.303V17.278H129.561C130.031 17.278 130.409 17.1028 130.693 16.7507C130.976 16.3986 131.118 16.0136 131.118 15.5958C131.118 15.178 130.981 14.7948 130.705 14.45C130.43 14.1034 130.068 13.93 129.618 13.93Z" fill="#092674"/>
<rect x="1.2" y="1.20006" width="234.267" height="68.6" rx="7.21482" stroke="#092674" stroke-width="2.4"/>
</svg>
