<svg width="25" height="24" viewBox="0 0 25 24" fill="none" xmlns="http://www.w3.org/2000/svg">
<path d="M18.7433 8.51695L18.7432 8.5168C18.5323 8.31466 18.2456 8.2 17.9453 8.2C17.645 8.2 17.3583 8.31466 17.1474 8.5168L17.1468 8.51735L12.379 13.051L12.2402 13.183L12.1024 13.0501L7.40143 8.5168C7.40136 8.51672 7.40129 8.51665 7.40121 8.51658C7.19037 8.31458 6.90375 8.2 6.60355 8.2C6.30324 8.2 6.01652 8.31466 5.80566 8.5168L5.80549 8.51695C5.70008 8.61777 5.61682 8.73732 5.56015 8.86851C5.50348 8.99967 5.47441 9.14008 5.47441 9.28171C5.47441 9.42334 5.50348 9.56376 5.56015 9.69492C5.61682 9.8261 5.70008 9.94565 5.80549 10.0465L5.80609 10.047L11.4371 15.4772L11.4377 15.4778C11.5422 15.5794 11.667 15.6605 11.805 15.7159C11.943 15.7714 12.0913 15.8 12.2412 15.8C12.3911 15.8 12.5394 15.7714 12.6774 15.7159C12.8154 15.6605 12.9402 15.5794 13.0447 15.4778L13.0462 15.4764L13.0462 15.4764L18.7433 10.0465V8.51695ZM18.7433 8.51695C18.8487 8.61777 18.932 8.73732 18.9887 8.86851C19.0453 8.99967 19.0744 9.14008 19.0744 9.28171C19.0744 9.42334 19.0453 9.56376 18.9887 9.69492C18.932 9.826 18.8489 9.94546 18.7436 10.0462L18.7433 8.51695Z" fill="#838E9E" stroke="white" stroke-width="0.4"/>
</svg>
