<svg width="65" height="65" viewBox="0 0 65 65" fill="none" xmlns="http://www.w3.org/2000/svg">
<g filter="url(#filter0_dd_557_28109)">
<rect opacity="0.1" x="6.82076" y="2.84786" width="51.0825" height="51.0825" rx="16.7842" fill="#0C2568" stroke="white" stroke-width="4.3785"/>
<path d="M24.8908 14.5234H40.8758C41.7974 14.5234 42.6813 14.8896 43.3329 15.5412C43.9846 16.1929 44.3507 17.0768 44.3507 17.9984V27.4685C42.7668 26.9553 41.0719 26.8898 39.4531 27.2791C37.8343 27.6685 36.3546 28.4976 35.1772 29.6749C33.9999 30.8522 33.1708 32.332 32.7815 33.9508C32.3921 35.5696 32.4576 37.2645 32.9708 38.8484H23.5008C23.5008 39.2171 23.6472 39.5706 23.9079 39.8313C24.1686 40.092 24.5221 40.2384 24.8908 40.2384H33.5532C33.9512 41.001 34.4557 41.7031 35.0517 42.3234H24.8908C23.9691 42.3234 23.0853 41.9573 22.4336 41.3056C21.7819 40.6539 21.4158 39.77 21.4158 38.8484V17.9984C21.4158 17.0768 21.7819 16.1929 22.4336 15.5412C23.0853 14.8896 23.9691 14.5234 24.8908 14.5234ZM26.9758 18.6934C26.6071 18.6934 26.2536 18.8399 25.9929 19.1006C25.7322 19.3612 25.5858 19.7148 25.5858 20.0834V21.4734C25.5858 21.8421 25.7322 22.1956 25.9929 22.4563C26.2536 22.717 26.6071 22.8634 26.9758 22.8634H38.0958C38.4644 22.8634 38.818 22.717 39.0786 22.4563C39.3393 22.1956 39.4858 21.8421 39.4858 21.4734V20.0834C39.4858 19.7148 39.3393 19.3612 39.0786 19.1006C38.818 18.8399 38.4644 18.6934 38.0958 18.6934H26.9758ZM49.2157 36.0684C49.2157 34.0408 48.4103 32.0963 46.9766 30.6626C45.5429 29.2289 43.5983 28.4234 41.5708 28.4234C39.5432 28.4234 37.5986 29.2289 36.1649 30.6626C34.7312 32.0963 33.9258 34.0408 33.9258 36.0684C33.9258 38.096 34.7312 40.0405 36.1649 41.4742C37.5986 42.908 39.5432 43.7134 41.5708 43.7134C43.5983 43.7134 45.5429 42.908 46.9766 41.4742C48.4103 40.0405 49.2157 38.096 49.2157 36.0684ZM40.7562 32.7283L44.6565 35.2859C44.7774 35.3634 44.8765 35.4705 44.9446 35.5969C45.0127 35.7234 45.0475 35.865 45.0457 36.0086C45.0459 36.1532 45.0116 36.2956 44.9457 36.4243C44.8834 36.5516 44.7885 36.66 44.6704 36.7384L40.7687 39.4002C40.7008 39.4459 40.6269 39.482 40.5491 39.5073C40.3684 39.565 40.1728 39.5536 40.0001 39.4753C39.9005 39.4287 39.8097 39.3652 39.7318 39.2877C39.6565 39.2057 39.5954 39.1117 39.5511 39.0097C39.5077 38.9053 39.4855 38.7933 39.4858 38.6802V33.4566C39.485 33.2894 39.5328 33.1255 39.6234 32.9849C39.7139 32.8442 39.8433 32.7329 39.9959 32.6643C40.1171 32.6075 40.251 32.5834 40.3844 32.5944C40.5178 32.6054 40.6459 32.651 40.7562 32.7269V32.7283Z" fill="#0C2568"/>
</g>
<defs>
<filter id="filter0_dd_557_28109" x="0.631592" y="0.658203" width="63.4609" height="63.4609" filterUnits="userSpaceOnUse" color-interpolation-filters="sRGB">
<feFlood flood-opacity="0" result="BackgroundImageFix"/>
<feColorMatrix in="SourceAlpha" type="matrix" values="0 0 0 0 0 0 0 0 0 0 0 0 0 0 0 0 0 0 127 0" result="hardAlpha"/>
<feOffset dy="4"/>
<feGaussianBlur stdDeviation="2"/>
<feComposite in2="hardAlpha" operator="out"/>
<feColorMatrix type="matrix" values="0 0 0 0 0 0 0 0 0 0 0 0 0 0 0 0 0 0 0.25 0"/>
<feBlend mode="normal" in2="BackgroundImageFix" result="effect1_dropShadow_557_28109"/>
<feColorMatrix in="SourceAlpha" type="matrix" values="0 0 0 0 0 0 0 0 0 0 0 0 0 0 0 0 0 0 127 0" result="hardAlpha"/>
<feOffset dy="4"/>
<feGaussianBlur stdDeviation="2"/>
<feComposite in2="hardAlpha" operator="out"/>
<feColorMatrix type="matrix" values="0 0 0 0 0 0 0 0 0 0 0 0 0 0 0 0 0 0 0.25 0"/>
<feBlend mode="normal" in2="effect1_dropShadow_557_28109" result="effect2_dropShadow_557_28109"/>
<feBlend mode="normal" in="SourceGraphic" in2="effect2_dropShadow_557_28109" result="shape"/>
</filter>
</defs>
</svg>
