<svg width="56" height="57" viewBox="0 0 56 57" fill="none" xmlns="http://www.w3.org/2000/svg">
<rect opacity="0.1" x="2.51607" y="2.84786" width="51.0825" height="51.0825" rx="16.7842" fill="#0C2568" stroke="white" stroke-width="4.3785"/>
<path d="M34.9514 32.4413L28.9689 38.4238L22.9864 32.4413C18.5026 32.6357 14.9219 36.3042 14.9219 40.8318V41.4339C14.9219 43.0957 16.2701 44.4439 17.9319 44.4439H40.0058C41.6676 44.4439 43.0159 43.0957 43.0159 41.4339V40.8318C43.0159 36.3042 39.4351 32.6357 34.9514 32.4413ZM15.7747 17.3408L16.1761 17.4348V21.0971C15.7371 21.3605 15.4236 21.8182 15.4236 22.3701C15.4236 22.8969 15.712 23.3358 16.1196 23.6055L15.1414 27.5123C15.0348 27.945 15.273 28.3902 15.618 28.3902H18.2392C18.5841 28.3902 18.8224 27.945 18.7158 27.5123L17.7375 23.6055C18.1452 23.3358 18.4336 22.8969 18.4336 22.3701C18.4336 21.8182 18.1201 21.3605 17.6811 21.0971V17.7985L21.8199 18.7956C21.2806 19.8742 20.942 21.0783 20.942 22.3701C20.942 26.8037 24.5353 30.3969 28.9689 30.3969C33.4024 30.3969 36.9957 26.8037 36.9957 22.3701C36.9957 21.0783 36.6633 19.8742 36.1178 18.7956L42.1567 17.3408C43.298 17.0648 43.298 15.6413 42.1567 15.3654L30.2168 12.4808C29.4016 12.2864 28.5424 12.2864 27.7272 12.4808L15.7747 15.3591C14.6397 15.6351 14.6397 17.0648 15.7747 17.3408Z" fill="#0C2568"/>
</svg>
