<svg width="199" height="60" viewBox="0 0 199 60" fill="none" xmlns="http://www.w3.org/2000/svg">
<rect x="0.734323" y="1.48042" width="196.799" height="57.2772" rx="9.5462" fill="white"/>
<path d="M135.886 28.9443V32.309H133.777V34.5155H135.886V42.0129C135.886 44.573 137.044 45.5971 139.958 45.5971C140.47 45.5971 140.958 45.5361 141.384 45.463V43.2808C141.019 43.3174 140.787 43.3418 140.385 43.3418C139.08 43.3418 138.507 42.7322 138.507 41.3424V34.5155H141.384V32.309H138.507V28.9443H135.886Z" fill="#243752"/>
<path d="M148.807 45.7799C152.683 45.7799 155.061 43.1833 155.061 38.8799C155.061 34.6009 152.671 31.992 148.807 31.992C144.93 31.992 142.541 34.6009 142.541 38.8799C142.541 43.1833 144.918 45.7799 148.807 45.7799ZM148.807 43.4515C146.527 43.4515 145.247 41.7813 145.247 38.8799C145.247 36.0028 146.527 34.3205 148.807 34.3205C151.074 34.3205 152.366 36.0028 152.366 38.8799C152.366 41.7691 151.074 43.4515 148.807 43.4515Z" fill="#243752"/>
<path d="M157.095 45.5239H159.716V37.6852C159.716 35.82 161.118 34.5643 163.105 34.5643C163.568 34.5643 164.348 34.6496 164.568 34.7228V32.1383C164.287 32.0652 163.787 32.0286 163.397 32.0286C161.666 32.0286 160.191 32.9795 159.813 34.2839H159.618V32.248H157.095V45.5239Z" fill="#243752"/>
<path d="M171.076 34.223C173.014 34.223 174.282 35.5761 174.343 37.6608H167.638C167.784 35.5883 169.137 34.223 171.076 34.223ZM174.331 41.9398C173.843 42.976 172.758 43.549 171.173 43.549C169.076 43.549 167.723 42.0739 167.638 39.7454V39.5991H177.013V38.6848C177.013 34.5155 174.782 31.992 171.088 31.992C167.345 31.992 164.968 34.6862 164.968 38.9286C164.968 43.1711 167.296 45.7799 171.1 45.7799C174.135 45.7799 176.257 44.317 176.854 41.9398H174.331Z" fill="#243752"/>
<path d="M118.698 40.6213C118.9 43.8813 121.617 45.9662 125.66 45.9662C129.981 45.9662 132.685 43.7802 132.685 40.2928C132.685 37.5509 131.144 36.0347 127.404 35.1628L125.395 34.67C123.019 34.1141 122.059 33.3686 122.059 32.0671C122.059 30.4245 123.55 29.3505 125.786 29.3505C127.909 29.3505 129.375 30.3992 129.64 32.0797H132.395C132.231 29.0093 129.527 26.8486 125.824 26.8486C121.844 26.8486 119.191 29.0093 119.191 32.2566C119.191 34.9354 120.694 36.5274 123.992 37.2982L126.342 37.8668C128.756 38.4354 129.817 39.2693 129.817 40.6593C129.817 42.2766 128.149 43.4517 125.875 43.4517C123.436 43.4517 121.743 42.3524 121.503 40.6213H118.698Z" fill="#243752"/>
<path d="M91.5465 32.0286C89.7423 32.0286 88.1818 32.9307 87.3772 34.4424H87.1822V32.248H84.6587V49.937H87.2797V43.5124H87.487C88.1818 44.9144 89.6813 45.7434 91.5709 45.7434C94.9234 45.7434 97.0568 43.0979 97.0568 38.8799C97.0568 34.6618 94.9234 32.0286 91.5465 32.0286ZM90.8029 43.3905C88.6085 43.3905 87.231 41.6594 87.231 38.8921C87.231 36.1125 88.6085 34.3814 90.8151 34.3814C93.0338 34.3814 94.3626 36.076 94.3626 38.8799C94.3626 41.696 93.0338 43.3905 90.8029 43.3905Z" fill="#243752"/>
<path d="M106.228 32.0286C104.424 32.0286 102.864 32.9307 102.059 34.4424H101.864V32.248H99.3404V49.937H101.961V43.5124H102.169C102.864 44.9144 104.363 45.7434 106.253 45.7434C109.605 45.7434 111.739 43.0979 111.739 38.8799C111.739 34.6618 109.605 32.0286 106.228 32.0286ZM105.485 43.3905C103.29 43.3905 101.913 41.6594 101.913 38.8921C101.913 36.1125 103.29 34.3814 105.497 34.3814C107.716 34.3814 109.044 36.076 109.044 38.8799C109.044 41.696 107.716 43.3905 105.485 43.3905Z" fill="#243752"/>
<path d="M79.9561 45.5239H82.9633L76.3802 27.2909H73.3351L66.752 45.5239H69.6581L71.3386 40.6845H78.2882L79.9561 45.5239ZM74.7123 30.6014H74.9271L77.568 38.309H72.0589L74.7123 30.6014Z" fill="#243752"/>
<path d="M68.5137 13.5392V22.335H71.6894C74.3104 22.335 75.8282 20.7197 75.8282 17.9097C75.8282 15.1423 74.2983 13.5392 71.6894 13.5392H68.5137ZM69.8791 14.7827H71.537C73.3596 14.7827 74.4385 15.9408 74.4385 17.9279C74.4385 19.9455 73.3778 21.0915 71.537 21.0915H69.8791V14.7827Z" fill="#243752"/>
<path d="M80.4766 22.463C82.415 22.463 83.6036 21.1646 83.6036 19.0129C83.6036 16.8734 82.4089 15.569 80.4766 15.569C78.5383 15.569 77.3435 16.8734 77.3435 19.0129C77.3435 21.1646 78.5322 22.463 80.4766 22.463ZM80.4766 21.2987C79.3368 21.2987 78.6967 20.4637 78.6967 19.0129C78.6967 17.5744 79.3368 16.7332 80.4766 16.7332C81.6104 16.7332 82.2565 17.5744 82.2565 19.0129C82.2565 20.4576 81.6104 21.2987 80.4766 21.2987Z" fill="#243752"/>
<path d="M93.7257 15.697H92.4152L91.2326 20.7623H91.129L89.7636 15.697H88.508L87.1426 20.7623H87.0451L85.8565 15.697H84.5276L86.3563 22.335H87.7034L89.0688 17.4464H89.1724L90.5439 22.335H91.9031L93.7257 15.697Z" fill="#243752"/>
<path d="M95.2349 22.335H96.5454V18.4522C96.5454 17.4159 97.1611 16.7698 98.1303 16.7698C99.0994 16.7698 99.5627 17.3001 99.5627 18.3668V22.335H100.873V18.0377C100.873 16.4589 100.056 15.569 98.5752 15.569C97.5756 15.569 96.9173 16.014 96.5942 16.7515H96.4967V15.697H95.2349V22.335Z" fill="#243752"/>
<path d="M102.937 22.335H104.248V13.1064H102.937V22.335Z" fill="#243752"/>
<path d="M109.176 22.463C111.115 22.463 112.303 21.1646 112.303 19.0129C112.303 16.8734 111.109 15.569 109.176 15.569C107.238 15.569 106.043 16.8734 106.043 19.0129C106.043 21.1646 107.232 22.463 109.176 22.463ZM109.176 21.2987C108.037 21.2987 107.397 20.4637 107.397 19.0129C107.397 17.5744 108.037 16.7332 109.176 16.7332C110.31 16.7332 110.956 17.5744 110.956 19.0129C110.956 20.4576 110.31 21.2987 109.176 21.2987Z" fill="#243752"/>
<path d="M116.208 21.3414C115.495 21.3414 114.977 20.994 114.977 20.3966C114.977 19.8114 115.391 19.5006 116.306 19.4396L117.927 19.336V19.8907C117.927 20.7136 117.196 21.3414 116.208 21.3414ZM115.873 22.4447C116.745 22.4447 117.47 22.0668 117.866 21.4024H117.97V22.335H119.231V17.7999C119.231 16.398 118.293 15.569 116.629 15.569C115.123 15.569 114.05 16.3005 113.916 17.4403H115.184C115.33 16.971 115.836 16.7028 116.568 16.7028C117.464 16.7028 117.927 17.099 117.927 17.7999V18.3729L116.129 18.4765C114.55 18.5741 113.66 19.2629 113.66 20.4576C113.66 21.6706 114.593 22.4447 115.873 22.4447Z" fill="#243752"/>
<path d="M123.679 22.4447C124.593 22.4447 125.367 22.0119 125.763 21.2865H125.867V22.335H127.123V13.1064H125.812V16.7515H125.715C125.355 16.0201 124.587 15.5873 123.679 15.5873C122.002 15.5873 120.924 16.9161 120.924 19.0129C120.924 21.1159 121.99 22.4447 123.679 22.4447ZM124.051 16.7637C125.148 16.7637 125.837 17.6354 125.837 19.019C125.837 20.4088 125.154 21.2683 124.051 21.2683C122.941 21.2683 122.277 20.421 122.277 19.0129C122.277 17.6171 122.947 16.7637 124.051 16.7637Z" fill="#243752"/>
<path d="M135.621 22.463C137.559 22.463 138.748 21.1646 138.748 19.0129C138.748 16.8734 137.553 15.569 135.621 15.569C133.683 15.569 132.488 16.8734 132.488 19.0129C132.488 21.1646 133.677 22.463 135.621 22.463ZM135.621 21.2987C134.481 21.2987 133.841 20.4637 133.841 19.0129C133.841 17.5744 134.481 16.7332 135.621 16.7332C136.755 16.7332 137.401 17.5744 137.401 19.0129C137.401 20.4576 136.755 21.2987 135.621 21.2987Z" fill="#243752"/>
<path d="M140.483 22.335H141.793V18.4522C141.793 17.4159 142.409 16.7698 143.378 16.7698C144.347 16.7698 144.81 17.3001 144.81 18.3668V22.335H146.121V18.0377C146.121 16.4589 145.304 15.569 143.823 15.569C142.823 15.569 142.165 16.014 141.842 16.7515H141.744V15.697H140.483V22.335Z" fill="#243752"/>
<path d="M152.157 14.0451V15.7275H151.102V16.8308H152.157V20.5795C152.157 21.8595 152.736 22.3715 154.193 22.3715C154.449 22.3715 154.692 22.3411 154.906 22.3045V21.2134C154.723 21.2317 154.607 21.2439 154.406 21.2439C153.754 21.2439 153.467 20.9391 153.467 20.2442V16.8308H154.906V15.7275H153.467V14.0451H152.157Z" fill="#243752"/>
<path d="M156.665 22.335H157.975V18.4583C157.975 17.4525 158.573 16.7759 159.646 16.7759C160.572 16.7759 161.066 17.3123 161.066 18.3729V22.335H162.376V18.0499C162.376 16.4711 161.505 15.5751 160.091 15.5751C159.091 15.5751 158.39 16.0201 158.067 16.7637H157.963V13.1064H156.665V22.335Z" fill="#243752"/>
<path d="M167.104 16.6845C168.073 16.6845 168.707 17.3611 168.738 18.4034H165.385C165.458 17.3672 166.135 16.6845 167.104 16.6845ZM168.731 20.5429C168.488 21.061 167.945 21.3475 167.153 21.3475C166.104 21.3475 165.428 20.6099 165.385 19.4457V19.3726H170.072V18.9154C170.072 16.8308 168.957 15.569 167.11 15.569C165.239 15.569 164.05 16.9161 164.05 19.0373C164.05 21.1585 165.214 22.463 167.116 22.463C168.634 22.463 169.695 21.7315 169.993 20.5429H168.731Z" fill="#243752"/>
<path d="M45.1871 30.5612C45.2189 28.0924 46.5447 25.7563 48.648 24.4633C47.3212 22.5682 45.0987 21.3667 42.7864 21.2944C40.3202 21.0355 37.9293 22.7701 36.6726 22.7701C35.3916 22.7701 33.4566 21.3201 31.373 21.363C28.6571 21.4507 26.1252 22.9948 24.8039 25.3692C21.9635 30.2869 24.0822 37.5141 26.803 41.4892C28.1643 43.4357 29.7552 45.6099 31.837 45.5328C33.8741 45.4483 34.6349 44.2338 37.0938 44.2338C39.53 44.2338 40.2438 45.5328 42.3677 45.4838C44.5536 45.4483 45.9309 43.5287 47.2444 41.5638C48.2225 40.1768 48.9751 38.644 49.4744 37.022C46.9056 35.9355 45.1901 33.3503 45.1871 30.5612Z" fill="#243752"/>
<path d="M41.1752 18.6802C42.3671 17.2494 42.9543 15.4104 42.8121 13.5537C40.9912 13.745 39.3092 14.6152 38.1013 15.9911C36.9201 17.3354 36.3054 19.142 36.4216 20.9278C38.2431 20.9465 40.0338 20.0999 41.1752 18.6802Z" fill="#243752"/>
<rect x="0.734323" y="1.48042" width="196.799" height="57.2772" rx="9.5462" stroke="#243752" stroke-width="1.46865"/>
</svg>
