<svg width="199" height="59" viewBox="0 0 199 59" fill="none" xmlns="http://www.w3.org/2000/svg">
<rect x="0.734323" y="0.734323" width="196.799" height="57.2772" rx="6.60891" fill="white"/>
<path d="M100.067 31.9456C96.6126 31.9456 93.7972 34.573 93.7972 38.1918C93.7972 41.7885 96.6126 44.4379 100.067 44.4379C103.523 44.4379 106.338 41.7885 106.338 38.1918C106.337 34.573 103.521 31.9456 100.067 31.9456ZM100.067 41.9794C98.1738 41.9794 96.5421 40.4182 96.5421 38.1932C96.5421 35.9447 98.1753 34.4071 100.067 34.4071C101.96 34.4071 103.592 35.9447 103.592 38.1932C103.592 40.4168 101.96 41.9794 100.067 41.9794ZM86.3879 31.9456C82.9337 31.9456 80.1183 34.573 80.1183 38.1918C80.1183 41.7885 82.9337 44.4379 86.3879 44.4379C89.8436 44.4379 92.659 41.7885 92.659 38.1918C92.659 34.573 89.8436 31.9456 86.3879 31.9456ZM86.3879 41.9794C84.4948 41.9794 82.8632 40.4182 82.8632 38.1932C82.8632 35.9447 84.4963 34.4071 86.3879 34.4071C88.281 34.4071 89.9127 35.9447 89.9127 38.1932C89.9141 40.4168 88.281 41.9794 86.3879 41.9794ZM70.1183 33.8637V36.5131H76.4599C76.2704 38.0038 75.774 39.092 75.0162 39.8484C74.0939 40.7707 72.6502 41.7885 70.1183 41.7885C66.2146 41.7885 63.1627 38.6412 63.1627 34.7375C63.1627 30.8339 66.2146 27.6865 70.1183 27.6865C72.2243 27.6865 73.762 28.5149 74.8972 29.5796L76.7668 27.71C75.1807 26.1959 73.0761 25.0371 70.1183 25.0371C64.7709 25.0371 60.2754 29.3902 60.2754 34.7375C60.2754 40.0849 64.7709 44.4379 70.1183 44.4379C73.0041 44.4379 75.1821 43.4906 76.8843 41.7165C78.6349 39.9659 79.1798 37.5044 79.1798 35.5174C79.1798 34.9035 79.1328 34.3351 79.0373 33.8622H70.1183V33.8637ZM136.66 35.9212C136.14 34.526 134.554 31.9456 131.312 31.9456C128.095 31.9456 125.42 34.4776 125.42 38.1918C125.42 41.693 128.071 44.4379 131.619 44.4379C134.482 44.4379 136.138 42.6873 136.826 41.6695L134.696 40.2493C133.987 41.2906 133.016 41.9765 131.619 41.9765C130.224 41.9765 129.23 41.3376 128.591 40.0834L136.943 36.6291L136.66 35.9212ZM128.141 38.0038C128.071 35.5893 130.011 34.3601 131.408 34.3601C132.496 34.3601 133.418 34.9049 133.727 35.6848L128.141 38.0038ZM121.352 44.0605H124.095V25.7009H121.352V44.0605ZM116.855 33.3423H116.761C116.146 32.608 114.962 31.9456 113.473 31.9456C110.349 31.9456 107.486 34.6905 107.486 38.2167C107.486 41.718 110.349 44.4394 113.473 44.4394C114.963 44.4394 116.146 43.777 116.761 43.0207H116.855V43.9195C116.855 46.309 115.577 47.5867 113.52 47.5867C111.84 47.5867 110.798 46.3809 110.372 45.3632L107.983 46.3574C108.669 48.0126 110.49 50.0481 113.52 50.0481C116.737 50.0481 119.459 48.1551 119.459 43.5406V32.326H116.856V33.3423H116.855ZM113.709 41.9794C111.816 41.9794 110.231 40.3933 110.231 38.2167C110.231 36.0152 111.816 34.4071 113.709 34.4071C115.577 34.4071 117.044 36.0152 117.044 38.2167C117.044 40.3933 115.577 41.9794 113.709 41.9794ZM149.516 25.7009H142.95V44.0605H145.689V37.105H149.515C152.552 37.105 155.539 34.9064 155.539 31.4037C155.539 27.901 152.553 25.7009 149.516 25.7009ZM149.587 34.5495H145.689V28.2564H149.587C151.635 28.2564 152.799 29.9527 152.799 31.4037C152.799 32.8253 151.635 34.5495 149.587 34.5495ZM166.523 31.9133C164.539 31.9133 162.484 32.7872 161.634 34.7243L164.066 35.7391C164.586 34.7243 165.555 34.3924 166.57 34.3924C167.987 34.3924 169.428 35.2427 169.452 36.754V36.9434C168.955 36.66 167.892 36.2355 166.594 36.2355C163.972 36.2355 161.302 37.6763 161.302 40.3683C161.302 42.8253 163.452 44.4071 165.861 44.4071C167.702 44.4071 168.719 43.5802 169.356 42.6109H169.45V44.0282H172.097V36.9889C172.098 33.7315 169.663 31.9133 166.523 31.9133ZM166.191 41.975C165.295 41.975 164.043 41.5256 164.043 40.4153C164.043 38.9981 165.602 38.4547 166.949 38.4547C168.152 38.4547 168.72 38.7146 169.452 39.0686C169.239 40.7707 167.774 41.975 166.191 41.975ZM181.734 32.3142L178.592 40.2743H178.498L175.238 32.3142H172.286L177.175 43.4392L174.388 49.6281H177.246L184.781 32.3142H181.734ZM157.052 44.0605H159.791V25.7009H157.052V44.0605Z" fill="#243752"/>
<path d="M69.6393 15.043C69.6393 16.2738 69.275 17.2534 68.5451 17.9847C67.7168 18.8542 66.6359 19.2889 65.3082 19.2889C64.0364 19.2889 62.954 18.8483 62.0655 17.9671C61.1755 17.0845 60.7305 15.9918 60.7305 14.6876C60.7305 13.382 61.1755 12.2893 62.0655 11.4081C62.954 10.5255 64.0364 10.0849 65.3082 10.0849C65.9398 10.0849 66.5434 10.2083 67.1161 10.4535C67.6904 10.7003 68.1501 11.0278 68.4937 11.4375L67.7198 12.213C67.1367 11.5154 66.3333 11.1673 65.3068 11.1673C64.3786 11.1673 63.5767 11.4933 62.8997 12.1454C62.2226 12.7975 61.8848 13.6449 61.8848 14.6862C61.8848 15.7274 62.2226 16.5748 62.8997 17.2269C63.5767 17.879 64.3786 18.205 65.3068 18.205C66.2908 18.205 67.1117 17.8775 67.7682 17.221C68.1941 16.7937 68.4409 16.1989 68.5069 15.4366H65.3068V14.3778H69.5761C69.6202 14.6083 69.6393 14.8301 69.6393 15.043Z" fill="#243752"/>
<path d="M76.4099 11.3627H72.3975V14.1561H76.0163V15.215H72.3975V18.0083H76.4099V19.0922H71.2652V10.2803H76.4099V11.3627Z" fill="#243752"/>
<path d="M81.1843 19.0922H80.0519V11.3627H77.5905V10.2803H83.6457V11.3627H81.1843V19.0922Z" fill="#243752"/>
<path d="M88.0266 19.0922V10.2803H89.1589V19.0922H88.0266Z" fill="#243752"/>
<path d="M94.1805 19.0922H93.0482V11.3627H90.5867V10.2803H96.6419V11.3627H94.1805V19.0922Z" fill="#243752"/>
<path d="M108.104 17.954C107.238 18.844 106.161 19.289 104.873 19.289C103.585 19.289 102.509 18.844 101.644 17.954C100.777 17.064 100.346 15.9742 100.346 14.6862C100.346 13.3982 100.777 12.3085 101.644 11.4185C102.509 10.5285 103.585 10.082 104.873 10.082C106.154 10.082 107.229 10.53 108.099 11.4244C108.968 12.3188 109.403 13.4056 109.403 14.6862C109.403 15.9742 108.969 17.064 108.104 17.954ZM102.479 17.2152C103.132 17.8761 103.929 18.2051 104.873 18.2051C105.818 18.2051 106.617 17.8747 107.267 17.2152C107.919 16.5544 108.247 15.7113 108.247 14.6862C108.247 13.6611 107.919 12.8181 107.267 12.1572C106.617 11.4963 105.818 11.1674 104.873 11.1674C103.929 11.1674 103.132 11.4978 102.479 12.1572C101.829 12.8181 101.501 13.6611 101.501 14.6862C101.501 15.7113 101.829 16.5544 102.479 17.2152Z" fill="#243752"/>
<path d="M110.992 19.0922V10.2803H112.369L116.652 17.1345H116.7L116.652 15.4367V10.2803H117.784V19.0922H116.602L112.121 11.9046H112.073L112.121 13.6024V19.0922H110.992Z" fill="#243752"/>
<path d="M69.6393 15.043C69.6393 16.2738 69.275 17.2534 68.5451 17.9847C67.7168 18.8542 66.6359 19.2889 65.3082 19.2889C64.0364 19.2889 62.954 18.8483 62.0655 17.9671C61.1755 17.0845 60.7305 15.9918 60.7305 14.6876C60.7305 13.382 61.1755 12.2893 62.0655 11.4081C62.954 10.5255 64.0364 10.0849 65.3082 10.0849C65.9398 10.0849 66.5434 10.2083 67.1161 10.4535C67.6904 10.7003 68.1501 11.0278 68.4937 11.4375L67.7198 12.213C67.1367 11.5154 66.3333 11.1673 65.3068 11.1673C64.3786 11.1673 63.5767 11.4933 62.8997 12.1454C62.2226 12.7975 61.8848 13.6449 61.8848 14.6862C61.8848 15.7274 62.2226 16.5748 62.8997 17.2269C63.5767 17.879 64.3786 18.205 65.3068 18.205C66.2908 18.205 67.1117 17.8775 67.7682 17.221C68.1941 16.7937 68.4409 16.1989 68.5069 15.4366H65.3068V14.3778H69.5761C69.6202 14.6083 69.6393 14.8301 69.6393 15.043Z" stroke="black" stroke-width="0.293729" stroke-miterlimit="10"/>
<path d="M76.4099 11.3627H72.3975V14.1561H76.0163V15.215H72.3975V18.0083H76.4099V19.0922H71.2652V10.2803H76.4099V11.3627Z" stroke="black" stroke-width="0.293729" stroke-miterlimit="10"/>
<path d="M81.1843 19.0922H80.0519V11.3627H77.5905V10.2803H83.6457V11.3627H81.1843V19.0922Z" stroke="black" stroke-width="0.293729" stroke-miterlimit="10"/>
<path d="M88.0266 19.0922V10.2803H89.1589V19.0922H88.0266Z" stroke="black" stroke-width="0.293729" stroke-miterlimit="10"/>
<path d="M94.1805 19.0922H93.0482V11.3627H90.5867V10.2803H96.6419V11.3627H94.1805V19.0922Z" stroke="black" stroke-width="0.293729" stroke-miterlimit="10"/>
<path d="M108.104 17.954C107.238 18.844 106.161 19.289 104.873 19.289C103.585 19.289 102.509 18.844 101.644 17.954C100.777 17.064 100.346 15.9742 100.346 14.6862C100.346 13.3982 100.777 12.3085 101.644 11.4185C102.509 10.5285 103.585 10.082 104.873 10.082C106.154 10.082 107.229 10.53 108.099 11.4244C108.968 12.3188 109.403 13.4056 109.403 14.6862C109.403 15.9742 108.969 17.064 108.104 17.954ZM102.479 17.2152C103.132 17.8761 103.929 18.2051 104.873 18.2051C105.818 18.2051 106.617 17.8747 107.267 17.2152C107.919 16.5544 108.247 15.7113 108.247 14.6862C108.247 13.6611 107.919 12.8181 107.267 12.1572C106.617 11.4963 105.818 11.1674 104.873 11.1674C103.929 11.1674 103.132 11.4978 102.479 12.1572C101.829 12.8181 101.501 13.6611 101.501 14.6862C101.501 15.7113 101.829 16.5544 102.479 17.2152Z" stroke="black" stroke-width="0.293729" stroke-miterlimit="10"/>
<path d="M110.992 19.0922V10.2803H112.369L116.652 17.1345H116.7L116.652 15.4367V10.2803H117.784V19.0922H116.602L112.121 11.9046H112.073L112.121 13.6024V19.0922H110.992Z" stroke="black" stroke-width="0.293729" stroke-miterlimit="10"/>
<path fill-rule="evenodd" clip-rule="evenodd" d="M14.916 11.6984C14.7424 12.0913 14.6465 12.5728 14.6465 13.1329V45.6135C14.6465 46.175 14.7426 46.6567 14.9164 47.0495L32.5905 29.3729L14.916 11.6984ZM15.9376 48.1054C16.5926 48.3853 17.4468 48.2963 18.3783 47.768L39.1704 35.9529L33.629 30.4114L15.9376 48.1054ZM40.4958 35.2013L47.0184 31.4954C49.0701 30.3278 49.0701 28.4201 47.0184 27.254L40.4932 23.5462L34.6674 29.3728L40.4958 35.2013ZM39.1688 22.7936L18.3783 10.9799C17.4466 10.4504 16.5921 10.362 15.9371 10.6425L33.6289 28.3344L39.1688 22.7936Z" fill="#243752"/>
<rect x="0.734323" y="0.734323" width="196.799" height="57.2772" rx="6.60891" stroke="#243752" stroke-width="1.46865"/>
</svg>
