<svg width="88" height="88" viewBox="0 0 88 88" fill="none" xmlns="http://www.w3.org/2000/svg">
<g filter="url(#filter0_d_557_27969)">
<rect x="16.5" y="16.415" width="55" height="55" rx="27.5" fill="white" shape-rendering="crispEdges"/>
<path d="M43.6411 36.2013C43.6774 35.1077 43.977 33.4982 45.0247 32.4409C45.9974 31.4586 47.1815 30.9801 47.9186 30.7613C47.9835 30.741 48.0524 30.7368 48.1193 30.749C48.1863 30.7613 48.2492 30.7896 48.3027 30.8316C48.3562 30.8736 48.3987 30.9279 48.4265 30.99C48.4544 31.0521 48.4667 31.12 48.4624 31.1879C48.414 32.2343 48.1385 33.7955 47.428 34.6316C46.7586 35.4195 45.6832 36.4635 44.1063 36.6399C44.0459 36.6464 43.9848 36.6398 43.9272 36.6204C43.8696 36.6011 43.8169 36.5695 43.7727 36.5278C43.7284 36.4861 43.6938 36.4353 43.6711 36.3789C43.6484 36.3226 43.6382 36.262 43.6411 36.2013Z" fill="black"/>
<path d="M46.3405 56.2036C47.0981 56.4936 47.863 56.786 48.5554 56.786C50.038 56.786 54.353 53.3664 54.5076 49.8163C54.509 49.7269 54.4854 49.6388 54.4395 49.562C54.3936 49.4851 54.3272 49.4226 54.2478 49.3813C53.1507 48.7675 51.3575 47.2378 51.2959 45.0132C51.2234 42.4201 52.5247 40.3611 53.5095 39.5093C53.7319 39.3171 53.808 38.9788 53.6098 38.7637C52.7132 37.785 50.9104 36.4377 49.2647 36.4703C48.0684 36.4945 46.9894 36.9416 46.0626 37.3234C45.3533 37.617 44.7334 37.8732 44.2187 37.8732C43.7317 37.8732 43.1469 37.6194 42.475 37.3258C41.5712 36.9319 40.5103 36.4703 39.3213 36.4703C37.1173 36.4715 32.7625 38.2985 32.7625 45.3528C32.7625 49.0938 36.6231 56.8851 39.882 56.786C40.5852 56.786 41.3368 56.496 42.0835 56.206C42.8182 55.9209 43.5468 55.6381 44.2187 55.6381C44.8675 55.6381 45.5998 55.9196 46.3405 56.2036Z" fill="black"/>
</g>
<defs>
<filter id="filter0_d_557_27969" x="0.5" y="0.415039" width="87" height="87" filterUnits="userSpaceOnUse" color-interpolation-filters="sRGB">
<feFlood flood-opacity="0" result="BackgroundImageFix"/>
<feColorMatrix in="SourceAlpha" type="matrix" values="0 0 0 0 0 0 0 0 0 0 0 0 0 0 0 0 0 0 127 0" result="hardAlpha"/>
<feMorphology radius="2" operator="dilate" in="SourceAlpha" result="effect1_dropShadow_557_27969"/>
<feOffset/>
<feGaussianBlur stdDeviation="7"/>
<feComposite in2="hardAlpha" operator="out"/>
<feColorMatrix type="matrix" values="0 0 0 0 0.0470588 0 0 0 0 0.145098 0 0 0 0 0.407843 0 0 0 0.25 0"/>
<feBlend mode="normal" in2="BackgroundImageFix" result="effect1_dropShadow_557_27969"/>
<feBlend mode="normal" in="SourceGraphic" in2="effect1_dropShadow_557_27969" result="shape"/>
</filter>
</defs>
</svg>
