<svg width="237" height="71" viewBox="0 0 237 71" fill="none" xmlns="http://www.w3.org/2000/svg">
<path d="M69.6159 53.8058V32.3332H66.1875V53.8058H69.6159ZM73.8563 40.814C75.0191 40.6536 75.9364 40.1674 76.608 39.3554C77.2797 38.5434 77.6155 37.556 77.6155 36.3932V32.3332H73.8563V36.3932H75.6908C75.6908 37.0548 75.5655 37.6412 75.3149 38.1525C75.0642 38.6637 74.578 38.9695 73.8563 39.0697V40.814ZM83.5701 53.8058L85.585 48.1219H94.156L96.1709 53.8058H100.201L91.9306 32.3332H87.9308L79.6906 53.8058H83.5701ZM93.1636 45.2649H86.6075L89.8555 36.0323H89.9457L93.1636 45.2649ZM105.283 59.5499V51.7909H105.343C105.604 52.2119 105.93 52.5778 106.321 52.8886C106.712 53.1993 107.138 53.4549 107.599 53.6554C108.06 53.8559 108.541 54.0013 109.042 54.0915C109.544 54.1817 110.045 54.2268 110.546 54.2268C111.689 54.2268 112.681 54.0013 113.523 53.5502C114.366 53.0991 115.062 52.4976 115.614 51.7458C116.165 50.9939 116.576 50.1268 116.847 49.1444C117.117 48.162 117.253 47.1495 117.253 46.1069C117.253 44.9641 117.102 43.8915 116.801 42.8891C116.501 41.8866 116.05 41.0095 115.448 40.2576C114.847 39.5058 114.09 38.9143 113.178 38.4833C112.265 38.0522 111.198 37.8367 109.975 37.8367C108.972 37.8367 108.04 38.0322 107.178 38.4231C106.316 38.8141 105.644 39.4607 105.163 40.3629H105.103V38.2577H101.855V59.5499H105.283ZM109.524 51.5202C108.822 51.5202 108.205 51.3799 107.674 51.0992C107.143 50.8185 106.687 50.4376 106.306 49.9564C105.925 49.4752 105.639 48.8988 105.449 48.2271C105.258 47.5555 105.163 46.8287 105.163 46.0468C105.163 44.3827 105.529 43.0495 106.261 42.047C106.992 41.0445 108.08 40.5433 109.524 40.5433C110.225 40.5433 110.847 40.6987 111.388 41.0095C111.93 41.3202 112.381 41.7312 112.742 42.2425C113.102 42.7537 113.373 43.3402 113.554 44.0018C113.734 44.6634 113.824 45.3451 113.824 46.0468C113.824 46.7285 113.749 47.3951 113.599 48.0467C113.448 48.6983 113.198 49.2797 112.847 49.791C112.496 50.3022 112.05 50.7182 111.509 51.039C110.967 51.3598 110.306 51.5202 109.524 51.5202ZM123.658 59.5499V51.7909H123.718C123.979 52.2119 124.305 52.5778 124.696 52.8886C125.087 53.1993 125.513 53.4549 125.974 53.6554C126.435 53.8559 126.916 54.0013 127.417 54.0915C127.919 54.1817 128.42 54.2268 128.921 54.2268C130.064 54.2268 131.056 54.0013 131.898 53.5502C132.741 53.0991 133.437 52.4976 133.989 51.7458C134.54 50.9939 134.951 50.1268 135.222 49.1444C135.492 48.162 135.628 47.1495 135.628 46.1069C135.628 44.9641 135.477 43.8915 135.176 42.8891C134.876 41.8866 134.425 41.0095 133.823 40.2576C133.222 39.5058 132.465 38.9143 131.553 38.4833C130.64 38.0522 129.573 37.8367 128.35 37.8367C127.347 37.8367 126.415 38.0322 125.553 38.4231C124.691 38.8141 124.019 39.4607 123.538 40.3629H123.478V38.2577H120.23V59.5499H123.658ZM127.899 51.5202C127.197 51.5202 126.58 51.3799 126.049 51.0992C125.518 50.8185 125.062 50.4376 124.681 49.9564C124.3 49.4752 124.014 48.8988 123.824 48.2271C123.633 47.5555 123.538 46.8287 123.538 46.0468C123.538 44.3827 123.904 43.0495 124.636 42.047C125.367 41.0445 126.455 40.5433 127.899 40.5433C128.6 40.5433 129.222 40.6987 129.763 41.0095C130.305 41.3202 130.756 41.7312 131.117 42.2425C131.477 42.7537 131.748 43.3402 131.929 44.0018C132.109 44.6634 132.199 45.3451 132.199 46.0468C132.199 46.7285 132.124 47.3951 131.974 48.0467C131.823 48.6983 131.573 49.2797 131.222 49.791C130.871 50.3022 130.425 50.7182 129.884 51.039C129.342 51.3598 128.681 51.5202 127.899 51.5202ZM155.025 54.3171C156.088 54.3171 157.13 54.1918 158.153 53.9411C159.175 53.6905 160.088 53.2946 160.889 52.7532C161.691 52.2119 162.338 51.5152 162.829 50.6631C163.32 49.811 163.566 48.7835 163.566 47.5806C163.566 47.0192 163.481 46.4578 163.31 45.8964C163.14 45.3351 162.879 44.8088 162.528 44.3176C162.178 43.8264 161.742 43.3903 161.22 43.0094C160.699 42.6284 160.088 42.3277 159.386 42.1072C159.105 42.027 158.639 41.9016 157.987 41.7312C157.336 41.5608 156.669 41.3854 155.987 41.2049C155.306 41.0245 154.689 40.8591 154.138 40.7087C153.587 40.5584 153.271 40.4732 153.191 40.4531C152.429 40.2326 151.812 39.9068 151.341 39.4757C150.87 39.0447 150.634 38.4482 150.634 37.6863C150.634 37.145 150.76 36.6939 151.01 36.333C151.261 35.9721 151.577 35.6864 151.958 35.4759C152.339 35.2654 152.76 35.115 153.221 35.0248C153.682 34.9346 154.133 34.8895 154.574 34.8895C155.877 34.8895 156.95 35.1752 157.792 35.7466C158.634 36.318 159.105 37.2954 159.205 38.6788H162.965C162.965 37.556 162.744 36.5686 162.303 35.7165C161.862 34.8644 161.265 34.1477 160.514 33.5662C159.762 32.9848 158.89 32.5487 157.897 32.258C156.905 31.9673 155.847 31.822 154.724 31.822C153.762 31.822 152.81 31.9473 151.867 32.1979C150.925 32.4485 150.083 32.8344 149.341 33.3557C148.599 33.877 148.003 34.5336 147.552 35.3255C147.101 36.1175 146.875 37.0548 146.875 38.1374C146.875 38.6988 146.95 39.2502 147.101 39.7915C147.251 40.3328 147.507 40.8441 147.868 41.3252C148.228 41.8064 148.715 42.2425 149.326 42.6334C149.938 43.0244 150.705 43.3402 151.627 43.5808C153.11 43.9817 154.358 44.3075 155.371 44.5582C156.383 44.8088 157.271 45.0744 158.032 45.3551C158.474 45.5155 158.88 45.7912 159.25 46.1821C159.621 46.5731 159.807 47.1796 159.807 48.0016C159.807 48.4026 159.727 48.7985 159.566 49.1895C159.406 49.5805 159.145 49.9263 158.784 50.227C158.423 50.5278 157.952 50.7734 157.371 50.9638C156.789 51.1543 156.088 51.2495 155.266 51.2495C154.504 51.2495 153.797 51.1643 153.146 50.9939C152.494 50.8235 151.917 50.5528 151.416 50.1819C150.915 49.811 150.524 49.3349 150.243 48.7534C149.963 48.172 149.822 47.4703 149.822 46.6483H146.063C146.083 47.9715 146.334 49.1193 146.815 50.0917C147.296 51.0641 147.938 51.861 148.74 52.4826C149.542 53.1041 150.484 53.5652 151.567 53.866C152.649 54.1667 153.802 54.3171 155.025 54.3171ZM171.686 53.9562C172.067 53.9562 172.438 53.9361 172.799 53.896C173.16 53.8559 173.53 53.8158 173.911 53.7757V51.1292C173.671 51.1894 173.43 51.2245 173.19 51.2345C172.949 51.2445 172.708 51.2495 172.468 51.2495C172.087 51.2495 171.786 51.2044 171.566 51.1142C171.345 51.024 171.18 50.8887 171.069 50.7082C170.959 50.5278 170.889 50.3072 170.859 50.0466C170.829 49.786 170.814 49.4752 170.814 49.1143V40.814H173.911V38.2577H170.814V33.5963H167.385V38.2577H164.799V40.814H167.385V49.9865C167.405 50.628 167.471 51.1994 167.581 51.7007C167.691 52.2019 167.902 52.6179 168.212 52.9487C168.523 53.2795 168.954 53.5301 169.506 53.7005C170.057 53.871 170.784 53.9562 171.686 53.9562ZM183.505 54.2268C184.748 54.2268 185.856 54.0213 186.828 53.6103C187.8 53.1993 188.622 52.6329 189.294 51.9112C189.966 51.1894 190.477 50.3273 190.828 49.3248C191.179 48.3224 191.354 47.2197 191.354 46.0167C191.354 44.8338 191.179 43.7412 190.828 42.7387C190.477 41.7362 189.966 40.8741 189.294 40.1524C188.622 39.4306 187.8 38.8642 186.828 38.4532C185.856 38.0422 184.748 37.8367 183.505 37.8367C182.262 37.8367 181.154 38.0422 180.182 38.4532C179.209 38.8642 178.387 39.4306 177.716 40.1524C177.044 40.8741 176.533 41.7362 176.182 42.7387C175.831 43.7412 175.656 44.8338 175.656 46.0167C175.656 47.2197 175.831 48.3224 176.182 49.3248C176.533 50.3273 177.044 51.1894 177.716 51.9112C178.387 52.6329 179.209 53.1993 180.182 53.6103C181.154 54.0213 182.262 54.2268 183.505 54.2268ZM183.505 51.5202C182.743 51.5202 182.081 51.3598 181.52 51.039C180.959 50.7182 180.498 50.2972 180.137 49.7759C179.776 49.2547 179.51 48.6682 179.34 48.0166C179.169 47.365 179.084 46.6984 179.084 46.0167C179.084 45.3551 179.169 44.6935 179.34 44.0319C179.51 43.3702 179.776 42.7838 180.137 42.2726C180.498 41.7613 180.959 41.3453 181.52 41.0245C182.081 40.7037 182.743 40.5433 183.505 40.5433C184.267 40.5433 184.928 40.7037 185.49 41.0245C186.051 41.3453 186.512 41.7613 186.873 42.2726C187.234 42.7838 187.5 43.3702 187.67 44.0319C187.84 44.6935 187.926 45.3551 187.926 46.0167C187.926 46.6984 187.84 47.365 187.67 48.0166C187.5 48.6682 187.234 49.2547 186.873 49.7759C186.512 50.2972 186.051 50.7182 185.49 51.039C184.928 51.3598 184.267 51.5202 183.505 51.5202ZM197.639 53.8058V46.4077C197.639 45.5456 197.75 44.7837 197.97 44.1221C198.191 43.4605 198.492 42.9041 198.873 42.453C199.253 42.0019 199.7 41.6611 200.211 41.4305C200.722 41.1999 201.268 41.0846 201.85 41.0846C202.09 41.0846 202.336 41.0997 202.587 41.1298C202.837 41.1598 203.083 41.1949 203.323 41.235V37.9269C203.163 37.9069 203.008 37.8868 202.857 37.8668C202.707 37.8467 202.431 37.8367 202.03 37.8367C201.509 37.8367 200.998 37.9369 200.496 38.1374C199.995 38.3379 199.539 38.6036 199.128 38.9344C198.717 39.2652 198.366 39.6311 198.076 40.0321C197.785 40.4331 197.589 40.8441 197.489 41.2651H197.429V38.2577H194.211V53.8058H197.639ZM211.654 54.2268C212.496 54.2268 213.303 54.1116 214.075 53.881C214.847 53.6504 215.543 53.3096 216.165 52.8585C216.786 52.4074 217.318 51.851 217.759 51.1894C218.2 50.5278 218.511 49.7759 218.691 48.9339H215.443C215.142 49.796 214.686 50.4426 214.075 50.8736C213.463 51.3047 212.656 51.5202 211.654 51.5202C210.932 51.5202 210.311 51.3949 209.789 51.1443C209.268 50.8937 208.837 50.5579 208.496 50.1368C208.155 49.7158 207.9 49.2246 207.729 48.6632C207.559 48.1018 207.474 47.5204 207.474 46.9189H218.902C219.042 45.7561 218.967 44.6283 218.676 43.5357C218.385 42.443 217.919 41.4756 217.278 40.6335C216.636 39.7915 215.829 39.1148 214.857 38.6036C213.884 38.0923 212.787 37.8367 211.564 37.8367C210.401 37.8367 209.358 38.0572 208.436 38.4983C207.514 38.9394 206.727 39.5359 206.075 40.2877C205.424 41.0395 204.922 41.9117 204.571 42.9041C204.221 43.8965 204.045 44.9441 204.045 46.0468C204.045 47.2497 204.211 48.3525 204.541 49.3549C204.872 50.3574 205.363 51.2195 206.015 51.9412C206.667 52.663 207.464 53.2244 208.406 53.6254C209.348 54.0263 210.431 54.2268 211.654 54.2268ZM215.473 44.6634H207.474C207.494 44.082 207.609 43.5407 207.819 43.0394C208.03 42.5382 208.311 42.1021 208.661 41.7312C209.012 41.3603 209.433 41.0696 209.925 40.8591C210.416 40.6486 210.962 40.5433 211.564 40.5433C212.145 40.5433 212.671 40.6586 213.142 40.8892C213.614 41.1197 214.015 41.4205 214.345 41.7914C214.676 42.1623 214.937 42.5984 215.127 43.0996C215.318 43.6008 215.433 44.1221 215.473 44.6634Z" fill="#092674"/>
<path d="M70.4259 25.0397V13.4339H74.7826V11.9695H64.3301V13.4339H68.6868V25.0397H70.4259ZM79.7801 13.9099L82.3612 10.9443H80.3659L78.6085 13.9099H79.7801ZM79.9998 25.2411C81.0737 25.2411 81.9646 24.9726 82.6724 24.4356C83.3802 23.8987 83.8379 23.0993 84.0453 22.0376H82.5076C82.3734 22.66 82.0958 23.1237 81.6747 23.4288C81.2537 23.7339 80.7137 23.8865 80.0547 23.8865C79.5421 23.8865 79.0967 23.801 78.7184 23.6302C78.34 23.4593 78.0289 23.2305 77.7848 22.9437C77.5407 22.6569 77.3637 22.3274 77.2539 21.9552C77.1441 21.583 77.0953 21.1894 77.1075 20.7745H84.1918C84.2162 20.2009 84.1643 19.5968 84.0362 18.9622C83.908 18.3276 83.6762 17.7419 83.3406 17.2049C83.005 16.6679 82.5595 16.2255 82.0042 15.8777C81.449 15.5299 80.7503 15.356 79.9082 15.356C79.2614 15.356 78.6665 15.4781 78.1234 15.7221C77.5804 15.9662 77.1105 16.3079 76.7139 16.7472C76.3173 17.1866 76.0091 17.7052 75.7895 18.3032C75.5698 18.9012 75.4599 19.5602 75.4599 20.2802C75.4844 21.0003 75.5911 21.6654 75.7803 22.2756C75.9695 22.8858 76.2532 23.4105 76.6315 23.8499C77.0098 24.2892 77.4766 24.6309 78.0319 24.875C78.5872 25.1191 79.2431 25.2411 79.9998 25.2411ZM82.5443 19.4016H77.1075C77.1319 19.0355 77.2112 18.6907 77.3454 18.3673C77.4797 18.0439 77.6627 17.7602 77.8946 17.5161C78.1265 17.272 78.4041 17.0798 78.7275 16.9395C79.0509 16.7991 79.414 16.7289 79.8167 16.7289C80.2072 16.7289 80.5642 16.7991 80.8876 16.9395C81.211 17.0798 81.4917 17.269 81.7297 17.5069C81.9676 17.7449 82.1568 18.0286 82.2971 18.3581C82.4375 18.6877 82.5198 19.0355 82.5443 19.4016ZM87.4502 25.0397V11.9695H85.8942V25.0397H87.4502ZM93.6741 13.9099L96.2552 10.9443H94.2599L92.5026 13.9099H93.6741ZM93.8938 25.2411C94.9677 25.2411 95.8586 24.9726 96.5664 24.4356C97.2743 23.8987 97.7319 23.0993 97.9394 22.0376H96.4017C96.2674 22.66 95.9898 23.1237 95.5688 23.4288C95.1477 23.7339 94.6077 23.8865 93.9487 23.8865C93.4362 23.8865 92.9907 23.801 92.6124 23.6302C92.2341 23.4593 91.9229 23.2305 91.6788 22.9437C91.4347 22.6569 91.2578 22.3274 91.1479 21.9552C91.0381 21.583 90.9893 21.1894 91.0015 20.7745H98.0858C98.1102 20.2009 98.0583 19.5968 97.9302 18.9622C97.8021 18.3276 97.5702 17.7419 97.2346 17.2049C96.899 16.6679 96.4535 16.2255 95.8983 15.8777C95.343 15.5299 94.6443 15.356 93.8023 15.356C93.1555 15.356 92.5605 15.4781 92.0175 15.7221C91.4744 15.9662 91.0045 16.3079 90.6079 16.7472C90.2113 17.1866 89.9032 17.7052 89.6835 18.3032C89.4638 18.9012 89.354 19.5602 89.354 20.2802C89.3784 21.0003 89.4852 21.6654 89.6743 22.2756C89.8635 22.8858 90.1472 23.4105 90.5255 23.8499C90.9039 24.2892 91.3707 24.6309 91.9259 24.875C92.4812 25.1191 93.1372 25.2411 93.8938 25.2411ZM96.4383 19.4016H91.0015C91.0259 19.0355 91.1052 18.6907 91.2395 18.3673C91.3737 18.0439 91.5568 17.7602 91.7886 17.5161C92.0205 17.272 92.2981 17.0798 92.6216 16.9395C92.945 16.7991 93.308 16.7289 93.7107 16.7289C94.1013 16.7289 94.4582 16.7991 94.7816 16.9395C95.105 17.0798 95.3857 17.269 95.6237 17.5069C95.8617 17.7449 96.0508 18.0286 96.1912 18.3581C96.3315 18.6877 96.4139 19.0355 96.4383 19.4016ZM103.614 25.2411C104.822 25.2411 105.777 24.9238 106.479 24.2892C107.181 23.6546 107.617 22.7515 107.788 21.58H106.195C106.098 22.3122 105.832 22.8797 105.399 23.2824C104.966 23.6851 104.365 23.8865 103.596 23.8865C103.108 23.8865 102.687 23.7888 102.333 23.5936C101.979 23.3983 101.692 23.139 101.472 22.8156C101.253 22.4922 101.091 22.123 100.987 21.7081C100.884 21.2932 100.832 20.866 100.832 20.4267C100.832 19.9507 100.88 19.4901 100.978 19.0446C101.076 18.5992 101.237 18.2056 101.463 17.8639C101.689 17.5222 101.991 17.2476 102.369 17.0401C102.748 16.8327 103.218 16.7289 103.779 16.7289C104.438 16.7289 104.963 16.8937 105.353 17.2232C105.744 17.5527 106 18.0164 106.122 18.6144H107.733C107.672 18.0531 107.525 17.568 107.294 17.1591C107.062 16.7503 106.766 16.4116 106.406 16.1432C106.046 15.8747 105.631 15.6764 105.161 15.5482C104.691 15.4201 104.188 15.356 103.651 15.356C102.906 15.356 102.253 15.4872 101.692 15.7496C101.131 16.012 100.664 16.372 100.292 16.8296C99.9194 17.2873 99.6418 17.8242 99.4587 18.4405C99.2757 19.0568 99.1841 19.7189 99.1841 20.4267C99.1841 21.1345 99.2787 21.7844 99.4679 22.3763C99.657 22.9681 99.9377 23.4776 100.31 23.9048C100.682 24.3319 101.146 24.6614 101.701 24.8933C102.256 25.1252 102.894 25.2411 103.614 25.2411ZM111.083 25.0397V19.6945C111.083 19.2673 111.141 18.8738 111.257 18.5137C111.373 18.1537 111.547 17.8395 111.778 17.571C112.01 17.3025 112.3 17.0951 112.648 16.9486C112.996 16.8022 113.408 16.7289 113.884 16.7289C114.482 16.7289 114.951 16.8998 115.293 17.2415C115.635 17.5832 115.806 18.047 115.806 18.6327V25.0397H117.362V18.8158C117.362 18.3032 117.31 17.8364 117.206 17.4154C117.102 16.9944 116.922 16.6313 116.666 16.3262C116.41 16.0211 116.074 15.7831 115.659 15.6123C115.244 15.4414 114.726 15.356 114.103 15.356C113.823 15.356 113.533 15.3865 113.234 15.4475C112.935 15.5086 112.648 15.6031 112.373 15.7313C112.099 15.8594 111.852 16.0242 111.632 16.2255C111.412 16.4269 111.242 16.674 111.119 16.9669H111.083V11.9695H109.527V25.0397H111.083ZM126.972 25.2411C127.448 25.2411 127.82 25.1618 128.089 25.0031V23.7949C127.906 23.856 127.747 23.8865 127.613 23.8865C127.369 23.8865 127.225 23.801 127.183 23.6302C127.14 23.4593 127.119 23.1909 127.119 22.8247V17.9554C127.119 17.4063 127.015 16.9608 126.807 16.6191C126.6 16.2774 126.325 16.012 125.984 15.8228C125.642 15.6336 125.261 15.5086 124.84 15.4475C124.419 15.3865 123.994 15.356 123.567 15.356C123.03 15.356 122.527 15.4109 122.057 15.5208C121.587 15.6306 121.169 15.8106 120.803 16.0608C120.437 16.311 120.144 16.6374 119.925 17.0401C119.705 17.4429 119.583 17.9371 119.558 18.5229H121.114C121.151 17.8273 121.389 17.3544 121.828 17.1042C122.268 16.854 122.817 16.7289 123.476 16.7289C123.72 16.7289 123.967 16.7472 124.217 16.7839C124.467 16.8205 124.693 16.8937 124.895 17.0035C125.096 17.1134 125.261 17.272 125.389 17.4795C125.517 17.6869 125.581 17.9615 125.581 18.3032C125.581 18.5961 125.496 18.8188 125.325 18.9714C125.154 19.1239 124.922 19.2399 124.629 19.3192C124.336 19.3985 123.998 19.4595 123.613 19.5023C123.229 19.545 122.823 19.609 122.396 19.6945C121.993 19.7677 121.599 19.8592 121.215 19.9691C120.831 20.0789 120.489 20.2406 120.19 20.4542C119.891 20.6677 119.65 20.9454 119.467 21.2871C119.284 21.6288 119.192 22.0681 119.192 22.6051C119.192 23.081 119.275 23.4868 119.439 23.8224C119.604 24.158 119.827 24.4295 120.108 24.637C120.388 24.8445 120.721 24.997 121.105 25.0946C121.49 25.1923 121.895 25.2411 122.323 25.2411C122.982 25.2411 123.595 25.1282 124.162 24.9024C124.73 24.6767 125.227 24.3075 125.654 23.7949C125.654 24.3075 125.773 24.6767 126.011 24.9024C126.249 25.1282 126.569 25.2411 126.972 25.2411ZM122.67 23.8865C122.426 23.8865 122.194 23.8621 121.975 23.8132C121.755 23.7644 121.563 23.6851 121.398 23.5753C121.233 23.4654 121.099 23.322 120.995 23.1451C120.892 22.9681 120.84 22.7515 120.84 22.4952C120.84 22.1047 120.928 21.7966 121.105 21.5708C121.282 21.345 121.511 21.1711 121.792 21.0491C122.072 20.927 122.39 20.8386 122.744 20.7837C123.098 20.7287 123.448 20.6799 123.796 20.6372C124.144 20.5945 124.477 20.5396 124.794 20.4725C125.111 20.4053 125.367 20.2986 125.563 20.1521V21.7447C125.563 21.9644 125.508 22.1993 125.398 22.4495C125.288 22.6997 125.117 22.9315 124.885 23.1451C124.653 23.3587 124.354 23.5356 123.988 23.676C123.622 23.8163 123.183 23.8865 122.67 23.8865ZM131.036 25.0397V20.8294C131.036 20.2192 131.097 19.6792 131.219 19.2094C131.341 18.7395 131.536 18.3398 131.805 18.0103C132.073 17.6808 132.427 17.4307 132.867 17.2598C133.306 17.089 133.837 17.0035 134.459 17.0035V15.356C133.617 15.3316 132.922 15.5025 132.372 15.8686C131.823 16.2347 131.359 16.8022 130.981 17.571H130.945V15.5757H129.48V25.0397H131.036ZM139.402 28.8656C140.915 28.8656 142.026 28.4812 142.733 27.7124C143.441 26.9435 143.795 25.7842 143.795 24.2343V15.5757H142.331V16.9303H142.312C142.032 16.4055 141.641 16.012 141.141 15.7496C140.64 15.4872 140.091 15.356 139.493 15.356C138.676 15.356 137.986 15.5116 137.425 15.8228C136.863 16.134 136.412 16.5306 136.07 17.0127C135.728 17.4947 135.484 18.0317 135.338 18.6236C135.191 19.2155 135.118 19.7921 135.118 20.3535C135.118 21.0003 135.207 21.6135 135.384 22.1932C135.561 22.7729 135.826 23.2793 136.18 23.7126C136.534 24.1458 136.973 24.4906 137.498 24.7468C138.023 25.0031 138.639 25.1313 139.347 25.1313C139.957 25.1313 140.534 24.994 141.077 24.7194C141.62 24.4448 142.026 24.0146 142.294 23.4288H142.331V24.0512C142.331 24.576 142.279 25.058 142.175 25.4974C142.071 25.9367 141.904 26.312 141.672 26.6232C141.44 26.9344 141.147 27.1784 140.793 27.3554C140.439 27.5324 140.006 27.6208 139.493 27.6208C139.237 27.6208 138.969 27.5934 138.688 27.5385C138.407 27.4835 138.148 27.3951 137.91 27.273C137.672 27.151 137.471 26.9923 137.306 26.7971C137.141 26.6018 137.053 26.3638 137.04 26.0832H135.484C135.509 26.5957 135.643 27.029 135.887 27.3829C136.131 27.7368 136.439 28.0236 136.812 28.2432C137.184 28.4629 137.599 28.6215 138.056 28.7192C138.514 28.8168 138.962 28.8656 139.402 28.8656ZM139.438 23.7766C138.926 23.7766 138.499 23.6699 138.157 23.4563C137.815 23.2427 137.541 22.962 137.333 22.6142C137.126 22.2664 136.979 21.8789 136.894 21.4518C136.808 21.0247 136.766 20.5975 136.766 20.1704C136.766 19.7189 136.818 19.2856 136.921 18.8707C137.025 18.4558 137.19 18.0897 137.416 17.7724C137.641 17.4551 137.931 17.2018 138.285 17.0127C138.639 16.8235 139.066 16.7289 139.567 16.7289C140.055 16.7289 140.47 16.8266 140.811 17.0218C141.153 17.2171 141.431 17.4764 141.644 17.7998C141.858 18.1232 142.013 18.4863 142.111 18.889C142.209 19.2917 142.257 19.7006 142.257 20.1155C142.257 20.5548 142.206 20.9942 142.102 21.4335C141.998 21.8728 141.836 22.2664 141.617 22.6142C141.397 22.962 141.107 23.2427 140.747 23.4563C140.387 23.6699 139.951 23.7766 139.438 23.7766ZM150.166 25.2411C151.239 25.2411 152.13 24.9726 152.838 24.4356C153.546 23.8987 154.004 23.0993 154.211 22.0376H152.673C152.539 22.66 152.262 23.1237 151.841 23.4288C151.419 23.7339 150.879 23.8865 150.22 23.8865C149.708 23.8865 149.262 23.801 148.884 23.6302C148.506 23.4593 148.195 23.2305 147.951 22.9437C147.706 22.6569 147.53 22.3274 147.42 21.9552C147.31 21.583 147.261 21.1894 147.273 20.7745H154.358C154.382 20.2009 154.33 19.5968 154.202 18.9622C154.074 18.3276 153.842 17.7419 153.506 17.2049C153.171 16.6679 152.725 16.2255 152.17 15.8777C151.615 15.5299 150.916 15.356 150.074 15.356C149.427 15.356 148.832 15.4781 148.289 15.7221C147.746 15.9662 147.276 16.3079 146.88 16.7472C146.483 17.1866 146.175 17.7052 145.955 18.3032C145.736 18.9012 145.626 19.5602 145.626 20.2802C145.65 21.0003 145.757 21.6654 145.946 22.2756C146.135 22.8858 146.419 23.4105 146.797 23.8499C147.176 24.2892 147.642 24.6309 148.198 24.875C148.753 25.1191 149.409 25.2411 150.166 25.2411ZM152.71 19.4016H147.273C147.298 19.0355 147.377 18.6907 147.511 18.3673C147.645 18.0439 147.829 17.7602 148.06 17.5161C148.292 17.272 148.57 17.0798 148.893 16.9395C149.217 16.7991 149.58 16.7289 149.982 16.7289C150.373 16.7289 150.73 16.7991 151.053 16.9395C151.377 17.0798 151.657 17.269 151.895 17.5069C152.133 17.7449 152.323 18.0286 152.463 18.3581C152.603 18.6877 152.686 19.0355 152.71 19.4016ZM157.47 25.0397V20.8294C157.47 20.2192 157.531 19.6792 157.653 19.2094C157.775 18.7395 157.97 18.3398 158.238 18.0103C158.507 17.6808 158.861 17.4307 159.3 17.2598C159.739 17.089 160.27 17.0035 160.893 17.0035V15.356C160.051 15.3316 159.355 15.5025 158.806 15.8686C158.257 16.2347 157.793 16.8022 157.415 17.571H157.378V15.5757H155.914V25.0397H157.47ZM170.997 25.2411C171.656 25.2411 172.261 25.1252 172.81 24.8933C173.359 24.6614 173.762 24.2831 174.018 23.7583H174.054V25.0397H175.61V11.9695H174.054V16.8388H174.018C173.847 16.5581 173.637 16.3232 173.386 16.134C173.136 15.9448 172.871 15.7923 172.59 15.6764C172.309 15.5604 172.029 15.4781 171.748 15.4292C171.467 15.3804 171.205 15.356 170.961 15.356C170.241 15.356 169.609 15.4872 169.066 15.7496C168.523 16.012 168.072 16.3659 167.712 16.8113C167.352 17.2568 167.083 17.7785 166.906 18.3765C166.729 18.9744 166.641 19.609 166.641 20.2802C166.641 20.9515 166.732 21.5861 166.915 22.184C167.098 22.782 167.37 23.3068 167.73 23.7583C168.09 24.2099 168.541 24.5699 169.084 24.8384C169.628 25.1069 170.265 25.2411 170.997 25.2411ZM171.217 23.8865C170.717 23.8865 170.28 23.7888 169.908 23.5936C169.536 23.3983 169.231 23.1359 168.993 22.8064C168.755 22.4769 168.578 22.1017 168.462 21.6806C168.346 21.2596 168.288 20.8294 168.288 20.3901C168.288 19.9263 168.337 19.4748 168.435 19.0355C168.532 18.5961 168.691 18.2056 168.911 17.8639C169.13 17.5222 169.423 17.2476 169.789 17.0401C170.155 16.8327 170.601 16.7289 171.126 16.7289C171.663 16.7289 172.12 16.8296 172.499 17.031C172.877 17.2323 173.185 17.4978 173.423 17.8273C173.661 18.1568 173.835 18.5382 173.945 18.9714C174.054 19.4046 174.109 19.8531 174.109 20.3169C174.109 20.7562 174.058 21.1894 173.954 21.6166C173.85 22.0437 173.682 22.4251 173.45 22.7607C173.219 23.0963 172.92 23.3678 172.553 23.5753C172.187 23.7827 171.742 23.8865 171.217 23.8865ZM185.276 25.2411C185.752 25.2411 186.124 25.1618 186.393 25.0031V23.7949C186.209 23.856 186.051 23.8865 185.917 23.8865C185.673 23.8865 185.529 23.801 185.486 23.6302C185.444 23.4593 185.422 23.1909 185.422 22.8247V17.9554C185.422 17.4063 185.319 16.9608 185.111 16.6191C184.904 16.2774 184.629 16.012 184.287 15.8228C183.946 15.6336 183.564 15.5086 183.143 15.4475C182.722 15.3865 182.298 15.356 181.871 15.356C181.334 15.356 180.831 15.4109 180.361 15.5208C179.891 15.6306 179.473 15.8106 179.107 16.0608C178.741 16.311 178.448 16.6374 178.228 17.0401C178.009 17.4429 177.886 17.9371 177.862 18.5229H179.418C179.455 17.8273 179.693 17.3544 180.132 17.1042C180.571 16.854 181.12 16.7289 181.779 16.7289C182.024 16.7289 182.271 16.7472 182.521 16.7839C182.771 16.8205 182.997 16.8937 183.198 17.0035C183.4 17.1134 183.564 17.272 183.692 17.4795C183.821 17.6869 183.885 17.9615 183.885 18.3032C183.885 18.5961 183.799 18.8188 183.628 18.9714C183.458 19.1239 183.226 19.2399 182.933 19.3192C182.64 19.3985 182.301 19.4595 181.917 19.5023C181.532 19.545 181.127 19.609 180.699 19.6945C180.297 19.7677 179.903 19.8592 179.519 19.9691C179.134 20.0789 178.793 20.2406 178.494 20.4542C178.195 20.6677 177.954 20.9454 177.771 21.2871C177.587 21.6288 177.496 22.0681 177.496 22.6051C177.496 23.081 177.578 23.4868 177.743 23.8224C177.908 24.158 178.131 24.4295 178.411 24.637C178.692 24.8445 179.024 24.997 179.409 25.0946C179.793 25.1923 180.199 25.2411 180.626 25.2411C181.285 25.2411 181.898 25.1282 182.466 24.9024C183.033 24.6767 183.531 24.3075 183.958 23.7949C183.958 24.3075 184.077 24.6767 184.315 24.9024C184.553 25.1282 184.873 25.2411 185.276 25.2411ZM180.974 23.8865C180.73 23.8865 180.498 23.8621 180.278 23.8132C180.059 23.7644 179.867 23.6851 179.702 23.5753C179.537 23.4654 179.403 23.322 179.299 23.1451C179.195 22.9681 179.143 22.7515 179.143 22.4952C179.143 22.1047 179.232 21.7966 179.409 21.5708C179.586 21.345 179.815 21.1711 180.095 21.0491C180.376 20.927 180.693 20.8386 181.047 20.7837C181.401 20.7287 181.752 20.6799 182.1 20.6372C182.448 20.5945 182.78 20.5396 183.098 20.4725C183.415 20.4053 183.671 20.2986 183.866 20.1521V21.7447C183.866 21.9644 183.811 22.1993 183.702 22.4495C183.592 22.6997 183.421 22.9315 183.189 23.1451C182.957 23.3587 182.658 23.5356 182.292 23.676C181.926 23.8163 181.487 23.8865 180.974 23.8865ZM189.395 25.0397V19.6945C189.395 19.2673 189.453 18.8738 189.569 18.5137C189.685 18.1537 189.858 17.8395 190.09 17.571C190.322 17.3025 190.612 17.0951 190.96 16.9486C191.308 16.8022 191.719 16.7289 192.195 16.7289C192.793 16.7289 193.263 16.8998 193.605 17.2415C193.947 17.5832 194.118 18.047 194.118 18.6327V25.0397H195.674V18.8158C195.674 18.3032 195.622 17.8364 195.518 17.4154C195.414 16.9944 195.234 16.6313 194.978 16.3262C194.722 16.0211 194.386 15.7831 193.971 15.6123C193.556 15.4414 193.038 15.356 192.415 15.356C191.012 15.356 189.987 15.9296 189.34 17.0767H189.303V15.5757H187.839V25.0397H189.395ZM201.422 25.2411C201.897 25.2411 202.376 25.1953 202.859 25.1038C203.341 25.0123 203.774 24.8506 204.158 24.6187C204.543 24.3868 204.854 24.0817 205.092 23.7034C205.33 23.3251 205.449 22.8491 205.449 22.2756C205.449 21.824 205.36 21.4457 205.183 21.1406C205.006 20.8355 204.775 20.5823 204.488 20.3809C204.201 20.1796 203.871 20.0179 203.499 19.8958C203.127 19.7738 202.746 19.6701 202.355 19.5846C201.989 19.4992 201.623 19.4168 201.257 19.3375C200.891 19.2582 200.561 19.1605 200.268 19.0446C199.975 18.9287 199.734 18.7822 199.545 18.6053C199.356 18.4283 199.261 18.2056 199.261 17.9371C199.261 17.693 199.322 17.4947 199.445 17.3422C199.567 17.1896 199.725 17.0676 199.92 16.9761C200.116 16.8845 200.332 16.8205 200.57 16.7839C200.808 16.7472 201.043 16.7289 201.275 16.7289C201.531 16.7289 201.785 16.7564 202.035 16.8113C202.285 16.8662 202.514 16.9547 202.721 17.0767C202.929 17.1988 203.1 17.3605 203.234 17.5619C203.368 17.7632 203.447 18.0164 203.472 18.3215H205.028C204.991 17.748 204.869 17.269 204.662 16.8845C204.454 16.5001 204.177 16.195 203.829 15.9693C203.481 15.7435 203.081 15.5848 202.63 15.4933C202.178 15.4018 201.684 15.356 201.147 15.356C200.732 15.356 200.314 15.4079 199.893 15.5116C199.472 15.6153 199.094 15.774 198.758 15.9876C198.422 16.2011 198.148 16.4788 197.934 16.8205C197.721 17.1622 197.614 17.571 197.614 18.047C197.614 18.6571 197.766 19.1331 198.072 19.4748C198.377 19.8165 198.758 20.0819 199.216 20.2711C199.673 20.4603 200.171 20.6067 200.708 20.7104C201.245 20.8142 201.742 20.9301 202.2 21.0582C202.657 21.1864 203.039 21.3542 203.344 21.5616C203.649 21.7691 203.801 22.0742 203.801 22.4769C203.801 22.7698 203.728 23.0108 203.582 23.2C203.435 23.3892 203.249 23.5326 203.023 23.6302C202.798 23.7278 202.55 23.7949 202.282 23.8316C202.013 23.8682 201.757 23.8865 201.513 23.8865C201.196 23.8865 200.888 23.856 200.589 23.7949C200.29 23.7339 200.021 23.6332 199.783 23.4929C199.545 23.3526 199.353 23.1634 199.207 22.9254C199.06 22.6874 198.981 22.3976 198.969 22.0559H197.413C197.437 22.6417 197.559 23.139 197.779 23.5478C197.998 23.9566 198.291 24.2861 198.657 24.5363C199.023 24.7865 199.445 24.9665 199.92 25.0763C200.396 25.1862 200.897 25.2411 201.422 25.2411Z" fill="#092674"/>
<path d="M51.7712 49.594C49.9097 52.3042 47.9842 54.9976 44.944 55.0541C41.952 55.1105 40.9928 53.2897 37.5787 53.2897C34.1609 53.2897 33.0918 54.9976 30.2668 55.1105C27.3318 55.2199 25.1001 52.1835 23.2233 49.4856C19.389 43.9693 16.4625 33.8883 20.3983 27.0851C22.3473 23.7064 25.8397 21.5687 29.6243 21.5123C32.5066 21.4595 35.2294 23.4469 36.9899 23.4469C38.7531 23.4469 42.0579 21.0608 45.5323 21.4108C46.9867 21.4706 51.0684 21.9942 53.6898 25.813C53.4827 25.9485 48.8177 28.6505 48.8746 34.2797C48.9317 41.004 54.7932 43.2391 54.8613 43.2696C54.8082 43.4276 53.9243 46.4605 51.7712 49.594ZM39.0066 14.024C40.6157 12.1468 43.3345 10.7505 45.5782 10.6567C45.8649 13.2642 44.8112 15.8754 43.255 17.7569C41.6956 19.6351 39.143 21.0982 36.6378 20.9028C36.2974 18.3517 37.5601 15.6911 39.0066 14.024Z" fill="#092674"/>
<rect x="1.42266" y="1.20006" width="234.267" height="68.6" rx="7.21482" stroke="#092674" stroke-width="2.4"/>
</svg>
