<svg width="448" height="193" viewBox="0 0 448 193" fill="none" xmlns="http://www.w3.org/2000/svg">
<g filter="url(#filter0_d_74_402)">
<g filter="url(#filter1_b_74_402)">
<rect x="39" y="20.2863" width="370" height="115.995" rx="20" fill="white" fill-opacity="0.8"/>
</g>
<path d="M148.72 70.6162C146.96 70.6162 145.448 70.2642 144.184 69.5602C142.936 68.8402 141.976 67.8322 141.304 66.5362C140.632 65.2242 140.296 63.6802 140.296 61.9042C140.296 60.1282 140.632 58.5922 141.304 57.2962C141.976 56.0002 142.936 55.0002 144.184 54.2962C145.448 53.5762 146.96 53.2162 148.72 53.2162C149.856 53.2162 150.928 53.3922 151.936 53.7442C152.96 54.0962 153.8 54.6002 154.456 55.2562L153.448 57.7042C152.728 57.0962 151.992 56.6562 151.24 56.3842C150.488 56.0962 149.68 55.9522 148.816 55.9522C147.104 55.9522 145.8 56.4722 144.904 57.5122C144.008 58.5362 143.56 60.0002 143.56 61.9042C143.56 63.8082 144.008 65.2802 144.904 66.3202C145.8 67.3602 147.104 67.8802 148.816 67.8802C149.68 67.8802 150.488 67.7442 151.24 67.4722C151.992 67.1842 152.728 66.7362 153.448 66.1282L154.456 68.5762C153.8 69.2162 152.96 69.7202 151.936 70.0882C150.928 70.4402 149.856 70.6162 148.72 70.6162ZM161.837 70.6162C160.621 70.6162 159.565 70.3682 158.669 69.8722C157.773 69.3762 157.077 68.6722 156.581 67.7602C156.085 66.8322 155.837 65.7442 155.837 64.4962C155.837 63.2482 156.085 62.1682 156.581 61.2562C157.077 60.3442 157.773 59.6402 158.669 59.1442C159.565 58.6482 160.621 58.4002 161.837 58.4002C163.053 58.4002 164.109 58.6482 165.005 59.1442C165.901 59.6402 166.597 60.3442 167.093 61.2562C167.589 62.1682 167.837 63.2482 167.837 64.4962C167.837 65.7442 167.589 66.8322 167.093 67.7602C166.597 68.6722 165.901 69.3762 165.005 69.8722C164.109 70.3682 163.053 70.6162 161.837 70.6162ZM161.837 68.3362C162.733 68.3362 163.453 68.0162 163.997 67.3762C164.541 66.7202 164.813 65.7602 164.813 64.4962C164.813 63.2162 164.541 62.2642 163.997 61.6402C163.453 61.0002 162.733 60.6802 161.837 60.6802C160.941 60.6802 160.221 61.0002 159.677 61.6402C159.133 62.2642 158.861 63.2162 158.861 64.4962C158.861 65.7602 159.133 66.7202 159.677 67.3762C160.221 68.0162 160.941 68.3362 161.837 68.3362ZM170.793 70.3762V58.6402H173.721V60.4642C174.121 59.7922 174.657 59.2802 175.329 58.9282C176.017 58.5762 176.785 58.4002 177.633 58.4002C180.401 58.4002 181.785 60.0082 181.785 63.2242V70.3762H178.785V63.3682C178.785 62.4562 178.609 61.7922 178.257 61.3762C177.921 60.9602 177.393 60.7522 176.673 60.7522C175.793 60.7522 175.089 61.0322 174.561 61.5922C174.049 62.1362 173.793 62.8642 173.793 63.7762V70.3762H170.793ZM190.784 74.9362C189.696 74.9362 188.672 74.8082 187.712 74.5522C186.768 74.3122 185.936 73.9362 185.216 73.4242L186.08 71.3362C186.752 71.7842 187.472 72.1122 188.24 72.3202C189.008 72.5442 189.776 72.6562 190.544 72.6562C192.688 72.6562 193.76 71.6242 193.76 69.5602V67.9522C193.424 68.6082 192.904 69.1282 192.2 69.5122C191.512 69.8962 190.744 70.0882 189.896 70.0882C188.84 70.0882 187.92 69.8482 187.136 69.3682C186.352 68.8722 185.744 68.1842 185.312 67.3042C184.88 66.4242 184.664 65.4002 184.664 64.2322C184.664 63.0642 184.88 62.0482 185.312 61.1842C185.744 60.3042 186.352 59.6242 187.136 59.1442C187.92 58.6482 188.84 58.4002 189.896 58.4002C190.776 58.4002 191.56 58.6002 192.248 59.0002C192.936 59.3842 193.44 59.9042 193.76 60.5602V58.6402H196.688V69.2002C196.688 71.1042 196.184 72.5362 195.176 73.4962C194.168 74.4562 192.704 74.9362 190.784 74.9362ZM190.712 67.8082C191.64 67.8082 192.376 67.4882 192.92 66.8482C193.464 66.2082 193.736 65.3362 193.736 64.2322C193.736 63.1282 193.464 62.2642 192.92 61.6402C192.376 61.0002 191.64 60.6802 190.712 60.6802C189.784 60.6802 189.048 61.0002 188.504 61.6402C187.96 62.2642 187.688 63.1282 187.688 64.2322C187.688 65.3362 187.96 66.2082 188.504 66.8482C189.048 67.4882 189.784 67.8082 190.712 67.8082ZM200.277 70.3762V58.6402H203.205V60.7042C203.781 59.3122 205.013 58.5442 206.901 58.4002L207.813 58.3282L208.005 60.8722L206.277 61.0402C204.309 61.2322 203.325 62.2402 203.325 64.0642V70.3762H200.277ZM213.902 70.6162C213.054 70.6162 212.294 70.4562 211.622 70.1362C210.966 69.8002 210.446 69.3522 210.062 68.7922C209.694 68.2322 209.51 67.6002 209.51 66.8962C209.51 66.0322 209.734 65.3522 210.182 64.8562C210.63 64.3442 211.358 63.9762 212.366 63.7522C213.374 63.5282 214.726 63.4162 216.422 63.4162H217.262V62.9122C217.262 62.1122 217.086 61.5362 216.734 61.1842C216.382 60.8322 215.79 60.6562 214.958 60.6562C214.302 60.6562 213.63 60.7602 212.942 60.9682C212.254 61.1602 211.558 61.4642 210.854 61.8802L209.99 59.8402C210.406 59.5522 210.894 59.3042 211.454 59.0962C212.03 58.8722 212.63 58.7042 213.254 58.5922C213.894 58.4642 214.494 58.4002 215.054 58.4002C216.766 58.4002 218.038 58.8002 218.87 59.6002C219.702 60.3842 220.118 61.6082 220.118 63.2722V70.3762H217.31V68.5042C217.038 69.1602 216.606 69.6802 216.014 70.0642C215.422 70.4322 214.718 70.6162 213.902 70.6162ZM214.526 68.5522C215.31 68.5522 215.958 68.2802 216.47 67.7362C216.998 67.1922 217.262 66.5042 217.262 65.6722V65.1442H216.446C214.942 65.1442 213.894 65.2642 213.302 65.5042C212.726 65.7282 212.438 66.1442 212.438 66.7522C212.438 67.2802 212.622 67.7122 212.99 68.0482C213.358 68.3842 213.87 68.5522 214.526 68.5522ZM229.019 70.6162C225.915 70.6162 224.363 69.0802 224.363 66.0082V60.8962H222.107V58.6402H224.363V55.1362H227.363V58.6402H230.915V60.8962H227.363V65.8402C227.363 66.6082 227.531 67.1842 227.867 67.5682C228.203 67.9522 228.747 68.1442 229.499 68.1442C229.723 68.1442 229.955 68.1202 230.195 68.0722C230.435 68.0082 230.683 67.9442 230.939 67.8802L231.395 70.0882C231.107 70.2482 230.739 70.3762 230.291 70.4722C229.859 70.5682 229.435 70.6162 229.019 70.6162ZM237.582 70.6162C234.702 70.6162 233.262 69.0002 233.262 65.7682V58.6402H236.262V65.8162C236.262 66.6482 236.43 67.2642 236.766 67.6642C237.102 68.0642 237.638 68.2642 238.374 68.2642C239.174 68.2642 239.83 67.9922 240.342 67.4482C240.854 66.8882 241.11 66.1522 241.11 65.2402V58.6402H244.11V70.3762H241.182V68.6242C240.398 69.9522 239.198 70.6162 237.582 70.6162ZM251.792 70.6162C250.4 70.6162 249.368 70.2402 248.696 69.4882C248.04 68.7202 247.712 67.6002 247.712 66.1282V53.4562H250.712V65.9842C250.712 67.4242 251.32 68.1442 252.536 68.1442C252.712 68.1442 252.888 68.1362 253.064 68.1202C253.24 68.1042 253.408 68.0722 253.568 68.0242L253.52 70.4002C252.944 70.5442 252.368 70.6162 251.792 70.6162ZM259.721 70.6162C258.873 70.6162 258.113 70.4562 257.441 70.1362C256.785 69.8002 256.265 69.3522 255.881 68.7922C255.513 68.2322 255.329 67.6002 255.329 66.8962C255.329 66.0322 255.553 65.3522 256.001 64.8562C256.449 64.3442 257.177 63.9762 258.185 63.7522C259.193 63.5282 260.545 63.4162 262.241 63.4162H263.081V62.9122C263.081 62.1122 262.905 61.5362 262.553 61.1842C262.201 60.8322 261.609 60.6562 260.777 60.6562C260.121 60.6562 259.449 60.7602 258.761 60.9682C258.073 61.1602 257.377 61.4642 256.673 61.8802L255.809 59.8402C256.225 59.5522 256.713 59.3042 257.273 59.0962C257.849 58.8722 258.449 58.7042 259.073 58.5922C259.713 58.4642 260.313 58.4002 260.873 58.4002C262.585 58.4002 263.857 58.8002 264.689 59.6002C265.521 60.3842 265.937 61.6082 265.937 63.2722V70.3762H263.129V68.5042C262.857 69.1602 262.425 69.6802 261.833 70.0642C261.241 70.4322 260.537 70.6162 259.721 70.6162ZM260.345 68.5522C261.129 68.5522 261.777 68.2802 262.289 67.7362C262.817 67.1922 263.081 66.5042 263.081 65.6722V65.1442H262.265C260.761 65.1442 259.713 65.2642 259.121 65.5042C258.545 65.7282 258.257 66.1442 258.257 66.7522C258.257 67.2802 258.441 67.7122 258.809 68.0482C259.177 68.3842 259.689 68.5522 260.345 68.5522ZM274.838 70.6162C271.734 70.6162 270.182 69.0802 270.182 66.0082V60.8962H267.926V58.6402H270.182V55.1362H273.182V58.6402H276.734V60.8962H273.182V65.8402C273.182 66.6082 273.35 67.1842 273.686 67.5682C274.022 67.9522 274.566 68.1442 275.318 68.1442C275.542 68.1442 275.774 68.1202 276.014 68.0722C276.254 68.0082 276.502 67.9442 276.758 67.8802L277.214 70.0882C276.926 70.2482 276.558 70.3762 276.11 70.4722C275.678 70.5682 275.254 70.6162 274.838 70.6162ZM278.96 56.1202V53.1922H282.32V56.1202H278.96ZM279.152 70.3762V58.6402H282.152V70.3762H279.152ZM145.912 113.616C144.696 113.616 143.64 113.368 142.744 112.872C141.848 112.376 141.152 111.672 140.656 110.76C140.16 109.832 139.912 108.744 139.912 107.496C139.912 106.248 140.16 105.168 140.656 104.256C141.152 103.344 141.848 102.64 142.744 102.144C143.64 101.648 144.696 101.4 145.912 101.4C147.128 101.4 148.184 101.648 149.08 102.144C149.976 102.64 150.672 103.344 151.168 104.256C151.664 105.168 151.912 106.248 151.912 107.496C151.912 108.744 151.664 109.832 151.168 110.76C150.672 111.672 149.976 112.376 149.08 112.872C148.184 113.368 147.128 113.616 145.912 113.616ZM145.912 111.336C146.808 111.336 147.528 111.016 148.072 110.376C148.616 109.72 148.888 108.76 148.888 107.496C148.888 106.216 148.616 105.264 148.072 104.64C147.528 104 146.808 103.68 145.912 103.68C145.016 103.68 144.296 104 143.752 104.64C143.208 105.264 142.936 106.216 142.936 107.496C142.936 108.76 143.208 109.72 143.752 110.376C144.296 111.016 145.016 111.336 145.912 111.336ZM154.868 113.376V101.64H157.796V103.464C158.196 102.792 158.732 102.28 159.404 101.928C160.092 101.576 160.86 101.4 161.708 101.4C164.476 101.4 165.86 103.008 165.86 106.224V113.376H162.86V106.368C162.86 105.456 162.684 104.792 162.332 104.376C161.996 103.96 161.468 103.752 160.748 103.752C159.868 103.752 159.164 104.032 158.636 104.592C158.124 105.136 157.868 105.864 157.868 106.776V113.376H154.868ZM173.683 113.616C172.691 113.616 171.763 113.496 170.899 113.256C170.035 113.016 169.315 112.672 168.739 112.224L169.507 110.256C170.099 110.656 170.763 110.968 171.499 111.192C172.235 111.4 172.971 111.504 173.707 111.504C174.475 111.504 175.043 111.376 175.411 111.12C175.795 110.848 175.987 110.496 175.987 110.064C175.987 109.392 175.491 108.96 174.499 108.768L172.099 108.312C170.067 107.928 169.051 106.872 169.051 105.144C169.051 104.376 169.259 103.712 169.675 103.152C170.107 102.592 170.699 102.16 171.451 101.856C172.203 101.552 173.067 101.4 174.043 101.4C174.875 101.4 175.675 101.52 176.443 101.76C177.211 101.984 177.867 102.328 178.411 102.792L177.595 104.76C177.131 104.376 176.571 104.072 175.915 103.848C175.275 103.624 174.659 103.512 174.067 103.512C173.283 103.512 172.699 103.648 172.315 103.92C171.947 104.192 171.763 104.552 171.763 105C171.763 105.704 172.219 106.136 173.131 106.296L175.531 106.752C176.571 106.944 177.355 107.296 177.883 107.808C178.427 108.32 178.699 109.008 178.699 109.872C178.699 111.04 178.243 111.96 177.331 112.632C176.419 113.288 175.203 113.616 173.683 113.616Z" fill="#595959"/>
<path d="M144.02 102.229V95.649L138.62 88.129H141.02L145.1 93.829L149.18 88.129H151.48L146.08 95.669V102.229H144.02ZM155.568 102.409C154.581 102.409 153.728 102.202 153.008 101.789C152.288 101.376 151.728 100.796 151.328 100.049C150.941 99.289 150.748 98.389 150.748 97.349C150.748 96.309 150.941 95.4157 151.328 94.669C151.728 93.909 152.288 93.3223 153.008 92.909C153.728 92.4957 154.581 92.289 155.568 92.289C156.528 92.289 157.368 92.4957 158.088 92.909C158.808 93.3223 159.368 93.909 159.768 94.669C160.168 95.4157 160.368 96.309 160.368 97.349C160.368 98.389 160.168 99.289 159.768 100.049C159.368 100.796 158.808 101.376 158.088 101.789C157.368 102.202 156.528 102.409 155.568 102.409ZM155.568 100.849C156.394 100.849 157.061 100.549 157.568 99.949C158.074 99.349 158.328 98.4823 158.328 97.349C158.328 96.2157 158.074 95.3557 157.568 94.769C157.061 94.169 156.394 93.869 155.568 93.869C154.728 93.869 154.054 94.169 153.548 94.769C153.041 95.3557 152.788 96.2157 152.788 97.349C152.788 98.4823 153.041 99.349 153.548 99.949C154.054 100.549 154.728 100.849 155.568 100.849ZM166.516 102.409C164.156 102.409 162.976 101.096 162.976 98.469V92.469H164.996V98.489C164.996 99.2757 165.156 99.8557 165.476 100.229C165.796 100.602 166.303 100.789 166.996 100.789C167.756 100.789 168.37 100.536 168.836 100.029C169.316 99.5223 169.556 98.8423 169.556 97.989V92.469H171.576V102.229H169.616V100.669C169.296 101.242 168.87 101.676 168.336 101.969C167.803 102.262 167.196 102.409 166.516 102.409ZM174.823 102.229V92.469H176.783V94.209C177.29 93.049 178.343 92.4023 179.943 92.269L180.603 92.229L180.743 93.949L179.523 94.069C177.75 94.2423 176.863 95.1557 176.863 96.809V102.229H174.823ZM191.458 102.409C190.778 102.409 190.171 102.276 189.638 102.009C189.105 101.742 188.678 101.382 188.358 100.929C188.051 100.476 187.898 99.9623 187.898 99.389C187.898 98.669 188.078 98.1023 188.438 97.689C188.811 97.2757 189.418 96.9757 190.258 96.789C191.111 96.6023 192.258 96.509 193.698 96.509H194.378V95.989C194.378 95.229 194.218 94.6823 193.898 94.349C193.578 94.0157 193.051 93.849 192.318 93.849C191.758 93.849 191.198 93.9357 190.638 94.109C190.078 94.269 189.505 94.529 188.918 94.889L188.298 93.469C188.805 93.109 189.438 92.8223 190.198 92.609C190.958 92.3957 191.685 92.289 192.378 92.289C193.711 92.289 194.698 92.609 195.338 93.249C195.978 93.8757 196.298 94.8623 196.298 96.209V102.229H194.398V100.609C194.158 101.169 193.785 101.609 193.278 101.929C192.771 102.249 192.165 102.409 191.458 102.409ZM191.858 100.969C192.578 100.969 193.178 100.716 193.658 100.209C194.138 99.7023 194.378 99.0623 194.378 98.289V97.749H193.718C192.745 97.749 191.978 97.7957 191.418 97.889C190.871 97.9823 190.478 98.1423 190.238 98.369C190.011 98.5823 189.898 98.8823 189.898 99.269C189.898 99.7757 190.071 100.189 190.418 100.509C190.765 100.816 191.245 100.969 191.858 100.969ZM203.2 102.409C202.347 102.409 201.593 102.209 200.94 101.809C200.3 101.396 199.8 100.809 199.44 100.049C199.08 99.289 198.9 98.389 198.9 97.349C198.9 96.309 199.08 95.4157 199.44 94.669C199.8 93.909 200.3 93.3223 200.94 92.909C201.58 92.4957 202.333 92.289 203.2 92.289C203.933 92.289 204.587 92.449 205.16 92.769C205.733 93.089 206.16 93.5223 206.44 94.069V88.129H208.46V102.229H206.48V100.529C206.2 101.116 205.767 101.576 205.18 101.909C204.607 102.242 203.947 102.409 203.2 102.409ZM203.72 100.849C204.547 100.849 205.213 100.549 205.72 99.949C206.227 99.349 206.48 98.4823 206.48 97.349C206.48 96.2157 206.227 95.3557 205.72 94.769C205.213 94.169 204.547 93.869 203.72 93.869C202.88 93.869 202.207 94.169 201.7 94.769C201.193 95.3557 200.94 96.2157 200.94 97.349C200.94 98.4823 201.193 99.349 201.7 99.949C202.207 100.549 202.88 100.849 203.72 100.849ZM211.737 102.229V92.469H213.697V94.049C213.99 93.489 214.397 93.0557 214.917 92.749C215.437 92.4423 216.043 92.289 216.737 92.289C218.23 92.289 219.197 92.9423 219.637 94.249C219.943 93.6357 220.383 93.1557 220.957 92.809C221.53 92.4623 222.183 92.289 222.917 92.289C225.103 92.289 226.197 93.5957 226.197 96.209V102.229H224.177V96.309C224.177 95.4823 224.03 94.8757 223.737 94.489C223.457 94.1023 222.99 93.909 222.337 93.909C221.603 93.909 221.023 94.169 220.597 94.689C220.17 95.1957 219.957 95.889 219.957 96.769V102.229H217.937V96.309C217.937 95.4823 217.797 94.8757 217.517 94.489C217.237 94.1023 216.77 93.909 216.117 93.909C215.383 93.909 214.803 94.169 214.377 94.689C213.963 95.1957 213.757 95.889 213.757 96.769V102.229H211.737ZM229.241 90.209V88.109H231.601V90.209H229.241ZM229.421 102.229V92.469H231.441V102.229H229.421ZM238.104 102.409C237.304 102.409 236.557 102.309 235.864 102.109C235.171 101.896 234.591 101.602 234.124 101.229L234.704 99.869C235.197 100.216 235.737 100.482 236.324 100.669C236.924 100.856 237.524 100.949 238.124 100.949C238.831 100.949 239.364 100.822 239.724 100.569C240.084 100.316 240.264 99.9757 240.264 99.549C240.264 99.2023 240.144 98.9357 239.904 98.749C239.664 98.549 239.304 98.3957 238.824 98.289L236.924 97.909C235.244 97.5623 234.404 96.6957 234.404 95.309C234.404 94.389 234.771 93.6557 235.504 93.109C236.237 92.5623 237.197 92.289 238.384 92.289C239.064 92.289 239.711 92.389 240.324 92.589C240.951 92.789 241.471 93.089 241.884 93.489L241.304 94.849C240.904 94.5023 240.444 94.2357 239.924 94.049C239.404 93.8623 238.891 93.769 238.384 93.769C237.691 93.769 237.164 93.9023 236.804 94.169C236.444 94.4223 236.264 94.769 236.264 95.209C236.264 95.8757 236.704 96.3023 237.584 96.489L239.484 96.869C240.351 97.0423 241.004 97.3357 241.444 97.749C241.897 98.1623 242.124 98.7223 242.124 99.429C242.124 100.362 241.757 101.096 241.024 101.629C240.291 102.149 239.317 102.409 238.104 102.409ZM248.192 102.409C247.392 102.409 246.645 102.309 245.952 102.109C245.258 101.896 244.678 101.602 244.212 101.229L244.792 99.869C245.285 100.216 245.825 100.482 246.412 100.669C247.012 100.856 247.612 100.949 248.212 100.949C248.918 100.949 249.452 100.822 249.812 100.569C250.172 100.316 250.352 99.9757 250.352 99.549C250.352 99.2023 250.232 98.9357 249.992 98.749C249.752 98.549 249.392 98.3957 248.912 98.289L247.012 97.909C245.332 97.5623 244.492 96.6957 244.492 95.309C244.492 94.389 244.858 93.6557 245.592 93.109C246.325 92.5623 247.285 92.289 248.472 92.289C249.152 92.289 249.798 92.389 250.412 92.589C251.038 92.789 251.558 93.089 251.972 93.489L251.392 94.849C250.992 94.5023 250.532 94.2357 250.012 94.049C249.492 93.8623 248.978 93.769 248.472 93.769C247.778 93.769 247.252 93.9023 246.892 94.169C246.532 94.4223 246.352 94.769 246.352 95.209C246.352 95.8757 246.792 96.3023 247.672 96.489L249.572 96.869C250.438 97.0423 251.092 97.3357 251.532 97.749C251.985 98.1623 252.212 98.7223 252.212 99.429C252.212 100.362 251.845 101.096 251.112 101.629C250.378 102.149 249.405 102.409 248.192 102.409ZM254.679 90.209V88.109H257.039V90.209H254.679ZM254.859 102.229V92.469H256.879V102.229H254.859ZM264.362 102.409C263.376 102.409 262.522 102.202 261.802 101.789C261.082 101.376 260.522 100.796 260.122 100.049C259.736 99.289 259.542 98.389 259.542 97.349C259.542 96.309 259.736 95.4157 260.122 94.669C260.522 93.909 261.082 93.3223 261.802 92.909C262.522 92.4957 263.376 92.289 264.362 92.289C265.322 92.289 266.162 92.4957 266.882 92.909C267.602 93.3223 268.162 93.909 268.562 94.669C268.962 95.4157 269.162 96.309 269.162 97.349C269.162 98.389 268.962 99.289 268.562 100.049C268.162 100.796 267.602 101.376 266.882 101.789C266.162 102.202 265.322 102.409 264.362 102.409ZM264.362 100.849C265.189 100.849 265.856 100.549 266.362 99.949C266.869 99.349 267.122 98.4823 267.122 97.349C267.122 96.2157 266.869 95.3557 266.362 94.769C265.856 94.169 265.189 93.869 264.362 93.869C263.522 93.869 262.849 94.169 262.342 94.769C261.836 95.3557 261.582 96.2157 261.582 97.349C261.582 98.4823 261.836 99.349 262.342 99.949C262.849 100.549 263.522 100.849 264.362 100.849ZM271.831 102.229V92.469H273.791V94.089C274.124 93.5023 274.578 93.0557 275.151 92.749C275.738 92.4423 276.391 92.289 277.111 92.289C279.418 92.289 280.571 93.5957 280.571 96.209V102.229H278.551V96.329C278.551 95.489 278.384 94.8757 278.051 94.489C277.731 94.1023 277.224 93.909 276.531 93.909C275.718 93.909 275.064 94.169 274.571 94.689C274.091 95.1957 273.851 95.869 273.851 96.709V102.229H271.831ZM293.708 102.409C292.708 102.409 291.842 102.202 291.108 101.789C290.388 101.362 289.828 100.769 289.428 100.009C289.028 99.2357 288.828 98.329 288.828 97.289C288.828 95.7423 289.268 94.5223 290.148 93.629C291.028 92.7357 292.215 92.289 293.708 92.289C294.322 92.289 294.928 92.3957 295.528 92.609C296.128 92.8223 296.622 93.1157 297.008 93.489L296.368 94.909C295.995 94.5623 295.582 94.309 295.128 94.149C294.688 93.9757 294.268 93.889 293.868 93.889C292.922 93.889 292.188 94.189 291.668 94.789C291.162 95.3757 290.908 96.2157 290.908 97.309C290.908 98.4023 291.162 99.2623 291.668 99.889C292.188 100.502 292.922 100.809 293.868 100.809C294.268 100.809 294.688 100.729 295.128 100.569C295.582 100.396 295.995 100.136 296.368 99.789L297.008 101.229C296.622 101.589 296.122 101.876 295.508 102.089C294.908 102.302 294.308 102.409 293.708 102.409ZM303.189 102.409C302.202 102.409 301.349 102.202 300.629 101.789C299.909 101.376 299.349 100.796 298.949 100.049C298.562 99.289 298.369 98.389 298.369 97.349C298.369 96.309 298.562 95.4157 298.949 94.669C299.349 93.909 299.909 93.3223 300.629 92.909C301.349 92.4957 302.202 92.289 303.189 92.289C304.149 92.289 304.989 92.4957 305.709 92.909C306.429 93.3223 306.989 93.909 307.389 94.669C307.789 95.4157 307.989 96.309 307.989 97.349C307.989 98.389 307.789 99.289 307.389 100.049C306.989 100.796 306.429 101.376 305.709 101.789C304.989 102.202 304.149 102.409 303.189 102.409ZM303.189 100.849C304.016 100.849 304.682 100.549 305.189 99.949C305.696 99.349 305.949 98.4823 305.949 97.349C305.949 96.2157 305.696 95.3557 305.189 94.769C304.682 94.169 304.016 93.869 303.189 93.869C302.349 93.869 301.676 94.169 301.169 94.769C300.662 95.3557 300.409 96.2157 300.409 97.349C300.409 98.4823 300.662 99.349 301.169 99.949C301.676 100.549 302.349 100.849 303.189 100.849ZM310.698 102.229V92.469H312.658V94.049C312.951 93.489 313.358 93.0557 313.878 92.749C314.398 92.4423 315.004 92.289 315.698 92.289C317.191 92.289 318.158 92.9423 318.598 94.249C318.904 93.6357 319.344 93.1557 319.918 92.809C320.491 92.4623 321.144 92.289 321.878 92.289C324.064 92.289 325.158 93.5957 325.158 96.209V102.229H323.138V96.309C323.138 95.4823 322.991 94.8757 322.698 94.489C322.418 94.1023 321.951 93.909 321.298 93.909C320.564 93.909 319.984 94.169 319.558 94.689C319.131 95.1957 318.918 95.889 318.918 96.769V102.229H316.898V96.309C316.898 95.4823 316.758 94.8757 316.478 94.489C316.198 94.1023 315.731 93.909 315.078 93.909C314.344 93.909 313.764 94.169 313.338 94.689C312.924 95.1957 312.718 95.889 312.718 96.769V102.229H310.698ZM328.382 105.829V92.469H330.362V94.129C330.642 93.569 331.068 93.1223 331.642 92.789C332.215 92.4557 332.875 92.289 333.622 92.289C334.488 92.289 335.242 92.4957 335.882 92.909C336.535 93.3223 337.035 93.909 337.382 94.669C337.742 95.4157 337.922 96.309 337.922 97.349C337.922 98.389 337.742 99.289 337.382 100.049C337.035 100.809 336.535 101.396 335.882 101.809C335.242 102.209 334.488 102.409 333.622 102.409C332.902 102.409 332.255 102.256 331.682 101.949C331.122 101.629 330.695 101.196 330.402 100.649V105.829H328.382ZM333.122 100.849C333.962 100.849 334.628 100.549 335.122 99.949C335.628 99.349 335.882 98.4823 335.882 97.349C335.882 96.2157 335.628 95.3557 335.122 94.769C334.628 94.169 333.962 93.869 333.122 93.869C332.282 93.869 331.608 94.169 331.102 94.769C330.608 95.3557 330.362 96.2157 330.362 97.349C330.362 98.4823 330.608 99.349 331.102 99.949C331.608 100.549 332.282 100.849 333.122 100.849ZM343.778 102.409C342.711 102.409 341.911 102.109 341.378 101.509C340.858 100.909 340.598 100.029 340.598 98.869V88.129H342.618V98.749C342.618 100.069 343.158 100.729 344.238 100.729C344.398 100.729 344.545 100.722 344.678 100.709C344.825 100.696 344.971 100.669 345.118 100.629L345.078 102.249C344.625 102.356 344.191 102.409 343.778 102.409ZM351.594 102.409C349.994 102.409 348.734 101.962 347.814 101.069C346.894 100.162 346.434 98.929 346.434 97.369C346.434 96.369 346.634 95.489 347.034 94.729C347.447 93.9557 348.014 93.3557 348.734 92.929C349.454 92.5023 350.28 92.289 351.214 92.289C352.56 92.289 353.62 92.7223 354.394 93.589C355.167 94.4423 355.554 95.6223 355.554 97.129V97.809H348.394C348.54 99.8357 349.614 100.849 351.614 100.849C352.174 100.849 352.72 100.762 353.254 100.589C353.8 100.416 354.314 100.129 354.794 99.729L355.394 101.129C354.954 101.529 354.387 101.842 353.694 102.069C353 102.296 352.3 102.409 351.594 102.409ZM351.294 93.709C350.454 93.709 349.787 93.969 349.294 94.489C348.8 95.009 348.5 95.7023 348.394 96.569H353.854C353.814 95.6623 353.574 94.9623 353.134 94.469C352.694 93.9623 352.08 93.709 351.294 93.709ZM362.296 102.409C361.07 102.409 360.156 102.096 359.556 101.469C358.956 100.842 358.656 99.9357 358.656 98.749V94.029H356.756V92.469H358.656V89.529H360.676V92.469H363.696V94.029H360.676V98.589C360.676 99.2957 360.823 99.829 361.116 100.189C361.423 100.549 361.916 100.729 362.596 100.729C362.81 100.729 363.016 100.709 363.216 100.669C363.416 100.616 363.616 100.556 363.816 100.489L364.136 102.009C363.936 102.129 363.656 102.222 363.296 102.289C362.95 102.369 362.616 102.409 362.296 102.409ZM370.323 102.409C368.723 102.409 367.463 101.962 366.543 101.069C365.623 100.162 365.163 98.929 365.163 97.369C365.163 96.369 365.363 95.489 365.763 94.729C366.177 93.9557 366.743 93.3557 367.463 92.929C368.183 92.5023 369.01 92.289 369.943 92.289C371.29 92.289 372.35 92.7223 373.123 93.589C373.897 94.4423 374.283 95.6223 374.283 97.129V97.809H367.123C367.27 99.8357 368.343 100.849 370.343 100.849C370.903 100.849 371.45 100.762 371.983 100.589C372.53 100.416 373.043 100.129 373.523 99.729L374.123 101.129C373.683 101.529 373.117 101.842 372.423 102.069C371.73 102.296 371.03 102.409 370.323 102.409ZM370.023 93.709C369.183 93.709 368.517 93.969 368.023 94.489C367.53 95.009 367.23 95.7023 367.123 96.569H372.583C372.543 95.6623 372.303 94.9623 371.863 94.469C371.423 93.9623 370.81 93.709 370.023 93.709ZM380.606 102.409C379.752 102.409 378.999 102.209 378.346 101.809C377.706 101.396 377.206 100.809 376.846 100.049C376.486 99.289 376.306 98.389 376.306 97.349C376.306 96.309 376.486 95.4157 376.846 94.669C377.206 93.909 377.706 93.3223 378.346 92.909C378.986 92.4957 379.739 92.289 380.606 92.289C381.339 92.289 381.992 92.449 382.566 92.769C383.139 93.089 383.566 93.5223 383.846 94.069V88.129H385.866V102.229H383.886V100.529C383.606 101.116 383.172 101.576 382.586 101.909C382.012 102.242 381.352 102.409 380.606 102.409ZM381.126 100.849C381.952 100.849 382.619 100.549 383.126 99.949C383.632 99.349 383.886 98.4823 383.886 97.349C383.886 96.2157 383.632 95.3557 383.126 94.769C382.619 94.169 381.952 93.869 381.126 93.869C380.286 93.869 379.612 94.169 379.106 94.769C378.599 95.3557 378.346 96.2157 378.346 97.349C378.346 98.4823 378.599 99.349 379.106 99.949C379.612 100.549 380.286 100.849 381.126 100.849Z" fill="#545567"/>
<rect x="65" y="51.9211" width="50" height="52.7248" rx="8" fill="#7F56D9"/>
<path d="M103.929 66.9854H76.0723L90.0008 79.0834L104.087 67.0192C104.035 67.0034 103.983 66.992 103.929 66.9854Z" fill="white"/>
<path d="M90.676 81.4199C90.2813 81.7607 89.7133 81.7607 89.3186 81.4199L75 68.9806V88.4519C75 89.0759 75.4797 89.5817 76.0714 89.5817H103.929C104.52 89.5817 105 89.0759 105 88.4519V69.1478L90.676 81.4199Z" fill="white"/>
</g>
<defs>
<filter id="filter0_d_74_402" x="0.75" y="0.396255" width="446.5" height="192.495" filterUnits="userSpaceOnUse" color-interpolation-filters="sRGB">
<feFlood flood-opacity="0" result="BackgroundImageFix"/>
<feColorMatrix in="SourceAlpha" type="matrix" values="0 0 0 0 0 0 0 0 0 0 0 0 0 0 0 0 0 0 127 0" result="hardAlpha"/>
<feOffset dy="18.36"/>
<feGaussianBlur stdDeviation="19.125"/>
<feComposite in2="hardAlpha" operator="out"/>
<feColorMatrix type="matrix" values="0 0 0 0 0.6375 0 0 0 0 0.6375 0 0 0 0 0.6375 0 0 0 0.15 0"/>
<feBlend mode="normal" in2="BackgroundImageFix" result="effect1_dropShadow_74_402"/>
<feBlend mode="normal" in="SourceGraphic" in2="effect1_dropShadow_74_402" result="shape"/>
</filter>
<filter id="filter1_b_74_402" x="19" y="0.286255" width="410" height="155.995" filterUnits="userSpaceOnUse" color-interpolation-filters="sRGB">
<feFlood flood-opacity="0" result="BackgroundImageFix"/>
<feGaussianBlur in="BackgroundImageFix" stdDeviation="10"/>
<feComposite in2="SourceAlpha" operator="in" result="effect1_backgroundBlur_74_402"/>
<feBlend mode="normal" in="SourceGraphic" in2="effect1_backgroundBlur_74_402" result="shape"/>
</filter>
</defs>
</svg>
