<svg width="292" height="168" viewBox="0 0 292 168" fill="none" xmlns="http://www.w3.org/2000/svg">
<g filter="url(#filter0_d_74_415)">
<rect x="39" y="19.9729" width="214.16" height="90.84" rx="18.36" fill="#F5F5F4" fill-opacity="0.8" shape-rendering="crispEdges"/>
<g filter="url(#filter1_d_74_415)">
<rect x="57.3594" y="40.9129" width="48.96" height="48.96" rx="12.24" fill="#7F56D9"/>
<path d="M84.6992 75.323H78.3992L77.6492 73.298H66.3242V54.023C66.3242 53.123 67.0742 52.373 67.9742 52.373H96.0242C96.9242 52.373 97.6742 53.123 97.6742 54.023V73.373H86.1992L84.6992 75.323ZM79.2242 74.198H84.1742L85.6742 72.173H96.5492V54.023C96.5492 53.723 96.3242 53.498 96.0242 53.498H67.9742C67.6742 53.498 67.4492 53.723 67.4492 54.023V72.248H78.4742L79.2242 74.198Z" fill="white"/>
<path d="M94.6004 77.5729H69.4004C66.7004 77.5729 64.5254 75.3979 64.5254 72.6979V72.0979H78.4004L79.1504 74.1229H84.1004L85.6004 72.0979H99.4004V72.6979C99.4754 75.3979 97.2254 77.5729 94.6004 77.5729ZM65.7254 73.2979C66.0254 75.0979 67.5254 76.4479 69.4004 76.4479H94.5254C96.4004 76.4479 97.9754 75.0979 98.2004 73.2979H86.2004L84.7004 75.3229H78.4004L77.6504 73.2979H65.7254Z" fill="white"/>
<path d="M76.525 56.3479H70.75V61.3729H76.525V56.3479Z" fill="white"/>
<path d="M77.0504 61.898H70.1504V55.748H77.0504V61.898ZM71.2754 60.773H75.9254V56.873H71.2754V60.773Z" fill="white"/>
<path d="M76.525 64.2979H70.75V69.3229H76.525V64.2979Z" fill="white"/>
<path d="M77.0504 69.9229H70.1504V63.7729H77.0504V69.9229ZM71.2754 68.7979H75.9254V64.8979H71.2754V68.7979Z" fill="white"/>
<path d="M93.55 58.2229H80.125V59.3479H93.55V58.2229Z" fill="white"/>
<path d="M93.55 66.248H80.125V67.373H93.55V66.248Z" fill="white"/>
</g>
<path d="M132.275 62.3329V59.563L138.746 53.5705C139.297 53.0378 139.759 52.5584 140.131 52.1322C140.51 51.7061 140.797 51.2889 140.993 50.8805C141.188 50.4662 141.286 50.0193 141.286 49.5399C141.286 49.0072 141.164 48.5486 140.922 48.1639C140.679 47.7732 140.347 47.4743 139.927 47.2672C139.507 47.0541 139.031 46.9476 138.498 46.9476C137.942 46.9476 137.456 47.06 137.042 47.2849C136.628 47.5099 136.308 47.8324 136.083 48.2526C135.858 48.6728 135.746 49.173 135.746 49.753H132.097C132.097 48.5634 132.366 47.5306 132.905 46.6546C133.443 45.7787 134.198 45.101 135.169 44.6216C136.139 44.1422 137.258 43.9025 138.525 43.9025C139.827 43.9025 140.96 44.1333 141.925 44.595C142.895 45.0507 143.65 45.684 144.189 46.4948C144.727 47.3057 144.996 48.2349 144.996 49.2825C144.996 49.969 144.86 50.6467 144.588 51.3155C144.322 51.9843 143.845 52.7271 143.159 53.5438C142.472 54.3547 141.504 55.3283 140.256 56.4646L137.601 59.0658V59.1901H145.236V62.3329H132.275ZM148.128 62.3329V44.1511H151.972V52.1678H152.212L158.755 44.1511H163.362L156.615 52.292L163.442 62.3329H158.844L153.863 54.8577L151.972 57.166V62.3329H148.128ZM169.593 59.563V46.992H172.771V59.563H169.593ZM164.896 54.8666V51.6884H177.467V54.8666H164.896Z" fill="#101828"/>
<path opacity="0.5" d="M132.569 77.5438L135.808 86.727H135.936L139.174 77.5438H140.559L136.554 88.4529H135.19L131.184 77.5438H132.569ZM142.088 88.4529V80.2711H143.345V88.4529H142.088ZM142.727 78.9074C142.482 78.9074 142.271 78.824 142.093 78.6571C141.919 78.4902 141.832 78.2895 141.832 78.0552C141.832 77.8208 141.919 77.6201 142.093 77.4532C142.271 77.2863 142.482 77.2029 142.727 77.2029C142.972 77.2029 143.182 77.2863 143.356 77.4532C143.533 77.6201 143.622 77.8208 143.622 78.0552C143.622 78.2895 143.533 78.4902 143.356 78.6571C143.182 78.824 142.972 78.9074 142.727 78.9074ZM148.737 88.6233C148.055 88.6233 147.453 88.4511 146.931 88.1066C146.409 87.7586 146.001 87.2686 145.706 86.6365C145.411 86.0008 145.264 85.2498 145.264 84.3833C145.264 83.5239 145.411 82.7782 145.706 82.1461C146.001 81.514 146.411 81.0257 146.937 80.6812C147.462 80.3368 148.07 80.1645 148.758 80.1645C149.291 80.1645 149.712 80.2533 150.021 80.4309C150.333 80.6049 150.571 80.8037 150.735 81.0275C150.902 81.2476 151.031 81.4287 151.123 81.5708H151.23V77.5438H152.487V88.4529H151.273V87.1958H151.123C151.031 87.3449 150.9 87.5331 150.729 87.7604C150.559 87.9841 150.316 88.1848 150 88.3623C149.684 88.5363 149.263 88.6233 148.737 88.6233ZM148.908 87.4941C149.412 87.4941 149.838 87.3627 150.186 87.0999C150.534 86.8336 150.799 86.466 150.98 85.9973C151.161 85.525 151.251 84.9799 151.251 84.362C151.251 83.7512 151.163 83.2167 150.985 82.7586C150.807 82.297 150.545 81.9383 150.197 81.6826C149.849 81.4234 149.419 81.2938 148.908 81.2938C148.375 81.2938 147.931 81.4305 147.576 81.7039C147.224 81.9738 146.96 82.3414 146.782 82.8066C146.608 83.2682 146.521 83.7867 146.521 84.362C146.521 84.9444 146.61 85.4735 146.788 85.9493C146.969 86.4216 147.235 86.7981 147.587 87.0786C147.942 87.3556 148.382 87.4941 148.908 87.4941ZM158.394 88.6233C157.606 88.6233 156.926 88.4493 156.354 88.1013C155.786 87.7498 155.348 87.2597 155.039 86.6311C154.733 85.999 154.581 85.264 154.581 84.4259C154.581 83.5878 154.733 82.8492 155.039 82.21C155.348 81.5672 155.777 81.0665 156.328 80.7079C156.882 80.3456 157.528 80.1645 158.267 80.1645C158.693 80.1645 159.114 80.2356 159.529 80.3776C159.945 80.5196 160.323 80.7505 160.664 81.0701C161.005 81.3861 161.276 81.8052 161.479 82.3272C161.681 82.8492 161.782 83.4919 161.782 84.2554V84.7881H155.475V83.7015H160.504C160.504 83.2398 160.411 82.8279 160.227 82.4657C160.046 82.1034 159.786 81.8176 159.449 81.6081C159.115 81.3985 158.721 81.2938 158.267 81.2938C157.766 81.2938 157.333 81.4181 156.967 81.6667C156.605 81.9117 156.326 82.2313 156.131 82.6255C155.935 83.0196 155.838 83.4422 155.838 83.8932V84.6177C155.838 85.2356 155.944 85.7593 156.157 86.189C156.374 86.6152 156.674 86.9401 157.057 87.1638C157.441 87.384 157.887 87.4941 158.394 87.4941C158.725 87.4941 159.023 87.4479 159.289 87.3556C159.559 87.2597 159.792 87.1177 159.987 86.9294C160.182 86.7377 160.333 86.4998 160.44 86.2157L161.654 86.5566C161.527 86.9685 161.312 87.3307 161.01 87.6432C160.708 87.9522 160.335 88.1936 159.891 88.3677C159.447 88.5381 158.948 88.6233 158.394 88.6233ZM167.018 88.6233C166.28 88.6233 165.632 88.4476 165.074 88.096C164.52 87.7444 164.087 87.2526 163.774 86.6205C163.465 85.9884 163.311 85.2498 163.311 84.4046C163.311 83.5523 163.465 82.8083 163.774 82.1727C164.087 81.537 164.52 81.0434 165.074 80.6919C165.632 80.3403 166.28 80.1645 167.018 80.1645C167.757 80.1645 168.403 80.3403 168.957 80.6919C169.515 81.0434 169.948 81.537 170.257 82.1727C170.57 82.8083 170.726 83.5523 170.726 84.4046C170.726 85.2498 170.57 85.9884 170.257 86.6205C169.948 87.2526 169.515 87.7444 168.957 88.096C168.403 88.4476 167.757 88.6233 167.018 88.6233ZM167.018 87.4941C167.579 87.4941 168.041 87.3503 168.403 87.0626C168.766 86.775 169.034 86.3968 169.208 85.928C169.382 85.4593 169.469 84.9515 169.469 84.4046C169.469 83.8577 169.382 83.3481 169.208 82.8758C169.034 82.4035 168.766 82.0218 168.403 81.7306C168.041 81.4394 167.579 81.2938 167.018 81.2938C166.457 81.2938 165.996 81.4394 165.633 81.7306C165.271 82.0218 165.003 82.4035 164.829 82.8758C164.655 83.3481 164.568 83.8577 164.568 84.4046C164.568 84.9515 164.655 85.4593 164.829 85.928C165.003 86.3968 165.271 86.775 165.633 87.0626C165.996 87.3503 166.457 87.4941 167.018 87.4941ZM185.812 80.9529H184.491C184.413 80.5729 184.276 80.2391 184.081 79.9515C183.889 79.6638 183.655 79.4223 183.378 79.227C183.105 79.0282 182.801 78.879 182.467 78.7796C182.133 78.6802 181.785 78.6304 181.423 78.6304C180.763 78.6304 180.164 78.7973 179.628 79.1311C179.095 79.465 178.671 79.9568 178.355 80.6066C178.042 81.2565 177.886 82.0537 177.886 82.9983C177.886 83.9429 178.042 84.7402 178.355 85.39C178.671 86.0399 179.095 86.5317 179.628 86.8655C180.164 87.1993 180.763 87.3662 181.423 87.3662C181.785 87.3662 182.133 87.3165 182.467 87.2171C182.801 87.1177 183.105 86.9703 183.378 86.775C183.655 86.5761 183.889 86.3329 184.081 86.0452C184.276 85.754 184.413 85.4202 184.491 85.0438H185.812C185.713 85.6013 185.532 86.1003 185.269 86.5406C185.006 86.9809 184.68 87.3556 184.289 87.6645C183.898 87.9699 183.46 88.2025 182.973 88.3623C182.49 88.5221 181.974 88.602 181.423 88.602C180.493 88.602 179.665 88.3748 178.941 87.9202C178.216 87.4657 177.646 86.8194 177.231 85.9813C176.816 85.1432 176.608 84.1489 176.608 82.9983C176.608 81.8478 176.816 80.8534 177.231 80.0154C177.646 79.1773 178.216 78.531 178.941 78.0765C179.665 77.6219 180.493 77.3946 181.423 77.3946C181.974 77.3946 182.49 77.4745 182.973 77.6343C183.46 77.7941 183.898 78.0285 184.289 78.3375C184.68 78.6429 185.006 79.0157 185.269 79.4561C185.532 79.8929 185.713 80.3918 185.812 80.9529ZM191.1 88.6233C190.362 88.6233 189.714 88.4476 189.156 88.096C188.602 87.7444 188.169 87.2526 187.856 86.6205C187.547 85.9884 187.393 85.2498 187.393 84.4046C187.393 83.5523 187.547 82.8083 187.856 82.1727C188.169 81.537 188.602 81.0434 189.156 80.6919C189.714 80.3403 190.362 80.1645 191.1 80.1645C191.839 80.1645 192.485 80.3403 193.039 80.6919C193.597 81.0434 194.03 81.537 194.339 82.1727C194.652 82.8083 194.808 83.5523 194.808 84.4046C194.808 85.2498 194.652 85.9884 194.339 86.6205C194.03 87.2526 193.597 87.7444 193.039 88.096C192.485 88.4476 191.839 88.6233 191.1 88.6233ZM191.1 87.4941C191.661 87.4941 192.123 87.3503 192.485 87.0626C192.848 86.775 193.116 86.3968 193.29 85.928C193.464 85.4593 193.551 84.9515 193.551 84.4046C193.551 83.8577 193.464 83.3481 193.29 82.8758C193.116 82.4035 192.848 82.0218 192.485 81.7306C192.123 81.4394 191.661 81.2938 191.1 81.2938C190.539 81.2938 190.078 81.4394 189.715 81.7306C189.353 82.0218 189.085 82.4035 188.911 82.8758C188.737 83.3481 188.65 83.8577 188.65 84.4046C188.65 84.9515 188.737 85.4593 188.911 85.928C189.085 86.3968 189.353 86.775 189.715 87.0626C190.078 87.3503 190.539 87.4941 191.1 87.4941ZM201.883 85.1077V80.2711H203.14V88.4529H201.883V87.0679H201.798C201.606 87.4834 201.308 87.8368 200.903 88.128C200.498 88.4156 199.987 88.5594 199.369 88.5594C198.857 88.5594 198.403 88.4476 198.005 88.2238C197.607 87.9966 197.295 87.6557 197.068 87.2011C196.84 86.743 196.727 86.1659 196.727 85.4699V80.2711H197.984V85.3847C197.984 85.9813 198.151 86.4571 198.485 86.8123C198.822 87.1674 199.252 87.3449 199.774 87.3449C200.086 87.3449 200.404 87.265 200.727 87.1052C201.054 86.9454 201.327 86.7004 201.547 86.3701C201.771 86.0399 201.883 85.6191 201.883 85.1077ZM205.443 88.4529V80.2711H206.657V81.5069H206.742C206.891 81.102 207.161 80.7735 207.552 80.5214C207.943 80.2693 208.383 80.1432 208.873 80.1432C208.965 80.1432 209.081 80.145 209.219 80.1485C209.358 80.1521 209.462 80.1574 209.533 80.1645V81.4429C209.491 81.4323 209.393 81.4163 209.241 81.395C209.091 81.3701 208.933 81.3577 208.766 81.3577C208.369 81.3577 208.014 81.4412 207.701 81.6081C207.392 81.7714 207.147 81.9987 206.966 82.2899C206.788 82.5775 206.7 82.906 206.7 83.2753V88.4529H205.443ZM216.819 82.1034L215.69 82.4231C215.619 82.2348 215.514 82.052 215.376 81.8744C215.241 81.6933 215.056 81.5441 214.822 81.427C214.587 81.3098 214.287 81.2512 213.921 81.2512C213.421 81.2512 213.003 81.3666 212.67 81.5974C212.339 81.8247 212.174 82.1141 212.174 82.4657C212.174 82.7782 212.288 83.025 212.515 83.2061C212.742 83.3872 213.097 83.5381 213.58 83.6588L214.795 83.9571C215.526 84.1347 216.072 84.4064 216.43 84.7721C216.789 85.1343 216.968 85.6013 216.968 86.1731C216.968 86.6418 216.833 87.0608 216.563 87.4302C216.297 87.7995 215.924 88.0907 215.445 88.3037C214.965 88.5168 214.408 88.6233 213.772 88.6233C212.938 88.6233 212.247 88.4422 211.7 88.08C211.153 87.7178 210.807 87.1887 210.661 86.4927L211.855 86.1944C211.968 86.6347 212.183 86.965 212.499 87.1851C212.819 87.4053 213.236 87.5154 213.751 87.5154C214.337 87.5154 214.802 87.3911 215.146 87.1425C215.494 86.8904 215.669 86.5885 215.669 86.237C215.669 85.9529 215.569 85.715 215.37 85.5232C215.171 85.3279 214.866 85.1823 214.454 85.0864L213.09 84.7668C212.341 84.5892 211.791 84.314 211.439 83.9412C211.091 83.5647 210.917 83.0942 210.917 82.5296C210.917 82.0679 211.047 81.6596 211.306 81.3044C211.569 80.9493 211.926 80.6706 212.377 80.4682C212.831 80.2657 213.346 80.1645 213.921 80.1645C214.731 80.1645 215.367 80.3421 215.828 80.6972C216.294 81.0523 216.624 81.5211 216.819 82.1034ZM222.291 88.6233C221.503 88.6233 220.823 88.4493 220.251 88.1013C219.683 87.7498 219.244 87.2597 218.935 86.6311C218.63 85.999 218.477 85.264 218.477 84.4259C218.477 83.5878 218.63 82.8492 218.935 82.21C219.244 81.5672 219.674 81.0665 220.224 80.7079C220.778 80.3456 221.424 80.1645 222.163 80.1645C222.589 80.1645 223.01 80.2356 223.426 80.3776C223.841 80.5196 224.219 80.7505 224.56 81.0701C224.901 81.3861 225.173 81.8052 225.375 82.3272C225.578 82.8492 225.679 83.4919 225.679 84.2554V84.7881H219.372V83.7015H224.4C224.4 83.2398 224.308 82.8279 224.123 82.4657C223.942 82.1034 223.683 81.8176 223.346 81.6081C223.012 81.3985 222.618 81.2938 222.163 81.2938C221.662 81.2938 221.229 81.4181 220.863 81.6667C220.501 81.9117 220.222 82.2313 220.027 82.6255C219.832 83.0196 219.734 83.4422 219.734 83.8932V84.6177C219.734 85.2356 219.841 85.7593 220.054 86.189C220.27 86.6152 220.57 86.9401 220.954 87.1638C221.337 87.384 221.783 87.4941 222.291 87.4941C222.621 87.4941 222.919 87.4479 223.186 87.3556C223.456 87.2597 223.688 87.1177 223.884 86.9294C224.079 86.7377 224.23 86.4998 224.336 86.2157L225.551 86.5566C225.423 86.9685 225.208 87.3307 224.906 87.6432C224.604 87.9522 224.232 88.1936 223.788 88.3677C223.344 88.5381 222.845 88.6233 222.291 88.6233ZM233.386 82.1034L232.257 82.4231C232.186 82.2348 232.081 82.052 231.943 81.8744C231.808 81.6933 231.623 81.5441 231.389 81.427C231.155 81.3098 230.854 81.2512 230.489 81.2512C229.988 81.2512 229.571 81.3666 229.237 81.5974C228.907 81.8247 228.742 82.1141 228.742 82.4657C228.742 82.7782 228.855 83.025 229.082 83.2061C229.31 83.3872 229.665 83.5381 230.148 83.6588L231.362 83.9571C232.094 84.1347 232.639 84.4064 232.998 84.7721C233.356 85.1343 233.536 85.6013 233.536 86.1731C233.536 86.6418 233.401 87.0608 233.131 87.4302C232.864 87.7995 232.492 88.0907 232.012 88.3037C231.533 88.5168 230.975 88.6233 230.34 88.6233C229.505 88.6233 228.814 88.4422 228.267 88.08C227.721 87.7178 227.374 87.1887 227.229 86.4927L228.422 86.1944C228.536 86.6347 228.75 86.965 229.066 87.1851C229.386 87.4053 229.803 87.5154 230.318 87.5154C230.904 87.5154 231.369 87.3911 231.714 87.1425C232.062 86.8904 232.236 86.5885 232.236 86.237C232.236 85.9529 232.136 85.715 231.938 85.5232C231.739 85.3279 231.433 85.1823 231.021 85.0864L229.658 84.7668C228.908 84.5892 228.358 84.314 228.006 83.9412C227.658 83.5647 227.484 83.0942 227.484 82.5296C227.484 82.0679 227.614 81.6596 227.873 81.3044C228.136 80.9493 228.493 80.6706 228.944 80.4682C229.399 80.2657 229.913 80.1645 230.489 80.1645C231.298 80.1645 231.934 80.3421 232.396 80.6972C232.861 81.0523 233.191 81.5211 233.386 82.1034Z" fill="#101828"/>
</g>
<defs>
<filter id="filter0_d_74_415" x="0.75" y="0.0828857" width="290.66" height="167.34" filterUnits="userSpaceOnUse" color-interpolation-filters="sRGB">
<feFlood flood-opacity="0" result="BackgroundImageFix"/>
<feColorMatrix in="SourceAlpha" type="matrix" values="0 0 0 0 0 0 0 0 0 0 0 0 0 0 0 0 0 0 127 0" result="hardAlpha"/>
<feOffset dy="18.36"/>
<feGaussianBlur stdDeviation="19.125"/>
<feComposite in2="hardAlpha" operator="out"/>
<feColorMatrix type="matrix" values="0 0 0 0 0.6375 0 0 0 0 0.6375 0 0 0 0 0.6375 0 0 0 0.15 0"/>
<feBlend mode="normal" in2="BackgroundImageFix" result="effect1_dropShadow_74_415"/>
<feBlend mode="normal" in="SourceGraphic" in2="effect1_dropShadow_74_415" result="shape"/>
</filter>
<filter id="filter1_d_74_415" x="19.1094" y="21.0229" width="125.461" height="125.46" filterUnits="userSpaceOnUse" color-interpolation-filters="sRGB">
<feFlood flood-opacity="0" result="BackgroundImageFix"/>
<feColorMatrix in="SourceAlpha" type="matrix" values="0 0 0 0 0 0 0 0 0 0 0 0 0 0 0 0 0 0 127 0" result="hardAlpha"/>
<feOffset dy="18.36"/>
<feGaussianBlur stdDeviation="19.125"/>
<feComposite in2="hardAlpha" operator="out"/>
<feColorMatrix type="matrix" values="0 0 0 0 0.0509804 0 0 0 0 0.0470588 0 0 0 0 0.219608 0 0 0 0.15 0"/>
<feBlend mode="normal" in2="BackgroundImageFix" result="effect1_dropShadow_74_415"/>
<feBlend mode="normal" in="SourceGraphic" in2="effect1_dropShadow_74_415" result="shape"/>
</filter>
</defs>
</svg>
