<svg width="243" height="163" viewBox="0 0 243 163" fill="none" xmlns="http://www.w3.org/2000/svg">
<g filter="url(#filter0_d_74_476)">
<rect x="39" y="20.2018" width="164.92" height="85.68" rx="18.36" fill="#F5F5F4" fill-opacity="0.8" shape-rendering="crispEdges"/>
<g filter="url(#filter1_d_74_476)">
<rect x="57.3594" y="38.5618" width="48.96" height="48.96" rx="12.24" fill="#7F56D9"/>
<path d="M94.2709 68.4604H93.1872V67.5042H94.2709C95.0359 67.5042 95.6734 66.8667 95.6734 66.1017V59.4079C95.6734 58.1967 94.6534 57.1767 93.4422 57.1767H86.4297C85.2184 57.1767 84.1984 58.1967 84.1984 59.4079V66.1017C84.1984 66.8667 84.8359 67.5042 85.6009 67.5042H86.6847V68.4604H85.6009C84.2622 68.4604 83.2422 67.3767 83.2422 66.1017V59.4079C83.2422 57.6229 84.6447 56.2204 86.4297 56.2204H93.5059C95.2909 56.2204 96.6934 57.6229 96.6934 59.4079V66.1017C96.6934 67.4404 95.6097 68.4604 94.2709 68.4604ZM89.9359 55.2004C88.0234 55.2004 86.4297 53.6067 86.4297 51.6942C86.4297 49.7817 88.0234 48.1879 89.9359 48.1879C91.8484 48.1879 93.4422 49.7817 93.4422 51.6942C93.4422 53.6067 91.9122 55.2004 89.9359 55.2004ZM89.9359 49.2079C88.5334 49.2079 87.3859 50.3554 87.3859 51.7579C87.3859 53.1604 88.5334 54.3079 89.9359 54.3079C91.3384 54.3079 92.4859 53.1604 92.4859 51.7579C92.4859 50.3554 91.3384 49.2079 89.9359 49.2079Z" fill="#F5F5F4"/>
<path d="M91.592 77.8954C90.9545 77.8954 90.3808 77.5767 89.9983 77.1304C89.6158 77.5767 89.042 77.8954 88.4045 77.8954C87.257 77.8954 86.3008 76.9392 86.3008 75.7917V60.2367H87.257V75.7917C87.257 76.4292 87.767 76.9392 88.4045 76.9392C89.042 76.9392 89.4883 76.3654 89.4883 75.7917V68.0142H90.4445V75.7917C90.4445 76.4292 90.9545 76.9392 91.592 76.9392C92.2295 76.9392 92.7395 76.4292 92.7395 75.7917V60.2367H93.6958V75.7917C93.6958 76.9392 92.7395 77.8954 91.592 77.8954Z" fill="#F5F5F4"/>
<path d="M84.7076 71.2654H67.0488V51.2479H85.0263V52.2042H68.0051V70.3092H84.7076V71.2654Z" fill="#F5F5F4"/>
<path d="M81.5841 60.173H70.6191V61.1292H81.5841V60.173Z" fill="#F5F5F4"/>
<path d="M81.5841 63.4243H70.6191V64.3805H81.5841V63.4243Z" fill="#F5F5F4"/>
<path d="M81.5841 66.7392H70.6191V67.6954H81.5841V66.7392Z" fill="#F5F5F4"/>
</g>
<path opacity="0.5" d="M119.307 42.8246V41.6527H127.489V42.8246H124.058V52.5618H122.737V42.8246H119.307ZM133.4 49.2167V44.38H134.657V52.5618H133.4V51.1769H133.315C133.123 51.5924 132.825 51.9457 132.42 52.2369C132.015 52.5245 131.504 52.6684 130.886 52.6684C130.375 52.6684 129.92 52.5565 129.522 52.3328C129.125 52.1055 128.812 51.7646 128.585 51.3101C128.357 50.852 128.244 50.2749 128.244 49.5789V44.38H129.501V49.4936C129.501 50.0902 129.668 50.5661 130.002 50.9212C130.339 51.2763 130.769 51.4539 131.291 51.4539C131.603 51.4539 131.921 51.374 132.244 51.2142C132.571 51.0544 132.844 50.8093 133.064 50.4791C133.288 50.1488 133.4 49.728 133.4 49.2167ZM140.518 44.38V45.4454H136.278V44.38H140.518ZM137.514 42.4198H138.771V50.2181C138.771 50.5732 138.822 50.8395 138.925 51.0171C139.032 51.1911 139.167 51.3083 139.33 51.3686C139.497 51.4255 139.673 51.4539 139.857 51.4539C139.996 51.4539 140.11 51.4468 140.198 51.4326C140.287 51.4148 140.358 51.4006 140.411 51.39L140.667 52.5192C140.582 52.5512 140.463 52.5831 140.31 52.6151C140.157 52.6506 139.964 52.6684 139.73 52.6684C139.374 52.6684 139.026 52.592 138.686 52.4393C138.348 52.2866 138.068 52.054 137.844 51.7415C137.624 51.429 137.514 51.0348 137.514 50.559V42.4198ZM145.645 52.7323C144.906 52.7323 144.258 52.5565 143.701 52.2049C143.147 51.8534 142.713 51.3615 142.401 50.7294C142.092 50.0973 141.937 49.3587 141.937 48.5135C141.937 47.6613 142.092 46.9173 142.401 46.2816C142.713 45.646 143.147 45.1524 143.701 44.8008C144.258 44.4493 144.906 44.2735 145.645 44.2735C146.383 44.2735 147.03 44.4493 147.584 44.8008C148.141 45.1524 148.575 45.646 148.883 46.2816C149.196 46.9173 149.352 47.6613 149.352 48.5135C149.352 49.3587 149.196 50.0973 148.883 50.7294C148.575 51.3615 148.141 51.8534 147.584 52.2049C147.03 52.5565 146.383 52.7323 145.645 52.7323ZM145.645 51.603C146.206 51.603 146.668 51.4592 147.03 51.1716C147.392 50.8839 147.66 50.5057 147.834 50.037C148.008 49.5682 148.095 49.0604 148.095 48.5135C148.095 47.9667 148.008 47.4571 147.834 46.9848C147.66 46.5125 147.392 46.1307 147.03 45.8395C146.668 45.5483 146.206 45.4027 145.645 45.4027C145.084 45.4027 144.622 45.5483 144.26 45.8395C143.898 46.1307 143.63 46.5125 143.456 46.9848C143.282 47.4571 143.195 47.9667 143.195 48.5135C143.195 49.0604 143.282 49.5682 143.456 50.037C143.63 50.5057 143.898 50.8839 144.26 51.1716C144.622 51.4592 145.084 51.603 145.645 51.603ZM151.271 52.5618V44.38H152.486V45.6158H152.571C152.72 45.211 152.99 44.8825 153.381 44.6304C153.771 44.3782 154.212 44.2522 154.702 44.2522C154.794 44.2522 154.909 44.2539 155.048 44.2575C155.186 44.261 155.291 44.2664 155.362 44.2735V45.5519C155.319 45.5412 155.222 45.5253 155.069 45.5039C154.92 45.4791 154.762 45.4667 154.595 45.4667C154.197 45.4667 153.842 45.5501 153.53 45.717C153.221 45.8804 152.976 46.1076 152.795 46.3988C152.617 46.6865 152.528 47.015 152.528 47.3843V52.5618H151.271ZM162.648 46.2124L161.518 46.532C161.447 46.3438 161.343 46.1609 161.204 45.9833C161.069 45.8022 160.885 45.6531 160.65 45.5359C160.416 45.4187 160.116 45.3601 159.75 45.3601C159.249 45.3601 158.832 45.4755 158.498 45.7064C158.168 45.9336 158.003 46.223 158.003 46.5746C158.003 46.8871 158.116 47.1339 158.344 47.315C158.571 47.4961 158.926 47.6471 159.409 47.7678L160.624 48.0661C161.355 48.2436 161.9 48.5153 162.259 48.8811C162.617 49.2433 162.797 49.7103 162.797 50.282C162.797 50.7507 162.662 51.1698 162.392 51.5391C162.126 51.9084 161.753 52.1996 161.273 52.4127C160.794 52.6257 160.236 52.7323 159.601 52.7323C158.766 52.7323 158.076 52.5512 157.529 52.189C156.982 51.8267 156.636 51.2976 156.49 50.6016L157.683 50.3033C157.797 50.7436 158.012 51.0739 158.328 51.2941C158.647 51.5142 159.065 51.6243 159.58 51.6243C160.165 51.6243 160.631 51.5 160.975 51.2515C161.323 50.9993 161.497 50.6975 161.497 50.3459C161.497 50.0618 161.398 49.8239 161.199 49.6321C161 49.4368 160.695 49.2912 160.283 49.1954L158.919 48.8757C158.17 48.6982 157.619 48.423 157.268 48.0501C156.92 47.6737 156.746 47.2032 156.746 46.6385C156.746 46.1769 156.875 45.7685 157.135 45.4134C157.397 45.0583 157.754 44.7795 158.205 44.5771C158.66 44.3747 159.175 44.2735 159.75 44.2735C160.56 44.2735 161.195 44.451 161.657 44.8061C162.122 45.1613 162.452 45.63 162.648 46.2124Z" fill="#101828"/>
<path d="M120.502 80.5618V77.7919L126.974 71.7994C127.524 71.2667 127.986 70.7873 128.359 70.3612C128.738 69.9351 129.025 69.5178 129.22 69.1094C129.415 68.6951 129.513 68.2483 129.513 67.7689C129.513 67.2362 129.392 66.7775 129.149 66.3928C128.906 66.0022 128.575 65.7033 128.155 65.4961C127.735 65.2831 127.258 65.1765 126.725 65.1765C126.169 65.1765 125.684 65.289 125.269 65.5139C124.855 65.7388 124.536 66.0614 124.311 66.4816C124.086 66.9018 123.973 67.4019 123.973 67.9819H120.324C120.324 66.7923 120.594 65.7595 121.132 64.8836C121.671 64.0076 122.426 63.3299 123.396 62.8505C124.367 62.3711 125.485 62.1314 126.752 62.1314C128.054 62.1314 129.188 62.3623 130.152 62.8239C131.123 63.2796 131.878 63.9129 132.416 64.7238C132.955 65.5346 133.224 66.4638 133.224 67.5114C133.224 68.198 133.088 68.8756 132.816 69.5444C132.549 70.2132 132.073 70.956 131.386 71.7728C130.7 72.5836 129.732 73.5572 128.483 74.6936L125.829 77.2948V77.4191H133.464V80.5618H120.502ZM142.89 80.8104C141.635 80.8104 140.516 80.5796 139.534 80.1179C138.557 79.6563 137.782 79.02 137.208 78.2092C136.634 77.3984 136.335 76.4691 136.311 75.4216H140.04C140.081 76.1259 140.377 76.697 140.928 77.135C141.478 77.573 142.132 77.7919 142.89 77.7919C143.493 77.7919 144.026 77.6588 144.488 77.3924C144.955 77.1202 145.319 76.7444 145.58 76.265C145.846 75.7796 145.979 75.2233 145.979 74.5959C145.979 73.9567 145.843 73.3945 145.571 72.9091C145.305 72.4238 144.935 72.045 144.461 71.7728C143.988 71.5005 143.446 71.3614 142.836 71.3555C142.304 71.3555 141.786 71.465 141.283 71.684C140.786 71.903 140.398 72.2019 140.12 72.5806L136.702 71.9681L137.563 62.38H148.678V65.5228H140.732L140.262 70.0771H140.368C140.688 69.6273 141.17 69.2544 141.816 68.9585C142.461 68.6626 143.183 68.5146 143.982 68.5146C145.077 68.5146 146.053 68.7721 146.911 69.287C147.77 69.8019 148.447 70.5092 148.944 71.4088C149.442 72.3025 149.687 73.3323 149.681 74.4983C149.687 75.7234 149.403 76.8124 148.829 77.7653C148.261 78.7123 147.465 79.458 146.441 80.0025C145.423 80.5411 144.239 80.8104 142.89 80.8104ZM159.491 80.9613C157.964 80.9554 156.65 80.5796 155.55 79.8338C154.455 79.0881 153.611 78.008 153.019 76.5934C152.433 75.1789 152.143 73.4773 152.149 71.4887C152.149 69.506 152.442 67.8162 153.028 66.4194C153.62 65.0226 154.463 63.9603 155.558 63.2323C156.659 62.4984 157.97 62.1314 159.491 62.1314C161.012 62.1314 162.32 62.4984 163.415 63.2323C164.516 63.9662 165.363 65.0315 165.954 66.4283C166.546 67.8192 166.839 69.506 166.833 71.4887C166.833 73.4832 166.537 75.1878 165.945 76.6023C165.36 78.0168 164.519 79.097 163.424 79.8427C162.329 80.5885 161.018 80.9613 159.491 80.9613ZM159.491 77.7742C160.533 77.7742 161.365 77.2504 161.986 76.2028C162.607 75.1552 162.915 73.5838 162.909 71.4887C162.909 70.1097 162.767 68.9614 162.483 68.0441C162.205 67.1267 161.808 66.4372 161.294 65.9755C160.785 65.5139 160.184 65.2831 159.491 65.2831C158.456 65.2831 157.627 65.8009 157.006 66.8367C156.384 67.8724 156.07 69.4231 156.064 71.4887C156.064 72.8855 156.204 74.0514 156.482 74.9865C156.766 75.9158 157.165 76.6141 157.68 77.0817C158.195 77.5434 158.799 77.7742 159.491 77.7742ZM175.008 77.7919V65.2209H178.186V77.7919H175.008ZM170.311 73.0956V69.9173H182.882V73.0956H170.311Z" fill="#101828"/>
</g>
<defs>
<filter id="filter0_d_74_476" x="0.75" y="0.311783" width="241.42" height="162.18" filterUnits="userSpaceOnUse" color-interpolation-filters="sRGB">
<feFlood flood-opacity="0" result="BackgroundImageFix"/>
<feColorMatrix in="SourceAlpha" type="matrix" values="0 0 0 0 0 0 0 0 0 0 0 0 0 0 0 0 0 0 127 0" result="hardAlpha"/>
<feOffset dy="18.36"/>
<feGaussianBlur stdDeviation="19.125"/>
<feComposite in2="hardAlpha" operator="out"/>
<feColorMatrix type="matrix" values="0 0 0 0 0.6375 0 0 0 0 0.6375 0 0 0 0 0.6375 0 0 0 0.15 0"/>
<feBlend mode="normal" in2="BackgroundImageFix" result="effect1_dropShadow_74_476"/>
<feBlend mode="normal" in="SourceGraphic" in2="effect1_dropShadow_74_476" result="shape"/>
</filter>
<filter id="filter1_d_74_476" x="19.1094" y="18.6718" width="125.461" height="125.46" filterUnits="userSpaceOnUse" color-interpolation-filters="sRGB">
<feFlood flood-opacity="0" result="BackgroundImageFix"/>
<feColorMatrix in="SourceAlpha" type="matrix" values="0 0 0 0 0 0 0 0 0 0 0 0 0 0 0 0 0 0 127 0" result="hardAlpha"/>
<feOffset dy="18.36"/>
<feGaussianBlur stdDeviation="19.125"/>
<feComposite in2="hardAlpha" operator="out"/>
<feColorMatrix type="matrix" values="0 0 0 0 0.0509804 0 0 0 0 0.0470588 0 0 0 0 0.219608 0 0 0 0.15 0"/>
<feBlend mode="normal" in2="BackgroundImageFix" result="effect1_dropShadow_74_476"/>
<feBlend mode="normal" in="SourceGraphic" in2="effect1_dropShadow_74_476" result="shape"/>
</filter>
</defs>
</svg>
