<svg width="378" height="183" viewBox="0 0 378 183" fill="none" xmlns="http://www.w3.org/2000/svg">
<g filter="url(#filter0_d_74_430)">
<g filter="url(#filter1_b_74_430)">
<rect x="39" y="20.6595" width="300" height="105.45" rx="20" fill="white" fill-opacity="0.8"/>
</g>
<path d="M150.92 65.477V63.197L156.392 57.365C157.128 56.565 157.656 55.861 157.976 55.253C158.296 54.629 158.456 53.997 158.456 53.357C158.456 51.725 157.472 50.909 155.504 50.909C153.968 50.909 152.552 51.485 151.256 52.637L150.224 50.333C150.896 49.725 151.736 49.237 152.744 48.869C153.752 48.501 154.8 48.317 155.888 48.317C157.696 48.317 159.08 48.725 160.04 49.541C161.016 50.357 161.504 51.525 161.504 53.045C161.504 54.069 161.256 55.053 160.76 55.997C160.28 56.941 159.52 57.957 158.48 59.045L154.76 62.933H162.152V65.477H150.92ZM171.215 65.717C170.111 65.717 169.039 65.549 167.999 65.213C166.959 64.861 166.111 64.389 165.455 63.797L166.463 61.445C167.919 62.565 169.487 63.125 171.167 63.125C172.175 63.125 172.959 62.869 173.519 62.357C174.095 61.829 174.383 61.125 174.383 60.245C174.383 59.349 174.111 58.629 173.567 58.085C173.023 57.525 172.279 57.245 171.335 57.245C169.991 57.245 168.879 57.781 167.999 58.853H165.935V48.557H176.327V51.101H168.935V55.685C169.783 55.045 170.823 54.725 172.055 54.725C173.127 54.725 174.055 54.957 174.839 55.421C175.639 55.869 176.255 56.501 176.687 57.317C177.135 58.117 177.359 59.053 177.359 60.125C177.359 61.229 177.111 62.205 176.615 63.053C176.119 63.885 175.407 64.541 174.479 65.021C173.567 65.485 172.479 65.717 171.215 65.717ZM185.941 65.717C183.941 65.717 182.413 64.965 181.357 63.461C180.301 61.941 179.773 59.781 179.773 56.981C179.773 54.149 180.301 51.997 181.357 50.525C182.413 49.053 183.941 48.317 185.941 48.317C187.957 48.317 189.485 49.053 190.525 50.525C191.581 51.997 192.109 54.141 192.109 56.957C192.109 59.773 191.581 61.941 190.525 63.461C189.469 64.965 187.941 65.717 185.941 65.717ZM185.941 63.197C187.029 63.197 187.829 62.701 188.341 61.709C188.869 60.701 189.133 59.117 189.133 56.957C189.133 54.813 188.869 53.261 188.341 52.301C187.829 51.325 187.029 50.837 185.941 50.837C184.869 50.837 184.069 51.325 183.541 52.301C183.013 53.261 182.749 54.813 182.749 56.957C182.749 59.117 183.013 60.701 183.541 61.709C184.069 62.701 184.869 63.197 185.941 63.197ZM195.172 65.477V48.557H198.172V58.733H198.22L202.948 53.741H206.572L201.244 59.357L206.908 65.477H203.236L198.22 60.245H198.172V65.477H195.172Z" fill="#595959"/>
<path d="M149.22 97.3298L155.5 83.2298H157.22L163.52 97.3298H161.4L159.92 93.8898H152.78L151.32 97.3298H149.22ZM156.34 85.5298L153.52 92.2098H159.22L156.38 85.5298H156.34ZM168.83 97.5098C168.03 97.5098 167.283 97.4098 166.59 97.2098C165.897 96.9965 165.317 96.7032 164.85 96.3298L165.43 94.9698C165.923 95.3165 166.463 95.5832 167.05 95.7698C167.65 95.9565 168.25 96.0498 168.85 96.0498C169.557 96.0498 170.09 95.9232 170.45 95.6698C170.81 95.4165 170.99 95.0765 170.99 94.6498C170.99 94.3032 170.87 94.0365 170.63 93.8498C170.39 93.6498 170.03 93.4965 169.55 93.3898L167.65 93.0098C165.97 92.6632 165.13 91.7965 165.13 90.4098C165.13 89.4898 165.497 88.7565 166.23 88.2098C166.963 87.6632 167.923 87.3898 169.11 87.3898C169.79 87.3898 170.437 87.4898 171.05 87.6898C171.677 87.8898 172.197 88.1898 172.61 88.5898L172.03 89.9498C171.63 89.6032 171.17 89.3365 170.65 89.1498C170.13 88.9632 169.617 88.8698 169.11 88.8698C168.417 88.8698 167.89 89.0032 167.53 89.2698C167.17 89.5232 166.99 89.8698 166.99 90.3098C166.99 90.9765 167.43 91.4032 168.31 91.5898L170.21 91.9698C171.077 92.1432 171.73 92.4365 172.17 92.8498C172.623 93.2632 172.85 93.8232 172.85 94.5298C172.85 95.4632 172.483 96.1965 171.75 96.7298C171.017 97.2498 170.043 97.5098 168.83 97.5098ZM178.917 97.5098C178.117 97.5098 177.371 97.4098 176.677 97.2098C175.984 96.9965 175.404 96.7032 174.937 96.3298L175.517 94.9698C176.011 95.3165 176.551 95.5832 177.137 95.7698C177.737 95.9565 178.337 96.0498 178.937 96.0498C179.644 96.0498 180.177 95.9232 180.537 95.6698C180.897 95.4165 181.077 95.0765 181.077 94.6498C181.077 94.3032 180.957 94.0365 180.717 93.8498C180.477 93.6498 180.117 93.4965 179.637 93.3898L177.737 93.0098C176.057 92.6632 175.217 91.7965 175.217 90.4098C175.217 89.4898 175.584 88.7565 176.317 88.2098C177.051 87.6632 178.011 87.3898 179.197 87.3898C179.877 87.3898 180.524 87.4898 181.137 87.6898C181.764 87.8898 182.284 88.1898 182.697 88.5898L182.117 89.9498C181.717 89.6032 181.257 89.3365 180.737 89.1498C180.217 88.9632 179.704 88.8698 179.197 88.8698C178.504 88.8698 177.977 89.0032 177.617 89.2698C177.257 89.5232 177.077 89.8698 177.077 90.3098C177.077 90.9765 177.517 91.4032 178.397 91.5898L180.297 91.9698C181.164 92.1432 181.817 92.4365 182.257 92.8498C182.711 93.2632 182.937 93.8232 182.937 94.5298C182.937 95.4632 182.571 96.1965 181.837 96.7298C181.104 97.2498 180.131 97.5098 178.917 97.5098ZM185.405 85.3098V83.2098H187.765V85.3098H185.405ZM185.585 97.3298V87.5698H187.605V97.3298H185.585ZM194.268 97.5098C193.468 97.5098 192.721 97.4098 192.028 97.2098C191.335 96.9965 190.755 96.7032 190.288 96.3298L190.868 94.9698C191.361 95.3165 191.901 95.5832 192.488 95.7698C193.088 95.9565 193.688 96.0498 194.288 96.0498C194.995 96.0498 195.528 95.9232 195.888 95.6698C196.248 95.4165 196.428 95.0765 196.428 94.6498C196.428 94.3032 196.308 94.0365 196.068 93.8498C195.828 93.6498 195.468 93.4965 194.988 93.3898L193.088 93.0098C191.408 92.6632 190.568 91.7965 190.568 90.4098C190.568 89.4898 190.935 88.7565 191.668 88.2098C192.401 87.6632 193.361 87.3898 194.548 87.3898C195.228 87.3898 195.875 87.4898 196.488 87.6898C197.115 87.8898 197.635 88.1898 198.048 88.5898L197.468 89.9498C197.068 89.6032 196.608 89.3365 196.088 89.1498C195.568 88.9632 195.055 88.8698 194.548 88.8698C193.855 88.8698 193.328 89.0032 192.968 89.2698C192.608 89.5232 192.428 89.8698 192.428 90.3098C192.428 90.9765 192.868 91.4032 193.748 91.5898L195.648 91.9698C196.515 92.1432 197.168 92.4365 197.608 92.8498C198.061 93.2632 198.288 93.8232 198.288 94.5298C198.288 95.4632 197.921 96.1965 197.188 96.7298C196.455 97.2498 195.481 97.5098 194.268 97.5098ZM204.998 97.5098C203.771 97.5098 202.858 97.1965 202.258 96.5698C201.658 95.9432 201.358 95.0365 201.358 93.8498V89.1298H199.458V87.5698H201.358V84.6298H203.378V87.5698H206.398V89.1298H203.378V93.6898C203.378 94.3965 203.525 94.9298 203.818 95.2898C204.125 95.6498 204.618 95.8298 205.298 95.8298C205.511 95.8298 205.718 95.8098 205.918 95.7698C206.118 95.7165 206.318 95.6565 206.518 95.5898L206.838 97.1098C206.638 97.2298 206.358 97.3232 205.998 97.3898C205.651 97.4698 205.318 97.5098 204.998 97.5098ZM213.025 97.5098C211.425 97.5098 210.165 97.0632 209.245 96.1698C208.325 95.2632 207.865 94.0298 207.865 92.4698C207.865 91.4698 208.065 90.5898 208.465 89.8298C208.878 89.0565 209.445 88.4565 210.165 88.0298C210.885 87.6032 211.712 87.3898 212.645 87.3898C213.992 87.3898 215.052 87.8232 215.825 88.6898C216.598 89.5432 216.985 90.7232 216.985 92.2298V92.9098H209.825C209.972 94.9365 211.045 95.9498 213.045 95.9498C213.605 95.9498 214.152 95.8632 214.685 95.6898C215.232 95.5165 215.745 95.2298 216.225 94.8298L216.825 96.2298C216.385 96.6298 215.818 96.9432 215.125 97.1698C214.432 97.3965 213.732 97.5098 213.025 97.5098ZM212.725 88.8098C211.885 88.8098 211.218 89.0698 210.725 89.5898C210.232 90.1098 209.932 90.8032 209.825 91.6698H215.285C215.245 90.7632 215.005 90.0632 214.565 89.5698C214.125 89.0632 213.512 88.8098 212.725 88.8098ZM223.307 97.5098C222.454 97.5098 221.701 97.3098 221.047 96.9098C220.407 96.4965 219.907 95.9098 219.547 95.1498C219.187 94.3898 219.007 93.4898 219.007 92.4498C219.007 91.4098 219.187 90.5165 219.547 89.7698C219.907 89.0098 220.407 88.4232 221.047 88.0098C221.687 87.5965 222.441 87.3898 223.307 87.3898C224.041 87.3898 224.694 87.5498 225.267 87.8698C225.841 88.1898 226.267 88.6232 226.547 89.1698V83.2298H228.567V97.3298H226.587V95.6298C226.307 96.2165 225.874 96.6765 225.287 97.0098C224.714 97.3432 224.054 97.5098 223.307 97.5098ZM223.827 95.9498C224.654 95.9498 225.321 95.6498 225.827 95.0498C226.334 94.4498 226.587 93.5832 226.587 92.4498C226.587 91.3165 226.334 90.4565 225.827 89.8698C225.321 89.2698 224.654 88.9698 223.827 88.9698C222.987 88.9698 222.314 89.2698 221.807 89.8698C221.301 90.4565 221.047 91.3165 221.047 92.4498C221.047 93.5832 221.301 94.4498 221.807 95.0498C222.314 95.6498 222.987 95.9498 223.827 95.9498ZM242.377 97.5098C241.271 97.5098 240.257 97.3698 239.337 97.0898C238.417 96.7965 237.637 96.3898 236.997 95.8698L237.657 94.2298C238.324 94.7365 239.037 95.1165 239.797 95.3698C240.557 95.6232 241.417 95.7498 242.377 95.7498C243.511 95.7498 244.344 95.5498 244.877 95.1498C245.424 94.7365 245.697 94.2032 245.697 93.5498C245.697 93.0165 245.504 92.5965 245.117 92.2898C244.731 91.9698 244.084 91.7165 243.177 91.5298L241.037 91.0898C239.771 90.8232 238.824 90.3832 238.197 89.7698C237.584 89.1565 237.277 88.3298 237.277 87.2898C237.277 86.4498 237.497 85.7098 237.937 85.0698C238.391 84.4298 239.017 83.9365 239.817 83.5898C240.617 83.2298 241.537 83.0498 242.577 83.0498C243.537 83.0498 244.424 83.1965 245.237 83.4898C246.064 83.7698 246.764 84.1832 247.337 84.7298L246.657 86.3098C245.524 85.3098 244.157 84.8098 242.557 84.8098C241.571 84.8098 240.784 85.0298 240.197 85.4698C239.624 85.9098 239.337 86.4965 239.337 87.2298C239.337 87.7898 239.517 88.2365 239.877 88.5698C240.237 88.9032 240.837 89.1565 241.677 89.3298L243.797 89.7698C245.131 90.0498 246.124 90.4832 246.777 91.0698C247.431 91.6432 247.757 92.4232 247.757 93.4098C247.757 94.2365 247.537 94.9565 247.097 95.5698C246.657 96.1832 246.037 96.6632 245.237 97.0098C244.437 97.3432 243.484 97.5098 242.377 97.5098ZM254.4 97.5098C253.174 97.5098 252.26 97.1965 251.66 96.5698C251.06 95.9432 250.76 95.0365 250.76 93.8498V89.1298H248.86V87.5698H250.76V84.6298H252.78V87.5698H255.8V89.1298H252.78V93.6898C252.78 94.3965 252.927 94.9298 253.22 95.2898C253.527 95.6498 254.02 95.8298 254.7 95.8298C254.914 95.8298 255.12 95.8098 255.32 95.7698C255.52 95.7165 255.72 95.6565 255.92 95.5898L256.24 97.1098C256.04 97.2298 255.76 97.3232 255.4 97.3898C255.054 97.4698 254.72 97.5098 254.4 97.5098ZM261.425 97.5098C259.065 97.5098 257.885 96.1965 257.885 93.5698V87.5698H259.905V93.5898C259.905 94.3765 260.065 94.9565 260.385 95.3298C260.705 95.7032 261.212 95.8898 261.905 95.8898C262.665 95.8898 263.278 95.6365 263.745 95.1298C264.225 94.6232 264.465 93.9432 264.465 93.0898V87.5698H266.485V97.3298H264.525V95.7698C264.205 96.3432 263.778 96.7765 263.245 97.0698C262.712 97.3632 262.105 97.5098 261.425 97.5098ZM273.452 97.5098C272.598 97.5098 271.845 97.3098 271.192 96.9098C270.552 96.4965 270.052 95.9098 269.692 95.1498C269.332 94.3898 269.152 93.4898 269.152 92.4498C269.152 91.4098 269.332 90.5165 269.692 89.7698C270.052 89.0098 270.552 88.4232 271.192 88.0098C271.832 87.5965 272.585 87.3898 273.452 87.3898C274.185 87.3898 274.838 87.5498 275.412 87.8698C275.985 88.1898 276.412 88.6232 276.692 89.1698V83.2298H278.712V97.3298H276.732V95.6298C276.452 96.2165 276.018 96.6765 275.432 97.0098C274.858 97.3432 274.198 97.5098 273.452 97.5098ZM273.972 95.9498C274.798 95.9498 275.465 95.6498 275.972 95.0498C276.478 94.4498 276.732 93.5832 276.732 92.4498C276.732 91.3165 276.478 90.4565 275.972 89.8698C275.465 89.2698 274.798 88.9698 273.972 88.9698C273.132 88.9698 272.458 89.2698 271.952 89.8698C271.445 90.4565 271.192 91.3165 271.192 92.4498C271.192 93.5832 271.445 94.4498 271.952 95.0498C272.458 95.6498 273.132 95.9498 273.972 95.9498ZM286.528 97.5098C284.928 97.5098 283.668 97.0632 282.748 96.1698C281.828 95.2632 281.368 94.0298 281.368 92.4698C281.368 91.4698 281.568 90.5898 281.968 89.8298C282.381 89.0565 282.948 88.4565 283.668 88.0298C284.388 87.6032 285.215 87.3898 286.148 87.3898C287.495 87.3898 288.555 87.8232 289.328 88.6898C290.101 89.5432 290.488 90.7232 290.488 92.2298V92.9098H283.328C283.475 94.9365 284.548 95.9498 286.548 95.9498C287.108 95.9498 287.655 95.8632 288.188 95.6898C288.735 95.5165 289.248 95.2298 289.728 94.8298L290.328 96.2298C289.888 96.6298 289.321 96.9432 288.628 97.1698C287.935 97.3965 287.235 97.5098 286.528 97.5098ZM286.228 88.8098C285.388 88.8098 284.721 89.0698 284.228 89.5898C283.735 90.1098 283.435 90.8032 283.328 91.6698H288.788C288.748 90.7632 288.508 90.0632 288.068 89.5698C287.628 89.0632 287.015 88.8098 286.228 88.8098ZM293.09 97.3298V87.5698H295.05V89.1898C295.384 88.6032 295.837 88.1565 296.41 87.8498C296.997 87.5432 297.65 87.3898 298.37 87.3898C300.677 87.3898 301.83 88.6965 301.83 91.3098V97.3298H299.81V91.4298C299.81 90.5898 299.644 89.9765 299.31 89.5898C298.99 89.2032 298.484 89.0098 297.79 89.0098C296.977 89.0098 296.324 89.2698 295.83 89.7898C295.35 90.2965 295.11 90.9698 295.11 91.8098V97.3298H293.09ZM309.174 97.5098C307.947 97.5098 307.034 97.1965 306.434 96.5698C305.834 95.9432 305.534 95.0365 305.534 93.8498V89.1298H303.634V87.5698H305.534V84.6298H307.554V87.5698H310.574V89.1298H307.554V93.6898C307.554 94.3965 307.7 94.9298 307.994 95.2898C308.3 95.6498 308.794 95.8298 309.474 95.8298C309.687 95.8298 309.894 95.8098 310.094 95.7698C310.294 95.7165 310.494 95.6565 310.694 95.5898L311.014 97.1098C310.814 97.2298 310.534 97.3232 310.174 97.3898C309.827 97.4698 309.494 97.5098 309.174 97.5098Z" fill="#545567"/>
<rect x="67" y="47.0219" width="50" height="52.7248" rx="8" fill="#7F56D9"/>
<g clip-path="url(#clip0_74_430)">
<path d="M85.1247 58.885C84.5823 58.885 84.1426 59.3487 84.1426 59.9207V61.992H86.1069V59.9207C86.1069 59.3487 85.6671 58.885 85.1247 58.885Z" fill="white"/>
<path d="M98.8747 58.885C98.3323 58.885 97.8926 59.3487 97.8926 59.9207V61.992H99.8568V59.9207C99.8569 59.3487 99.4172 58.885 98.8747 58.885Z" fill="white"/>
<path d="M102.804 61.992H99.8571V66.1347C99.8571 66.7067 99.4174 67.1704 98.875 67.1704C98.3325 67.1704 97.8928 66.7067 97.8928 66.1347V61.992H86.1071V66.1347C86.1071 66.7067 85.6674 67.1704 85.125 67.1704C84.5825 67.1704 84.1428 66.7067 84.1428 66.1347V61.992H81.1964C79.5692 61.992 78.25 63.3831 78.25 65.099V84.7767C78.25 86.4926 79.5692 87.8837 81.1964 87.8837H102.804C104.431 87.8837 105.75 86.4926 105.75 84.7767V65.099C105.75 63.3831 104.431 61.992 102.804 61.992ZM103.786 84.7767C103.786 85.3487 103.346 85.8124 102.804 85.8124H81.1964C80.654 85.8124 80.2143 85.3487 80.2143 84.7767V71.313H103.786V84.7767Z" fill="white"/>
<path d="M86.1066 73.3843H84.1423C83.5999 73.3843 83.1602 73.848 83.1602 74.42C83.1602 74.992 83.5999 75.4557 84.1423 75.4557H86.1066C86.649 75.4557 87.0888 74.992 87.0888 74.42C87.0888 73.848 86.649 73.3843 86.1066 73.3843Z" fill="white"/>
<path d="M92.9816 73.3843H91.0173C90.4749 73.3843 90.0352 73.848 90.0352 74.42C90.0352 74.992 90.4749 75.4557 91.0173 75.4557H92.9816C93.524 75.4557 93.9638 74.992 93.9638 74.42C93.9638 73.848 93.524 73.3843 92.9816 73.3843Z" fill="white"/>
<path d="M99.8566 73.3843H97.8923C97.3499 73.3843 96.9102 73.848 96.9102 74.42C96.9102 74.992 97.3499 75.4557 97.8923 75.4557H99.8566C100.399 75.4557 100.839 74.992 100.839 74.42C100.839 73.848 100.399 73.3843 99.8566 73.3843Z" fill="white"/>
<path d="M86.1066 77.527H84.1423C83.5999 77.527 83.1602 77.9907 83.1602 78.5627C83.1602 79.1347 83.5999 79.5984 84.1423 79.5984H86.1066C86.649 79.5984 87.0888 79.1347 87.0888 78.5627C87.0888 77.9907 86.649 77.527 86.1066 77.527Z" fill="white"/>
<path d="M92.9816 77.527H91.0173C90.4749 77.527 90.0352 77.9907 90.0352 78.5627C90.0352 79.1347 90.4749 79.5984 91.0173 79.5984H92.9816C93.524 79.5984 93.9638 79.1347 93.9638 78.5627C93.9638 77.9907 93.524 77.527 92.9816 77.527Z" fill="white"/>
<path d="M99.8566 77.527H97.8923C97.3499 77.527 96.9102 77.9907 96.9102 78.5627C96.9102 79.1347 97.3499 79.5984 97.8923 79.5984H99.8566C100.399 79.5984 100.839 79.1347 100.839 78.5627C100.839 77.9907 100.399 77.527 99.8566 77.527Z" fill="white"/>
<path d="M86.1066 81.6696H84.1423C83.5999 81.6696 83.1602 82.1333 83.1602 82.7053C83.1602 83.2773 83.5999 83.741 84.1423 83.741H86.1066C86.649 83.741 87.0888 83.2773 87.0888 82.7053C87.0888 82.1333 86.649 81.6696 86.1066 81.6696Z" fill="white"/>
<path d="M92.9816 81.6696H91.0173C90.4749 81.6696 90.0352 82.1333 90.0352 82.7053C90.0352 83.2773 90.4749 83.741 91.0173 83.741H92.9816C93.524 83.741 93.9638 83.2773 93.9638 82.7053C93.9638 82.1333 93.524 81.6696 92.9816 81.6696Z" fill="white"/>
<path d="M99.8566 81.6696H97.8923C97.3499 81.6696 96.9102 82.1333 96.9102 82.7053C96.9102 83.2773 97.3499 83.741 97.8923 83.741H99.8566C100.399 83.741 100.839 83.2773 100.839 82.7053C100.839 82.1333 100.399 81.6696 99.8566 81.6696Z" fill="white"/>
</g>
</g>
<defs>
<filter id="filter0_d_74_430" x="0.75" y="0.769547" width="376.5" height="181.95" filterUnits="userSpaceOnUse" color-interpolation-filters="sRGB">
<feFlood flood-opacity="0" result="BackgroundImageFix"/>
<feColorMatrix in="SourceAlpha" type="matrix" values="0 0 0 0 0 0 0 0 0 0 0 0 0 0 0 0 0 0 127 0" result="hardAlpha"/>
<feOffset dy="18.36"/>
<feGaussianBlur stdDeviation="19.125"/>
<feComposite in2="hardAlpha" operator="out"/>
<feColorMatrix type="matrix" values="0 0 0 0 0.6375 0 0 0 0 0.6375 0 0 0 0 0.6375 0 0 0 0.15 0"/>
<feBlend mode="normal" in2="BackgroundImageFix" result="effect1_dropShadow_74_430"/>
<feBlend mode="normal" in="SourceGraphic" in2="effect1_dropShadow_74_430" result="shape"/>
</filter>
<filter id="filter1_b_74_430" x="19" y="0.659546" width="340" height="145.45" filterUnits="userSpaceOnUse" color-interpolation-filters="sRGB">
<feFlood flood-opacity="0" result="BackgroundImageFix"/>
<feGaussianBlur in="BackgroundImageFix" stdDeviation="10"/>
<feComposite in2="SourceAlpha" operator="in" result="effect1_backgroundBlur_74_430"/>
<feBlend mode="normal" in="SourceGraphic" in2="effect1_backgroundBlur_74_430" result="shape"/>
</filter>
<clipPath id="clip0_74_430">
<rect width="27.5" height="28.9986" fill="white" transform="translate(78.25 58.885)"/>
</clipPath>
</defs>
</svg>
