<svg width="162" height="51" viewBox="0 0 162 51" fill="none" xmlns="http://www.w3.org/2000/svg">
<g clip-path="url(#clip0_37_2122)">
<path d="M85.1361 13.4658C85.1361 15.2654 83.6745 16.7144 81.8606 16.7144C80.0466 16.7144 78.586 15.2654 78.586 13.4658C78.586 11.6663 79.9968 10.2172 81.8606 10.2172C83.7259 10.2671 85.1361 11.7167 85.1361 13.4658ZM71.6331 20.0139V20.8139C71.6331 20.8139 70.0719 18.8136 66.7464 18.8136C61.2552 18.8136 56.972 22.9624 56.972 28.7102C56.972 34.4084 61.2049 38.6067 66.7464 38.6067C70.1222 38.6067 71.6331 36.5575 71.6331 36.5575V37.4069C71.6331 37.8068 71.9361 38.1059 72.3388 38.1059H76.4192V19.3119H72.3388C71.9361 19.3134 71.6331 19.6639 71.6331 20.0139ZM71.6331 32.0591C70.8782 33.1591 69.3662 34.1088 67.5527 34.1088C64.3285 34.1088 61.8592 32.1095 61.8592 28.7102C61.8592 25.3113 64.3285 23.312 67.5527 23.312C69.3164 23.312 70.9285 24.3116 71.6331 25.3612V32.0591ZM79.4426 19.3134H84.279V38.1074H79.4426V19.3134ZM151.691 18.8131C148.366 18.8131 146.804 20.8134 146.804 20.8134V10.2671H141.967V38.1074H146.049C146.452 38.1074 146.753 37.7574 146.753 37.4074V36.558C146.753 36.558 148.316 38.6072 151.64 38.6072C157.132 38.6072 161.414 34.4099 161.414 28.7116C161.414 23.0134 157.132 18.8131 151.691 18.8131ZM150.885 34.0584C149.02 34.0584 147.56 33.1097 146.804 32.0092V25.3113C147.56 24.3116 149.172 23.262 150.885 23.262C154.109 23.262 156.578 25.2613 156.578 28.6602C156.578 32.0591 154.11 34.0584 150.885 34.0584ZM139.449 26.9615V38.1574H134.611V27.5108C134.611 24.4125 133.604 23.1622 130.885 23.1622C129.424 23.1622 127.912 23.9122 126.953 25.0122V38.1079H122.118V19.3139H125.946C126.349 19.3139 126.651 19.6639 126.651 20.0139V20.8139C128.062 19.3638 129.926 18.8136 131.79 18.8136C133.906 18.8136 135.67 19.4143 137.081 20.6136C138.793 22.0132 139.449 23.8123 139.449 26.9615ZM110.377 18.8131C107.053 18.8131 105.49 20.8134 105.49 20.8134V10.2671H100.654V38.1074H104.734C105.138 38.1074 105.44 37.7574 105.44 37.4074V36.558C105.44 36.558 107.002 38.6072 110.327 38.6072C115.819 38.6072 120.101 34.4099 120.101 28.7116C120.151 23.0129 115.869 18.8131 110.377 18.8131ZM109.571 34.0584C107.707 34.0584 106.246 33.1097 105.49 32.0092V25.3113C106.246 24.3116 107.858 23.262 109.571 23.262C112.796 23.262 115.264 25.2613 115.264 28.6602C115.264 32.0591 112.796 34.0584 109.571 34.0584ZM96.4719 18.8131C97.9325 18.8131 98.6885 19.0637 98.6885 19.0637V23.5117C98.6885 23.5117 94.6579 22.162 92.1393 25.0117V38.1568H87.3019V19.3134H91.3833C91.7865 19.3134 92.088 19.6634 92.088 20.0134V20.8134C92.9959 19.7633 94.9609 18.8131 96.4719 18.8131ZM46.2412 36.4077C45.9896 35.808 45.7374 35.1584 45.4858 34.6082C45.0821 33.7089 44.679 32.8585 44.3271 32.0591L44.2768 32.0092C40.7999 24.5113 37.0723 16.9146 33.1419 9.4178L32.9909 9.1172C32.5775 8.33949 32.1747 7.55632 31.7824 6.76789C31.2781 5.86761 30.7748 4.91889 29.9685 4.01861C28.3564 2.01932 26.0386 0.919312 23.5703 0.919312C21.0507 0.919312 18.7838 2.01933 17.1218 3.91825C16.3658 4.81753 15.8112 5.76725 15.3078 6.66753C14.9146 7.45547 14.5118 8.23862 14.0994 9.01684L13.9479 9.31743C10.0683 16.8143 6.2899 24.4115 2.81348 31.9088L2.76266 32.0082C2.41033 32.8091 2.00667 33.6584 1.60351 34.5572C1.35185 35.1075 1.10019 35.7072 0.848533 36.3568C0.193214 38.2058 -0.00862661 39.9554 0.244039 41.7555C0.798192 45.5044 3.31679 48.6521 6.79371 50.0527C8.10385 50.603 9.46432 50.8526 10.8746 50.8526C11.2778 50.8526 11.7811 50.8027 12.1848 50.7523C13.8477 50.5526 15.5605 50.0033 17.2235 49.0536C19.2891 47.9036 21.254 46.2549 23.4706 43.8556C25.6873 46.2549 27.7026 47.9036 29.7178 49.0536C31.3813 50.0033 33.0936 50.5526 34.756 50.7523C35.1592 50.8032 35.6635 50.8526 36.0667 50.8526C37.4775 50.8526 38.8878 50.603 40.1471 50.0527C43.6743 48.6521 46.1426 45.4545 46.6973 41.7555C47.0974 40.0063 46.8961 38.2577 46.2412 36.4077ZM23.5195 39.0067C20.7985 35.6078 19.0349 32.4091 18.4309 29.7108C18.1793 28.5609 18.1284 27.5612 18.2799 26.6614C18.3801 25.8615 18.6831 25.1615 19.0862 24.5618C20.0436 23.2131 21.6557 22.3628 23.52 22.3628C25.3848 22.3628 27.0472 23.1627 27.9542 24.5618C28.3574 25.1615 28.6594 25.862 28.761 26.6614C28.9115 27.5617 28.8612 28.6108 28.6095 29.7108C28.003 32.3592 26.2394 35.5584 23.5195 39.0067ZM43.621 41.356C43.2687 43.955 41.505 46.2049 39.0368 47.2046C37.8278 47.7039 36.5172 47.8542 35.208 47.7039C33.9487 47.5536 32.6884 47.1536 31.3793 46.4047C29.5653 45.404 27.7519 43.8556 25.6354 41.5557C28.9604 37.5077 30.9756 33.8083 31.7316 30.5102C32.0844 28.9603 32.1353 27.5612 31.9833 26.261C31.7825 25.0117 31.3284 23.8617 30.6233 22.8621C29.0605 20.6121 26.4402 19.3134 23.519 19.3134C20.5977 19.3134 17.9774 20.6631 16.4156 22.8621C15.7105 23.8617 15.2565 25.0117 15.0552 26.261C14.8538 27.5612 14.9037 29.0103 15.3068 30.5102C16.0623 33.8083 18.1279 37.5572 21.4025 41.6057C19.3369 43.9051 17.4726 45.455 15.6587 46.4546C14.3485 47.2046 13.0897 47.6045 11.8304 47.7538C10.4705 47.9041 9.15982 47.7039 8.00118 47.2545C5.53291 46.2549 3.76929 44.0049 3.41696 41.4059C3.26597 40.1566 3.36613 38.9073 3.87045 37.5077C4.02094 37.0074 4.27361 36.5081 4.52527 35.9084C4.87809 35.1085 5.28024 34.2581 5.68391 33.4088L5.73475 33.3094C9.21066 25.8615 12.9387 18.2643 16.8183 10.8673L16.9693 10.5667C17.373 9.81776 17.7761 9.01784 18.1788 8.26786C18.5819 7.46794 19.0349 6.71796 19.5896 6.06784C20.6475 4.86946 22.0578 4.21884 23.6201 4.21884C25.1824 4.21884 26.5927 4.86946 27.6507 6.06784C28.2054 6.71945 28.6583 7.46944 29.0615 8.26786C29.4652 9.01784 29.8683 9.81776 30.2705 10.5667L30.422 10.8673C34.2424 18.295 37.921 25.7937 41.4557 33.3594V33.4093C41.8594 34.2102 42.2117 35.109 42.6148 35.9099C42.8665 36.5086 43.1187 37.0079 43.2697 37.5082C43.6718 38.8065 43.8228 40.0568 43.621 41.356Z" fill="#CDD2D8"/>
</g>
<defs>
<clipPath id="clip0_37_2122">
<rect width="161.323" height="49.9333" fill="white" transform="translate(0.113281 0.9198)"/>
</clipPath>
</defs>
</svg>
