<svg width="154" height="47" viewBox="0 0 154 47" fill="none" xmlns="http://www.w3.org/2000/svg">
<g clip-path="url(#clip0_37_2126)">
<path fill-rule="evenodd" clip-rule="evenodd" d="M95.482 36.4895C86.5873 43.0435 73.6497 46.5353 62.491 46.5353C46.858 46.5353 32.8422 40.7872 22.1687 31.2249C21.3601 30.4728 22.0609 29.4521 23.0851 30.0431C34.5673 36.7044 48.7448 40.6797 63.4074 40.6797C73.2724 40.6797 84.1615 38.6384 94.1882 34.3944C95.6976 33.8035 96.9375 35.4151 95.482 36.4895Z" fill="#CDD2D8"/>
<path fill-rule="evenodd" clip-rule="evenodd" d="M99.2011 32.2455C98.0691 30.7951 91.6542 31.5472 88.7971 31.9232C87.9346 32.0307 87.7729 31.2786 88.5815 30.7414C93.7026 27.1421 102.058 28.2165 103.028 29.3984C103.999 30.5802 102.759 38.9606 97.9612 42.936C97.2066 43.5269 96.5058 43.2046 96.8292 42.3988C97.9073 39.7127 100.333 33.7497 99.2011 32.2455Z" fill="#CDD2D8"/>
<path fill-rule="evenodd" clip-rule="evenodd" d="M88.9584 5.49273V2.00089C88.9584 1.46368 89.3357 1.14135 89.8209 1.14135H105.454C105.939 1.14135 106.37 1.5174 106.37 2.00089V4.95552C106.37 5.43901 105.939 6.08366 105.184 7.15807L97.0983 18.6543C100.117 18.6006 103.298 19.0303 105.993 20.5345C106.586 20.8568 106.748 21.394 106.802 21.8775V25.5842C106.802 26.1215 106.262 26.7124 105.669 26.3901C100.872 23.8652 94.4569 23.5966 89.174 26.4438C88.6349 26.7124 88.042 26.1752 88.042 25.638V22.0924C88.042 21.5552 88.042 20.5882 88.6349 19.7287L98.0147 6.35226H89.8748C89.3896 6.35226 88.9584 5.97622 88.9584 5.49273ZM31.9789 27.1421H27.2351C26.8038 27.0884 26.4265 26.7661 26.3725 26.3363V2.05461C26.3725 1.57113 26.8038 1.19508 27.289 1.19508H31.7093C32.1945 1.19508 32.5179 1.57112 32.5718 2.00089V5.1704H32.6796C33.8117 2.10833 36.0219 0.657872 38.9328 0.657872C41.8977 0.657872 43.7845 2.10833 45.0782 5.1704C46.2103 2.10833 48.8517 0.657872 51.6549 0.657872C53.6494 0.657872 55.8057 1.46368 57.1534 3.3439C58.6627 5.38529 58.3393 8.33993 58.3393 10.9722V26.3363C58.3393 26.8198 57.908 27.1959 57.4229 27.1959H52.733C52.2478 27.1421 51.8705 26.7661 51.8705 26.3363V13.4434C51.8705 12.4227 51.9783 9.8441 51.7627 8.87712C51.3853 7.2655 50.3611 6.78202 48.9595 6.78202C47.8275 6.78202 46.5876 7.53412 46.1024 8.76969C45.6173 10.0053 45.6712 12.0466 45.6712 13.4434V26.3363C45.6712 26.8198 45.2399 27.1959 44.7548 27.1959H40.011C39.5258 27.1421 39.1485 26.7661 39.1485 26.3363V13.4434C39.1485 10.7573 39.5797 6.7283 36.2375 6.7283C32.8414 6.7283 32.9492 10.5962 32.9492 13.4434V26.3363C32.8953 26.7661 32.5179 27.1421 31.9789 27.1421ZM119.847 0.657872C126.909 0.657872 130.736 6.67458 130.736 14.3566C130.736 21.7701 126.531 27.6793 119.847 27.6793C112.947 27.6793 109.173 21.6626 109.173 14.1418C109.12 6.56715 112.947 0.657872 119.847 0.657872ZM119.847 5.65389C116.343 5.65389 116.127 10.435 116.127 13.3897C116.127 16.3443 116.074 22.6833 119.793 22.6833C123.459 22.6833 123.674 17.5799 123.674 14.4641C123.674 12.4227 123.567 9.95155 122.974 8.01761C122.435 6.29855 121.356 5.65389 119.847 5.65389ZM139.846 27.1421H135.103C134.617 27.0884 134.24 26.7124 134.24 26.2826V1.94716C134.294 1.5174 134.671 1.14135 135.157 1.14135H139.577C140.008 1.14135 140.332 1.46369 140.439 1.83973V5.54645H140.547C141.895 2.21577 143.728 0.657872 147.016 0.657872C149.118 0.657872 151.221 1.40995 152.568 3.50506C153.808 5.439 153.808 8.71597 153.808 11.0797V26.3901C153.754 26.8198 153.377 27.1421 152.892 27.1421H148.148C147.717 27.0884 147.339 26.7661 147.286 26.3901V13.1748C147.286 10.4887 147.609 6.62087 144.321 6.62087C143.189 6.62087 142.111 7.37296 141.571 8.55481C140.925 10.059 140.817 11.5094 140.817 13.1748V26.2826C140.763 26.7661 140.332 27.1421 139.846 27.1421ZM76.5059 15.5385C76.5059 17.365 76.5598 18.9229 75.6434 20.5882C74.8887 21.9312 73.7027 22.7371 72.3551 22.7371C70.5222 22.7371 69.4441 21.3403 69.4441 19.2989C69.4441 15.2699 73.0559 14.5178 76.5059 14.5178V15.5385ZM81.3036 27.0884C80.9802 27.357 80.5489 27.4107 80.1716 27.1959C78.6083 25.9066 78.2848 25.2619 77.4223 24.0264C74.8348 26.6587 72.948 27.4645 69.6058 27.4645C65.6167 27.4645 62.4901 24.9933 62.4901 20.1048C62.4901 16.2369 64.5925 13.6583 67.5574 12.369C70.1449 11.2408 73.7567 11.026 76.5059 10.7036V10.1127C76.5059 8.98458 76.6137 7.64156 75.9129 6.67459C75.3199 5.81506 74.2418 5.43901 73.2715 5.43901C71.4387 5.43901 69.8214 6.35227 69.4441 8.28621C69.3363 8.71597 69.0668 9.14573 68.6355 9.14573L64.0534 8.66224C63.6761 8.5548 63.2448 8.28621 63.3526 7.69528C64.4308 2.10833 69.4441 0.442993 73.9723 0.442993C76.2903 0.442993 79.3091 1.03392 81.1419 2.8067C83.4599 4.95552 83.2443 7.85644 83.2443 10.9722V18.332C83.2443 20.5345 84.1607 21.5015 85.0232 22.7371C85.3466 23.1668 85.4005 23.704 85.0232 23.9726C83.9989 24.7784 82.2739 26.2826 81.3036 27.0884ZM14.2435 15.5385C14.2435 17.365 14.2974 18.9229 13.381 20.5882C12.6263 21.9312 11.4404 22.7371 10.0927 22.7371C8.25985 22.7371 7.18172 21.3403 7.18172 19.2989C7.18172 15.2699 10.7935 14.5178 14.2435 14.5178V15.5385ZM18.9873 27.0884C18.6639 27.357 18.2326 27.4107 17.8553 27.1959C16.292 25.9066 15.9685 25.2619 15.106 24.0264C12.5185 26.6587 10.6318 27.4645 7.28953 27.4645C3.30042 27.4645 0.173828 24.9933 0.173828 20.1048C0.173828 16.2369 2.27619 13.6583 5.24107 12.369C7.82859 11.2408 11.4404 11.026 14.1896 10.7036V10.1127C14.1896 8.98458 14.2974 7.64156 13.5966 6.67459C13.0036 5.81506 11.9255 5.43901 10.9552 5.43901C9.12236 5.43901 7.50515 6.35227 7.12781 8.28621C7.01999 8.71597 6.75046 9.14573 6.3192 9.14573L1.73712 8.66224C1.35978 8.5548 0.928527 8.28621 1.03634 7.69528C2.11448 2.10833 7.12781 0.442993 11.656 0.442993C13.974 0.442993 16.9928 1.03392 18.8256 2.8067C21.1436 4.95552 20.928 7.85644 20.928 10.9722V18.332C20.928 20.5345 21.8444 21.5015 22.7069 22.7371C23.0303 23.1668 23.0842 23.704 22.7069 23.9726C21.6827 24.7784 19.9576 26.2826 18.9873 27.0884Z" fill="#CDD2D8"/>
</g>
<defs>
<clipPath id="clip0_37_2126">
<rect width="153.641" height="46.0923" fill="white" transform="matrix(-1 0 0 -1 153.812 46.5353)"/>
</clipPath>
</defs>
</svg>
