<svg width="194" height="40" viewBox="0 0 194 40" fill="none" xmlns="http://www.w3.org/2000/svg">
<path d="M100.1 19.3434C98.5038 19.3434 97.3528 19.8689 96.1858 20.4042V32.5178C97.3036 32.6247 97.9444 32.6247 99.005 32.6247C102.837 32.6247 103.363 30.8632 103.363 28.4039V22.6184C103.363 20.8021 102.762 19.3434 100.1 19.3434ZM74.6485 18.6823C71.9895 18.6823 71.3826 20.1473 71.3826 21.9618V22.9812H77.9108V21.9618C77.9108 20.1473 77.304 18.6823 74.6485 18.6823ZM25.343 31.2908C25.343 32.7262 26.0178 33.4717 27.5071 33.4717C29.1047 33.4717 30.0507 32.9489 31.2169 32.4118V29.5383H27.7237C26.0697 29.5383 25.343 29.8473 25.343 31.2908ZM124.859 19.3434C122.195 19.3434 121.273 20.8021 121.273 22.6184V29.2464C121.273 31.0671 122.195 32.5304 124.859 32.5304C127.515 32.5304 128.445 31.0671 128.445 29.2464V22.6184C128.444 20.8021 127.514 19.3434 124.859 19.3434ZM12.2903 38.7228H4.46087V19.7036H0.548828V13.1501H4.46176V9.21402C4.46176 3.86684 6.66973 0.687988 12.9455 0.687988H18.1705V7.2433H14.9046C12.4613 7.2433 12.3002 8.15949 12.3002 9.86883L12.2903 13.1492H18.2063L17.5144 19.7027H12.2903V38.7228ZM39.0481 38.7722H32.5227L32.2407 37.1158C29.2613 38.7722 26.6023 39.0408 24.8481 39.0408C20.0625 39.0408 17.5153 35.8323 17.5153 31.395C17.5153 26.1601 20.4876 24.2918 25.8048 24.2918H31.2169V23.16C31.2169 20.4877 30.9117 19.7036 26.8171 19.7036H20.1225L20.7767 13.1501H28.0942C37.0782 13.1501 39.0481 15.9984 39.0481 23.213V38.7722ZM61.2378 20.1841C57.1772 19.4853 56.011 19.3317 54.0573 19.3317C50.548 19.3317 49.4874 20.1087 49.4874 23.0998V28.7578C49.4874 31.7489 50.548 32.5295 54.0573 32.5295C56.011 32.5295 57.1772 32.3732 61.2378 31.6717V38.0644C57.6811 38.8647 55.364 39.0749 53.4057 39.0749C44.9999 39.0749 41.6588 34.6385 41.6588 28.2296V23.6388C41.6588 17.2245 44.9999 12.78 53.4057 12.78C55.364 12.78 57.6811 12.9911 61.2378 13.795V20.1841ZM85.7393 28.2296H71.3818V28.7578C71.3818 31.7489 72.4432 32.5295 75.9516 32.5295C79.1056 32.5295 81.0307 32.3732 85.0842 31.6717V38.0644C81.1748 38.8647 79.1378 39.0749 75.3027 39.0749C66.896 39.0749 63.5532 34.6385 63.5532 28.2296V22.9803C63.5532 17.3727 66.0332 12.78 74.6476 12.78C83.262 12.78 85.7393 17.3197 85.7393 22.9803V28.2296ZM111.19 28.3509C111.19 34.5451 109.426 39.0632 98.7401 39.0632C94.8809 39.0632 92.6174 38.7228 88.3581 38.0653V2.65692L96.1849 1.34639V13.7321C97.8764 13.1016 100.066 12.7809 102.058 12.7809C109.886 12.7809 111.19 16.3029 111.19 21.9626V28.3509H111.19ZM136.28 28.4856C136.28 33.8292 134.082 39.012 124.885 39.012C115.683 39.012 113.444 33.8292 113.444 28.4856V23.3262C113.444 17.9799 115.683 12.7962 124.885 12.7962C134.082 12.7962 136.28 17.9799 136.28 23.3262V28.4856ZM161.352 28.4856C161.352 33.8292 159.152 39.012 149.956 39.012C140.755 39.012 138.516 33.8292 138.516 28.4856V23.3262C138.516 17.9799 140.755 12.7962 149.956 12.7962C159.152 12.7962 161.352 17.9799 161.352 23.3262V28.4856ZM187.083 38.7228H178.599L171.424 26.7017V38.7228H163.594V2.65602L171.424 1.3455V24.5639L178.599 13.1501H187.083L179.25 25.6059L187.083 38.7228ZM149.93 19.3434C147.271 19.3434 146.348 20.8021 146.348 22.6184V29.2464C146.348 31.0671 147.271 32.5304 149.93 32.5304C152.585 32.5304 153.525 31.0671 153.525 29.2464V22.6184C153.525 20.8021 152.585 19.3434 149.93 19.3434ZM191.552 34.237C192.87 34.237 193.92 35.3158 193.92 36.6631C193.92 38.0311 192.869 39.0982 191.542 39.0982C190.221 39.0982 189.149 38.0311 189.149 36.6631C189.149 35.3158 190.221 34.237 191.542 34.237H191.552ZM191.542 34.6143C190.479 34.6143 189.61 35.5314 189.61 36.6631C189.61 37.8156 190.48 38.721 191.552 38.721C192.624 38.7318 193.48 37.8156 193.48 36.6739C193.48 35.5323 192.624 34.6143 191.552 34.6143H191.542ZM191.091 38.0752H190.662V35.3679C190.887 35.3364 191.102 35.305 191.424 35.305C191.833 35.305 192.099 35.3912 192.263 35.5089C192.421 35.6284 192.506 35.8107 192.506 36.0685C192.506 36.426 192.272 36.6407 191.983 36.7278V36.7485C192.218 36.7925 192.378 37.0063 192.433 37.4042C192.496 37.8255 192.561 37.9862 192.603 38.0743H192.153C192.089 37.9862 192.024 37.7392 191.97 37.3826C191.908 37.0386 191.734 36.9093 191.39 36.9093H191.092V38.0752H191.091ZM191.091 36.5769H191.403C191.756 36.5769 192.055 36.4467 192.055 36.1116C192.055 35.8745 191.885 35.6382 191.403 35.6382C191.262 35.6382 191.165 35.649 191.091 35.6589V36.5769Z" fill="#CDD2D8"/>
</svg>
