<svg width="169" height="56" viewBox="0 0 169 56" fill="none" xmlns="http://www.w3.org/2000/svg">
<g clip-path="url(#clip0_37_2113)">
<path d="M20.7261 0.925781H22.2228C27.4187 1.03825 32.53 3.11896 36.201 6.80237C34.8455 8.18014 33.4618 9.50167 32.1346 10.8794C30.0732 9.02367 27.5882 7.58967 24.8772 7.08355C20.8673 6.24002 16.5468 6.9992 13.1864 9.27673C9.51534 11.6667 7.03033 15.7157 6.49379 20.0458C5.90078 24.3197 7.11505 28.8185 9.91069 32.1364C12.5934 35.3699 16.688 37.3944 20.9238 37.535C24.8772 37.7599 29.0001 36.5509 31.8805 33.7953C34.1396 31.8552 35.1844 28.9029 35.5233 26.0349C30.8356 26.0349 26.148 26.063 21.4604 26.0349V20.2426H41.1993C42.2159 26.4566 40.7475 33.4579 36.0033 37.9005C32.8406 41.0497 28.4636 42.9055 24.0018 43.271C19.6813 43.6928 15.2196 42.8773 11.3791 40.7966C6.77618 38.3504 3.10514 34.2171 1.29785 29.3527C-0.396475 24.882 -0.424713 19.8209 1.15666 15.322C2.59684 11.2168 5.36424 7.58967 8.92233 5.05908C12.3392 2.55661 16.4903 1.17884 20.7261 0.925781Z" fill="#CDD2D8"/>
<path d="M133.965 2.38672H140.008V42.5388C138.003 42.5388 135.97 42.5669 133.965 42.5106C133.993 29.1547 133.965 15.7707 133.965 2.38672Z" fill="#CDD2D8"/>
<path d="M54.6427 16.305C58.3702 15.602 62.4083 16.3893 65.4864 18.6106C68.282 20.5789 70.2305 23.6718 70.8235 27.0459C71.586 30.9543 70.6258 35.2282 68.0843 38.3211C65.3452 41.7796 60.8552 43.6353 56.4782 43.3542C52.4683 43.1292 48.5713 41.1329 46.1993 37.8712C43.5166 34.2721 42.8671 29.3234 44.3355 25.1058C45.8039 20.5789 49.955 17.1204 54.6427 16.305ZM55.4898 21.6473C53.9649 22.041 52.553 22.9126 51.5364 24.1498C48.7972 27.4114 48.9667 32.7257 51.9882 35.7624C53.7108 37.5057 56.3088 38.3211 58.7091 37.8431C60.9399 37.4494 62.8884 35.9592 63.9615 33.991C65.8252 30.645 65.2887 26.0337 62.4366 23.4187C60.6011 21.7317 57.9184 21.0287 55.4898 21.6473Z" fill="#CDD2D8"/>
<path d="M84.5752 16.305C88.8392 15.4895 93.4986 16.6705 96.6896 19.651C101.886 24.2904 102.45 32.9787 98.0168 38.3211C95.3342 41.6952 90.9854 43.551 86.6931 43.3542C82.5985 43.2417 78.5603 41.2172 76.1318 37.8712C73.3926 34.1878 72.7996 29.1266 74.3527 24.8246C75.9059 20.4383 79.9723 17.0923 84.5752 16.305ZM85.4223 21.6473C83.8975 22.041 82.4855 22.9126 81.4689 24.1217C78.758 27.3271 78.871 32.557 81.7795 35.6218C83.5021 37.4494 86.1848 38.3492 88.6698 37.8431C90.8724 37.4213 92.8491 35.9592 93.9222 33.991C95.7577 30.6169 95.2212 26.0056 92.3408 23.3906C90.5053 21.7036 87.8226 21.0287 85.4223 21.6473Z" fill="#CDD2D8"/>
<path d="M109.963 17.9358C113.21 15.9113 117.531 15.349 121.032 17.0923C122.134 17.5703 123.037 18.3857 123.913 19.2011C123.941 18.4419 123.913 17.6546 123.941 16.8673C125.833 16.8955 127.725 16.8673 129.645 16.8955V41.6952C129.617 45.4349 128.657 49.3995 125.946 52.1269C122.981 55.1355 118.434 56.0633 114.34 55.4448C109.963 54.798 106.15 51.6208 104.456 47.5999C106.15 46.7845 107.929 46.1378 109.68 45.3786C110.669 47.6843 112.674 49.6525 115.187 50.1024C117.7 50.5523 120.609 49.9337 122.246 47.853C123.997 45.716 123.997 42.7918 123.913 40.1769C122.614 41.4422 121.117 42.5669 119.31 42.9886C115.384 44.0852 111.064 42.7356 108.042 40.0925C104.993 37.4495 103.185 33.3724 103.355 29.3235C103.439 24.7403 106.037 20.3258 109.963 17.9358ZM115.808 21.5349C114.085 21.816 112.476 22.772 111.375 24.0936C108.72 27.2427 108.72 32.2758 111.403 35.3688C112.928 37.1964 115.384 38.2086 117.756 37.9556C119.987 37.7306 122.049 36.3248 123.15 34.3846C125.014 31.0949 124.703 26.6242 122.19 23.7562C120.637 21.9847 118.152 21.1131 115.808 21.5349Z" fill="#CDD2D8"/>
<path d="M147.266 19.3698C150.655 16.2206 155.879 15.1521 160.228 16.8111C164.35 18.3575 166.977 22.2659 168.304 26.2867C162.176 28.8173 156.076 31.3198 149.949 33.8504C150.796 35.4531 152.095 36.9152 153.846 37.5057C156.302 38.3773 159.239 38.068 161.301 36.4372C162.12 35.8186 162.769 35.0032 163.39 34.2159C164.943 35.2563 166.497 36.2685 168.05 37.3089C165.847 40.5986 162.148 42.9043 158.166 43.2698C153.761 43.8041 149.073 42.117 146.221 38.6866C141.533 33.288 141.985 24.2341 147.266 19.3698ZM150.288 24.5716C149.327 25.9493 148.932 27.6364 148.96 29.2953C153.055 27.6083 157.15 25.9212 161.244 24.206C160.566 22.6314 158.929 21.6754 157.263 21.4224C154.58 20.9444 151.784 22.3784 150.288 24.5716Z" fill="#CDD2D8"/>
</g>
<defs>
<clipPath id="clip0_37_2113">
<rect width="168.303" height="54.6985" fill="white" transform="translate(0 0.9198)"/>
</clipPath>
</defs>
</svg>
