<svg width="132" height="52" viewBox="0 0 132 52" fill="none" xmlns="http://www.w3.org/2000/svg">
<path d="M104.46 16.8329V0.93103H107.705V14.6006C106.806 15.0521 105.583 15.9048 104.46 16.8329ZM98.8194 21.6235C99.8178 20.4196 100.841 19.2156 102.064 18.1873V0.93103H98.8194V21.6235ZM61.2314 34.2647C61.2314 38.5035 62.9036 42.5417 65.9736 45.6267C69.0186 48.6867 73.0369 50.3923 77.2799 50.3923C79.077 50.3923 80.9239 50.016 82.2218 49.3639V46.1033C80.6993 46.7554 78.8523 47.1316 77.2799 47.1316C70.3414 47.1316 64.501 41.2625 64.501 34.2898V31.3552C64.501 24.3825 70.3663 18.5133 77.2799 18.5133C80.7243 18.5133 83.944 19.8427 86.34 22.2505C88.7361 24.6584 90.0589 27.8939 90.0589 31.3552V50.4173H93.3035V30.7282C93.1039 26.5646 91.3318 22.6769 88.3367 19.7674C85.3167 16.8579 81.3982 15.2527 77.2799 15.2527C73.0619 15.2527 69.0435 16.9332 65.9736 20.0182C62.9286 23.0782 61.2314 27.1164 61.2314 31.3803V34.2647ZM109.801 26.4392C111.274 24.9594 113.171 24.1317 115.043 24.1317C119.061 24.1317 122.181 27.292 122.181 31.305V34.2396C122.181 38.2778 119.036 41.413 115.043 41.413C113.096 41.413 111.224 40.3345 109.751 38.4032C108.454 36.6976 107.605 34.365 107.48 32.2832L104.859 35.5439C105.384 38.0019 106.657 40.3846 108.479 42.04C110.35 43.7456 112.697 44.6987 115.043 44.6987C120.783 44.6987 125.451 40.0084 125.451 34.2647V31.3301C125.451 28.5962 124.352 25.9877 122.356 24.0062C120.359 21.9997 117.763 20.8961 115.043 20.8961C113.321 20.8961 110.6 21.5232 107.355 24.4577C106.482 25.3356 104.435 27.3923 103.187 28.847C101.091 31.1546 98.0707 34.5908 95.475 38.0771V43.1687C98.3452 39.4566 99.9925 37.3748 102.713 34.2396C105.109 31.3803 108.104 27.9441 109.801 26.4392ZM33.1277 20.2941V16.4316C30.1826 14.8514 26.9878 14.1491 22.7448 14.1491C18.402 14.1491 14.2838 15.7543 11.1639 18.6388C8.01911 21.5482 6.29695 25.3607 6.29695 29.4239V30.4773C6.29695 38.9048 13.0109 45.7521 21.2972 45.7521C28.0112 45.7521 30.7816 43.5449 31.4804 42.8427V33.0357H20.4985V36.2963H28.4355V41.2123H28.4105C27.3872 41.6136 25.2657 42.4664 21.2972 42.4664C18.1524 42.4664 15.1823 41.2374 12.9859 38.9801C10.7646 36.7227 9.56656 33.7129 9.56656 30.4523V29.3988C9.56656 22.9027 15.6066 17.3847 22.7698 17.3847C27.6867 17.4097 30.6318 18.2374 33.1277 20.2941ZM56.7887 24.1317C58.0117 24.1317 59.06 24.3323 59.9086 24.7336C60.3079 23.7304 60.7322 22.8776 61.3312 21.8743C60.4577 21.2473 58.3362 20.8459 56.7887 20.8459C50.8735 20.8459 46.4058 25.3356 46.4058 31.305V50.3672H49.6505V31.305C49.6505 27.0913 52.5707 24.1317 56.7887 24.1317ZM0.65625 29.4239V30.4773C0.65625 36.1458 2.80271 41.413 6.67133 45.3508C10.54 49.2636 15.7314 51.4206 21.2723 51.4206C25.7399 51.4206 29.6834 50.4173 33.0279 48.4108C35.7734 46.7554 36.9963 45.1 37.0962 44.9495V27.3923H20.4985V30.6529H33.8515V43.9713C32.2791 45.5515 28.5603 48.1851 21.2972 48.1851C16.555 48.1851 12.1623 46.3541 8.91763 43.0433C5.69794 39.7576 3.92586 35.293 3.92586 30.5024V29.449C3.92586 24.9092 5.94753 20.3945 9.49169 17.0586C13.1107 13.6475 17.8279 11.7664 22.7698 11.7664C27.3872 11.7664 30.5819 12.4686 33.1527 14.0488V10.3618C30.4571 9.20801 27.2374 8.70638 22.7448 8.70638C10.7646 8.70638 0.65625 18.1873 0.65625 29.4239ZM87.6379 50.3672V31.305C87.6379 25.4359 83.0704 20.8459 77.23 20.8459C74.5095 20.8459 71.9138 21.9495 69.9171 23.9561C67.9204 25.9626 66.8222 28.5711 66.8222 31.28V34.2145C66.8222 39.883 71.5893 44.6485 77.2051 44.6485C78.7525 44.6485 80.8491 44.2723 82.1469 43.1938V39.8078C80.874 40.8361 79.052 41.4381 77.2051 41.4381C73.2117 41.4381 70.0668 38.2778 70.0668 34.2647V31.3301C70.0668 27.292 73.2117 24.1567 77.2051 24.1567C81.2234 24.1567 84.3433 27.317 84.3433 31.3301V50.3923H87.6379V50.3672ZM56.7887 18.4632C58.9851 18.4632 60.9069 18.9397 62.6291 19.9179C63.4278 18.8896 64.2514 18.087 64.8754 17.4599C63.0534 16.0553 59.9585 15.2026 56.8137 15.2026C52.2961 15.2026 48.2029 16.8329 45.2827 19.8176C42.3875 22.7522 40.7901 26.8405 40.7901 31.3301V50.3923H44.0347V31.3301C44.0098 23.7554 49.2511 18.4632 56.7887 18.4632ZM126.349 19.9681C123.304 16.9081 119.286 15.2026 115.043 15.2026C111.948 15.2026 108.853 16.3563 107.131 17.5101C103.587 19.8678 100.691 22.4512 95.45 29.2483V34.1393C99.8927 28.3203 104.086 23.7554 107.28 21.2222C109.377 19.5417 112.347 18.4883 115.043 18.4883C121.981 18.4883 127.822 24.3825 127.822 31.3301V34.2647C127.822 37.7009 126.474 40.9364 124.028 43.3694C121.607 45.7772 118.412 47.1066 115.043 47.1066C109.352 47.1066 104.335 43.1687 102.988 37.8263L100.691 40.6104C102.364 46.2287 108.404 50.3672 115.043 50.3672C119.286 50.3672 123.279 48.6616 126.349 45.6016C129.394 42.5166 131.091 38.5035 131.091 34.2396V31.305C131.091 27.0662 129.394 23.0281 126.349 19.9681Z" fill="#CDD2D8"/>
</svg>
