<svg width="152" height="41" viewBox="0 0 152 41" fill="none" xmlns="http://www.w3.org/2000/svg">
<g clip-path="url(#clip0_37_2124)">
<path d="M143.28 19.5213L151.375 40.8142C148.99 40.4757 146.605 40.0516 144.177 39.6696L139.616 27.9045L134.93 38.6984C132.63 38.3164 130.371 38.1892 128.071 37.8925L136.294 19.2681L128.836 0.178955H135.739L139.913 10.8444L144.388 0.178955H151.374L143.28 19.5213ZM123.385 0.178955H117.122V37.0893C119.167 37.2167 121.296 37.3006 123.385 37.5539V0.178955ZM111.71 36.6654C106.002 36.2847 100.292 35.9475 94.4553 35.8188V0.179119H100.846V29.8088C104.51 29.8928 108.174 30.1882 111.71 30.3574V36.6654ZM87.637 14.6139V20.9625H78.9032V35.3961H72.5989V0.178955H90.4933V6.52751H78.9045V14.6141H87.6383L87.637 14.6139ZM61.8607 6.52751V35.7348C59.7298 35.7348 57.558 35.7348 55.4692 35.8188V6.52751H48.8651V0.178955H68.5057V6.52751H61.8607ZM41.9636 21.2998C39.1522 21.2998 35.8282 21.2998 33.4423 21.4285V30.8666C37.1916 30.612 40.9409 30.3167 44.7324 30.1895V36.2847L27.0521 37.6826V0.178955H44.7312V6.52751H33.4422V15.0785C35.914 15.0785 39.7056 14.9513 41.9633 14.9513V21.3011L41.9636 21.2998ZM6.55616 17.7442V39.9242C4.25749 40.1789 2.21099 40.4755 0.0390625 40.8142V0.178955H6.13215L14.4395 23.2491V0.178955H20.831V38.1892C18.5731 38.5712 16.2718 38.6984 13.8436 39.0358L6.55616 17.7442Z" fill="#CDD2D8"/>
</g>
<defs>
<clipPath id="clip0_37_2124">
<rect width="151.336" height="40.7149" fill="white" transform="translate(0.0390625 0.138306)"/>
</clipPath>
</defs>
</svg>
