<svg width="296" height="72" viewBox="0 0 296 72" fill="none" xmlns="http://www.w3.org/2000/svg">
<path d="M52.5643 56.6032C50.3934 53.6164 48.6428 50.1816 46.7871 47.0151C45.8552 45.4138 45.0946 45.0792 42.9403 45.0792L41.5326 45.0433V53.3896C41.5326 57.9804 42.1079 58.3316 46.3834 58.8128V60.6989H30.0972V58.8128C34.4667 58.3482 34.9286 57.9804 34.9286 53.3896V31.7439C34.9286 27.225 34.3533 26.7687 30.0972 26.376V24.4899H45.5703C50.2164 24.4899 53.0179 25.0264 55.2441 26.5281C57.4925 28.0132 58.9969 30.4828 58.9969 33.9176C58.9969 38.8181 55.7889 41.5725 51.9559 43.1378C52.8492 44.8276 55.1003 48.4891 56.7707 51.0306C58.7591 54.0561 59.9262 55.5191 61.0628 56.805C61.1762 56.9295 61.284 57.0456 61.3891 57.1563C66.3975 51.1412 69.4091 43.4061 69.4091 34.9685C69.4091 15.8034 53.8724 0.263893 34.7046 0.263893C15.5367 0.263893 0 15.8006 0 34.9685C0 54.1363 15.5367 69.673 34.7046 69.673C43.7976 69.673 52.0748 66.1719 58.2641 60.45C55.3935 59.778 53.9388 58.539 52.5616 56.6059L52.5643 56.6032Z" fill="#092674"/>
<path d="M42.0977 27.2499C41.669 27.6039 41.5391 28.2316 41.5391 29.4651V42.8945H43.4528C46.0247 42.8945 47.8611 42.4852 49.147 41.3872C51.1022 39.8081 51.9208 37.651 51.9208 34.7528C51.9208 28.829 48.3284 26.6912 44.7996 26.6912C43.2565 26.6912 42.4545 26.9153 42.1005 27.2471L42.0977 27.2499Z" fill="#092674"/>
<path d="M59.8431 64.0231C58.2837 64.0231 57.0195 65.2872 57.0195 66.8467C57.0195 68.4061 58.2837 69.6702 59.8431 69.6702C61.4026 69.6702 62.6667 68.4061 62.6667 66.8467C62.6667 65.2872 61.4026 64.0231 59.8431 64.0231Z" fill="#092674"/>
<path d="M73.5434 59.565C73.5434 58.195 72.4327 57.0843 71.0627 57.0843C69.6927 57.0843 68.582 58.195 68.582 59.565C68.582 60.9351 69.6927 62.0457 71.0627 62.0457C72.4327 62.0457 73.5434 60.9351 73.5434 59.565Z" fill="#092674"/>
<path d="M73.374 68.2239C73.374 66.2842 71.8016 64.7117 69.8618 64.7117C67.9221 64.7117 66.3496 66.2842 66.3496 68.2239C66.3496 70.1636 67.9221 71.7361 69.8618 71.7361C71.8016 71.7361 73.374 70.1636 73.374 68.2239Z" fill="#092674"/>
<path d="M103.851 23.7364H103.226C102.312 23.7364 101.754 23.8641 101.552 24.1195C101.364 24.3615 101.27 25.0067 101.27 26.0551V33.3741C101.27 33.9118 101.384 34.2948 101.613 34.5234C101.841 34.7519 102.345 34.8661 103.125 34.8661H103.911L104.072 34.846L104.536 34.8258C104.644 34.8123 104.744 34.8056 104.839 34.8056C105.793 34.8056 106.72 34.3553 107.621 33.4547C108.535 32.5407 108.992 31.3511 108.992 29.886V28.9182C108.992 27.4665 108.535 26.2433 107.621 25.2486C106.707 24.2405 105.45 23.7364 103.851 23.7364ZM102.903 21.0548H104.274C107.715 21.0548 110.403 21.7135 112.339 23.0308C114.275 24.348 115.242 26.203 115.242 28.5956C115.242 29.9532 114.96 31.1428 114.396 32.1643C113.831 33.1859 113.26 33.9588 112.682 34.483C111.364 35.6793 110.706 36.3313 110.706 36.4388C110.706 36.9361 110.948 37.5948 111.432 38.4147C111.929 39.2346 112.494 40.2159 113.125 41.3584C113.757 42.501 114.207 43.2537 114.476 43.6166C115.175 44.5575 115.935 45.2095 116.755 45.5724C118.22 46.2041 118.952 46.6746 118.952 46.9838C118.952 47.844 118.589 48.3817 117.864 48.5968C116.829 48.9059 115.619 49.0605 114.234 49.0605C112.85 49.0605 111.734 48.6304 110.887 47.7701C110.04 46.8964 109.059 45.3035 107.944 42.9916C106.828 40.6662 106.109 39.3019 105.786 38.8986C105.114 38.0249 104.234 37.588 103.145 37.588C102.553 37.588 102.15 37.8838 101.935 38.4752C101.734 39.0532 101.633 40.5049 101.633 42.8303C101.633 43.3948 101.922 44.282 102.5 45.4917L103.246 46.8426C103.609 47.5147 103.79 47.8911 103.79 47.9717C103.79 48.6707 102.695 49.0202 100.504 49.0202C96.6862 49.0202 94.4482 48.9261 93.7895 48.7379C93.1443 48.5497 92.8217 48.1733 92.8217 47.6088C92.8217 47.0442 93.2317 46.5133 94.0517 46.016C94.8716 45.5186 95.3689 44.9339 95.5437 44.2618C95.7184 43.5763 95.8058 40.6259 95.8058 35.4105C95.8058 30.1817 95.705 27.117 95.5034 26.2164C95.3017 25.3158 94.9388 24.6101 94.4146 24.0994C93.4737 23.1853 93.0032 22.6006 93.0032 22.3452C93.0032 21.8076 93.561 21.4581 94.6767 21.2968C95.8058 21.1355 98.5479 21.0548 102.903 21.0548ZM129.941 36.8219V37.0235C129.941 37.1848 130.566 37.2654 131.816 37.2654H134.135C135.976 37.2654 136.897 37.1579 136.897 36.9428C136.897 36.3649 136.326 34.5906 135.183 31.62C134.041 28.6494 133.449 27.1641 133.409 27.1641C133.382 27.1641 132.797 28.6561 131.655 31.6401C130.512 34.6107 129.941 36.338 129.941 36.8219ZM133.913 20.9742H134.498C135.492 20.9742 136.608 22.0361 137.845 24.1598C138.275 24.8991 138.92 26.4315 139.78 28.7569C140.64 31.0823 141.38 33.0112 141.998 34.5435C142.616 36.0759 143.288 37.9039 144.014 40.0277C144.754 42.138 145.284 43.5427 145.607 44.2417C145.943 44.9272 146.535 45.5858 147.381 46.2176C148.228 46.8493 148.652 47.4004 148.652 47.8709C148.652 48.3279 148.363 48.6304 147.785 48.7782C146.844 49.0067 144.512 49.121 140.788 49.121C139.095 49.121 138.248 48.7581 138.248 48.0322C138.248 47.844 138.382 47.387 138.651 46.6612C138.92 45.9219 139.054 45.3775 139.054 45.028C139.054 43.3747 138.658 41.9835 137.865 40.8544C137.542 40.3974 136.527 40.1688 134.82 40.1688C131.688 40.1688 129.914 40.2697 129.497 40.4713C129.094 40.6729 128.677 41.1837 128.247 42.0036C127.83 42.8236 127.622 43.583 127.622 44.282C127.622 44.9809 127.81 45.7337 128.187 46.5402C128.577 47.3467 128.771 47.9784 128.771 48.4355C128.771 49 128.167 49.2823 126.957 49.2823C124.08 49.2823 122.158 49.1479 121.19 48.879C120.572 48.7043 120.263 48.2674 120.263 47.5685C120.263 47.4744 120.874 46.8897 122.098 45.8143C122.77 45.2229 123.307 44.45 123.711 43.4956C126.614 36.5732 128.456 31.5595 129.235 28.4545C130.028 25.336 130.7 23.313 131.251 22.3856C131.802 21.4446 132.69 20.9742 133.913 20.9742ZM165.528 43.7981C165.528 44.8331 165.756 45.6665 166.213 46.2982C166.401 46.5536 166.704 46.8964 167.12 47.3265C167.537 47.7566 167.745 48.1061 167.745 48.375C167.745 49.1546 167.107 49.5444 165.83 49.5444C165.44 49.5444 164.99 49.5242 164.479 49.4839L163.209 49.3629C162.389 49.3092 161.334 49.2823 160.043 49.2823C158.753 49.2823 157.886 49.2419 157.442 49.1613C157.012 49.0806 156.797 48.8521 156.797 48.4758C156.797 48.086 157.153 47.5349 157.866 46.8225C158.592 46.0966 159.082 45.4716 159.338 44.9473C159.593 44.4097 159.721 43.2739 159.721 41.5399C159.721 39.7925 159.277 38.1324 158.39 36.5598C155.339 31.1428 153.222 27.6412 152.039 26.0551C151.716 25.6115 151.111 25.0806 150.224 24.4623C149.337 23.844 148.894 23.2458 148.894 22.6678C148.894 22.0898 149.209 21.6866 149.841 21.4581C150.782 21.1086 152.711 20.9339 155.628 20.9339H156.313C158.235 20.9339 159.197 21.4178 159.197 22.3856L159.116 22.8291L159.015 23.2525C158.894 23.8977 158.834 24.3211 158.834 24.5228C158.834 25.4502 159.896 28.0042 162.019 32.1845C162.597 33.327 163.021 33.8983 163.29 33.8983C163.814 33.8983 164.909 32.4063 166.576 29.4223C167.436 27.8899 167.866 26.7944 167.866 26.1358C167.866 25.4771 167.705 24.8185 167.383 24.1598C167.073 23.4878 166.919 22.9837 166.919 22.6477C166.919 22.0562 167.262 21.6597 167.947 21.4581C168.982 21.1489 170.656 20.9943 172.968 20.9943C174.648 20.9943 175.488 21.3371 175.488 22.0226C175.488 22.8426 175.165 23.481 174.52 23.9381C173.337 24.7714 172.578 25.4435 172.242 25.9543C170.736 28.2125 168.955 31.5057 166.899 35.8339C165.985 37.7561 165.528 40.4108 165.528 43.7981ZM190.025 36.0557C188.318 36.0557 187.296 36.3245 186.96 36.8622C186.732 37.2386 186.618 38.3273 186.618 40.1285C186.618 41.9297 186.725 43.2067 186.94 43.9594C187.169 44.6987 187.565 45.4245 188.13 46.1369C188.708 46.8493 188.997 47.4139 188.997 47.8306C188.997 48.2338 188.472 48.5295 187.424 48.7177C186.389 48.8925 183.983 48.9798 180.206 48.9798C179.426 48.9798 178.909 48.879 178.653 48.6774C178.411 48.4623 178.29 48.0255 178.29 47.3668C178.29 47.1249 178.626 46.7284 179.299 46.1773C179.984 45.6127 180.407 45.0414 180.569 44.4634C180.73 43.8855 180.811 40.7065 180.811 34.9266C180.811 29.1333 180.717 25.9476 180.528 25.3696C180.354 24.7782 179.803 24.1935 178.875 23.6155C178.243 23.2122 177.927 22.6141 177.927 21.821L178.391 21.3976C178.942 21.1019 181.416 20.954 185.811 20.954C187.854 20.954 188.876 21.2968 188.876 21.9823C188.876 22.3049 188.634 22.9703 188.15 23.9784C187.666 24.9731 187.343 25.7796 187.182 26.3979C187.034 27.0028 186.96 28.3469 186.96 30.4304C186.96 31.4788 187.209 32.198 187.706 32.5878C188.002 32.8163 189.568 32.9305 192.404 32.9305C195.254 32.9305 196.894 32.7894 197.324 32.5071C197.754 32.2248 197.969 31.2839 197.969 29.6844C197.969 28.0714 197.868 26.9087 197.667 26.1963C197.478 25.4704 197.115 24.711 196.578 23.9179C196.04 23.1248 195.771 22.6409 195.771 22.4662C195.771 21.9554 196.242 21.5858 197.183 21.3573C197.693 21.2363 199.071 21.1758 201.316 21.1758C203.561 21.1758 204.972 21.243 205.55 21.3774C206.303 21.5522 206.679 22.0562 206.679 22.8896C206.679 23.1719 206.323 23.6423 205.611 24.301C204.912 24.9462 204.508 25.4032 204.401 25.672C204.159 26.3038 204.038 28.8644 204.038 33.3539L203.977 38.2534L203.957 39.2212V41.177C203.957 43.6368 204.112 45.149 204.421 45.7135C204.542 45.942 204.952 46.2579 205.651 46.6612C206.363 47.051 206.719 47.5953 206.719 48.2943C206.719 48.8857 205.758 49.1815 203.836 49.1815L202.909 49.1613L200.993 49.1411C198.318 49.1411 196.753 48.9194 196.295 48.4758L196.054 48.0322C196.054 47.5483 196.336 46.8292 196.9 45.8748C197.465 44.9205 197.835 44.0669 198.009 43.3142C198.197 42.548 198.292 41.345 198.292 39.7051C198.292 38.0652 198.043 37.0504 197.546 36.6606C197.062 36.2573 194.555 36.0557 190.025 36.0557ZM218.736 36.8219V37.0235C218.736 37.1848 219.361 37.2654 220.611 37.2654H222.93C224.772 37.2654 225.692 37.1579 225.692 36.9428C225.692 36.3649 225.121 34.5906 223.979 31.62C222.836 28.6494 222.245 27.1641 222.204 27.1641C222.177 27.1641 221.593 28.6561 220.45 31.6401C219.308 34.6107 218.736 36.338 218.736 36.8219ZM222.708 20.9742H223.293C224.288 20.9742 225.403 22.0361 226.64 24.1598C227.07 24.8991 227.715 26.4315 228.576 28.7569C229.436 31.0823 230.175 33.0112 230.793 34.5435C231.412 36.0759 232.084 37.9039 232.81 40.0277C233.549 42.138 234.08 43.5427 234.403 44.2417C234.739 44.9272 235.33 45.5858 236.177 46.2176C237.024 46.8493 237.447 47.4004 237.447 47.8709C237.447 48.3279 237.158 48.6304 236.58 48.7782C235.639 49.0067 233.307 49.121 229.584 49.121C227.89 49.121 227.043 48.7581 227.043 48.0322C227.043 47.844 227.178 47.387 227.446 46.6612C227.715 45.9219 227.85 45.3775 227.85 45.028C227.85 43.3747 227.453 41.9835 226.66 40.8544C226.338 40.3974 225.323 40.1688 223.616 40.1688C220.484 40.1688 218.709 40.2697 218.293 40.4713C217.889 40.6729 217.473 41.1837 217.043 42.0036C216.626 42.8236 216.418 43.583 216.418 44.282C216.418 44.9809 216.606 45.7337 216.982 46.5402C217.372 47.3467 217.567 47.9784 217.567 48.4355C217.567 49 216.962 49.2823 215.752 49.2823C212.876 49.2823 210.954 49.1479 209.986 48.879C209.367 48.7043 209.058 48.2674 209.058 47.5685C209.058 47.4744 209.67 46.8897 210.893 45.8143C211.565 45.2229 212.103 44.45 212.506 43.4956C215.409 36.5732 217.251 31.5595 218.031 28.4545C218.824 25.336 219.496 23.313 220.047 22.3856C220.598 21.4446 221.485 20.9742 222.708 20.9742ZM265.332 42.548C265.305 43.3142 265.291 44.403 265.291 45.8143C265.291 47.2123 265.204 48.0389 265.029 48.2943C264.868 48.5363 264.445 48.6572 263.759 48.6572C263.531 48.6572 262.959 48.4086 262.045 47.9112C261.131 47.4004 260.305 46.688 259.565 45.774C259.256 45.3976 257.267 42.5279 253.597 37.1646C249.928 31.8014 247.764 29.1198 247.105 29.1198C246.836 29.1198 246.702 30.9479 246.702 34.604C246.702 38.2467 246.964 41.5264 247.488 44.4433C247.636 45.2632 247.891 45.9286 248.254 46.4394C248.631 46.9501 248.819 47.3736 248.819 47.7096L248.657 48.1733C248.268 48.6304 246.977 48.8589 244.786 48.8589H243.919C242.185 48.8589 241.157 48.7312 240.834 48.4758C240.512 48.2204 240.35 47.8373 240.35 47.3265C240.35 47.0442 240.72 46.6813 241.459 46.2377C242.212 45.7807 242.662 45.3304 242.81 44.8869C242.891 44.6449 242.931 43.4486 242.931 41.2979L242.972 40.3301L243.032 37.4267C243.072 35.5046 243.093 33.3203 243.093 30.8739C243.093 28.4141 242.998 26.8751 242.81 26.2567C242.636 25.625 242.145 25.0134 241.338 24.422C240.532 23.8171 240.129 23.2727 240.129 22.7888C240.129 22.2915 240.317 21.9151 240.693 21.6597C241.083 21.3909 241.829 21.2565 242.931 21.2565H243.839C246.016 21.2565 247.952 22.1772 249.645 24.0187C251.339 25.8602 253.597 28.8375 256.42 32.9507C259.256 37.0638 260.889 39.1204 261.319 39.1204C261.83 39.1204 262.086 36.4724 262.086 31.1764C262.086 27.238 261.649 24.758 260.775 23.7364C260.278 23.145 260.029 22.735 260.029 22.5065C260.029 21.9017 260.641 21.5992 261.864 21.5992C264.31 21.5992 265.99 21.7068 266.904 21.9218C267.832 22.1234 268.296 22.5536 268.296 23.2122C268.296 23.602 267.892 24.2069 267.086 25.0268C266.293 25.8333 265.856 26.4046 265.775 26.7406C265.695 27.0632 265.654 28.6225 265.654 31.4183L265.392 40.7737L265.372 41.6609L265.332 42.548ZM292.974 24.5429C292.974 25.4435 292.847 26.035 292.591 26.3172C292.336 26.5861 291.946 26.7205 291.422 26.7205L291.059 26.539L290.636 26.2567L290.152 25.9745C289.681 25.7056 288.774 25.336 287.43 24.8655C286.099 24.3951 284.856 24.1598 283.7 24.1598C282.544 24.1598 281.697 24.5765 281.159 25.4099C280.635 26.2433 280.373 27.9571 280.373 30.5513C280.373 31.2906 280.601 31.8821 281.058 32.3256C281.515 32.7692 282.147 32.991 282.954 32.991C283.76 32.991 284.647 32.7087 285.615 32.1442C286.596 31.5796 287.289 31.2974 287.692 31.2974C288.109 31.2974 288.472 31.5729 288.781 32.124C289.09 32.6617 289.244 33.3069 289.244 34.0596C289.244 36.0893 289.023 37.3394 288.579 37.8098L288.035 38.1123C287.242 38.1123 286.61 37.9308 286.139 37.5679C285.104 36.7748 284.345 36.3783 283.861 36.3783C282.329 36.3783 281.3 36.7009 280.776 37.3461C280.521 37.6687 280.393 38.7776 280.393 40.6729C280.393 42.5547 280.776 43.9863 281.542 44.9675C281.946 45.4917 282.833 45.7538 284.204 45.7538C285.575 45.7538 287.322 45.2901 289.446 44.3626C291.583 43.4217 292.806 42.9513 293.116 42.9513C293.694 42.9513 293.983 43.4956 293.983 44.5844V45.3103C293.983 45.6866 293.848 46.2109 293.579 46.8829C293.311 47.555 292.894 48.0792 292.329 48.4556C291.765 48.832 290.837 49.0202 289.547 49.0202H274.929C272.698 49.0202 271.582 48.7312 271.582 48.1532V47.508C271.582 47.051 271.992 46.5939 272.812 46.1369C273.645 45.6799 274.129 45.1893 274.264 44.6651C274.412 44.1274 274.486 41.0358 274.486 35.3903C274.486 29.7449 274.391 26.5457 274.203 25.793C274.015 25.0403 273.545 24.348 272.792 23.7163C272.039 23.0845 271.663 22.4595 271.663 21.8412C271.663 21.3976 272.147 21.1489 273.114 21.0952C274.082 21.0279 277.261 20.9943 282.651 20.9943L287.894 20.9742H288.74C290.098 20.9742 291.052 21.1691 291.603 21.5589C292.517 22.2041 292.974 23.1988 292.974 24.5429Z" fill="#002999"/>
</svg>
