<svg width="149" height="149" viewBox="0 0 149 149" fill="none" xmlns="http://www.w3.org/2000/svg">
<g filter="url(#filter0_d_57_853)">
<circle cx="74.6113" cy="59.5" r="30" fill="#FBFBFB"/>
</g>
<g clip-path="url(#clip0_57_853)">
<path d="M67.1113 54.625C67.1113 56.4176 65.766 57.875 64.1113 57.875C62.4566 57.875 61.1113 56.4176 61.1113 54.625C61.1113 52.8324 62.4566 51.375 64.1113 51.375C65.766 51.375 67.1113 52.8324 67.1113 54.625Z" fill="#092674"/>
<path d="M83.6113 59.5H86.6113C88.266 59.5 89.6113 60.9574 89.6113 62.75V64.375C89.6113 65.2738 88.941 66 88.1113 66H85.0176C84.727 63.593 83.3863 61.5668 81.4973 60.4445C82.041 59.8605 82.7863 59.5 83.6113 59.5Z" fill="#092674"/>
<path d="M65.6113 59.5C66.4363 59.5 67.1816 59.8605 67.7254 60.4445C65.8363 61.5668 64.4957 63.593 64.2004 66H61.1113C60.2816 66 59.6113 65.2738 59.6113 64.375V62.75C59.6113 60.9574 60.9566 59.5 62.6113 59.5H65.6113Z" fill="#092674"/>
<path d="M85.1113 57.875C86.766 57.875 88.1113 56.4176 88.1113 54.625C88.1113 52.8324 86.766 51.375 85.1113 51.375C83.4566 51.375 82.1113 52.8324 82.1113 54.625C82.1113 56.4176 83.4566 57.875 85.1113 57.875Z" fill="#092674"/>
<path d="M78.2113 61.125H77.8223C76.8473 61.6328 75.7645 61.9375 74.6113 61.9375C73.4582 61.9375 72.3801 61.6328 71.4004 61.125H71.0113C68.0301 61.125 65.6113 63.7453 65.6113 66.975V68.4375C65.6113 69.7832 66.6191 70.875 67.8613 70.875H81.3613C82.6035 70.875 83.6113 69.7832 83.6113 68.4375V66.975C83.6113 63.7453 81.1926 61.125 78.2113 61.125Z" fill="#092674"/>
<path d="M74.6113 59.5C77.5129 59.5 79.8613 56.9559 79.8613 53.8125C79.8613 50.6691 77.5129 48.125 74.6113 48.125C71.7098 48.125 69.3613 50.6691 69.3613 53.8125C69.3613 56.9559 71.7098 59.5 74.6113 59.5Z" fill="#092674"/>
<path d="M67.1113 54.625C67.1113 56.4176 65.766 57.875 64.1113 57.875C62.4566 57.875 61.1113 56.4176 61.1113 54.625C61.1113 52.8324 62.4566 51.375 64.1113 51.375C65.766 51.375 67.1113 52.8324 67.1113 54.625Z" fill="#00DDAF"/>
<path d="M83.6113 59.5H86.6113C88.266 59.5 89.6113 60.9574 89.6113 62.75V64.375C89.6113 65.2738 88.941 66 88.1113 66H85.0176C84.727 63.593 83.3863 61.5668 81.4973 60.4445C82.041 59.8605 82.7863 59.5 83.6113 59.5Z" fill="#00DDAF"/>
<path d="M65.6113 59.5C66.4363 59.5 67.1816 59.8605 67.7254 60.4445C65.8363 61.5668 64.4957 63.593 64.2004 66H61.1113C60.2816 66 59.6113 65.2738 59.6113 64.375V62.75C59.6113 60.9574 60.9566 59.5 62.6113 59.5H65.6113Z" fill="#00DDAF"/>
<path d="M85.1113 57.875C86.766 57.875 88.1113 56.4176 88.1113 54.625C88.1113 52.8324 86.766 51.375 85.1113 51.375C83.4566 51.375 82.1113 52.8324 82.1113 54.625C82.1113 56.4176 83.4566 57.875 85.1113 57.875Z" fill="#00DDAF"/>
</g>
<defs>
<filter id="filter0_d_57_853" x="0.611328" y="0.5" width="148" height="148" filterUnits="userSpaceOnUse" color-interpolation-filters="sRGB">
<feFlood flood-opacity="0" result="BackgroundImageFix"/>
<feColorMatrix in="SourceAlpha" type="matrix" values="0 0 0 0 0 0 0 0 0 0 0 0 0 0 0 0 0 0 127 0" result="hardAlpha"/>
<feOffset dy="15"/>
<feGaussianBlur stdDeviation="22"/>
<feColorMatrix type="matrix" values="0 0 0 0 0.0509804 0 0 0 0 0.0588235 0 0 0 0 0.109804 0 0 0 0.12 0"/>
<feBlend mode="normal" in2="BackgroundImageFix" result="effect1_dropShadow_57_853"/>
<feBlend mode="normal" in="SourceGraphic" in2="effect1_dropShadow_57_853" result="shape"/>
</filter>
<clipPath id="clip0_57_853">
<rect width="30" height="26" fill="white" transform="translate(59.6113 46.5)"/>
</clipPath>
</defs>
</svg>
