<svg width="53" height="52" viewBox="0 0 53 52" fill="none" xmlns="http://www.w3.org/2000/svg">
<circle cx="26.5" cy="26" r="26" fill="#00DDAF" fill-opacity="0.16"/>
<path d="M36 34H16V32H17V25.031C17 20.043 21.03 16 26 16C30.97 16 35 20.043 35 25.031V32H36V34ZM19 32H33V25.031C33 21.148 29.866 18 26 18C22.134 18 19 21.148 19 25.031V32ZM23.5 35H28.5C28.5 35.663 28.2366 36.2989 27.7678 36.7678C27.2989 37.2366 26.663 37.5 26 37.5C25.337 37.5 24.7011 37.2366 24.2322 36.7678C23.7634 36.2989 23.5 35.663 23.5 35Z" fill="#00DDAF"/>
</svg>
