<svg width="56" height="56" viewBox="0 0 56 56" fill="none" xmlns="http://www.w3.org/2000/svg">
<rect opacity="0.1" x="3.00149" y="2.88528" width="50.7107" height="50.7107" rx="16.6621" fill="#0C2568" stroke="white" stroke-width="4.34663"/>
<path d="M23.8177 20.0324L18.1706 18.5325L19.1976 14.7539C19.2805 14.4564 19.4776 14.2037 19.7459 14.0509C20.0142 13.8981 20.3321 13.8574 20.6302 13.9379L24.0148 14.8466C24.1623 14.8856 24.3006 14.9534 24.4219 15.046C24.5431 15.1386 24.6449 15.2542 24.7213 15.3863C24.7978 15.5183 24.8474 15.6641 24.8674 15.8154C24.8874 15.9666 24.8773 16.1203 24.8378 16.2677L23.8177 20.0324ZM13.3395 37.0851C13.2751 36.8772 13.2711 36.6554 13.3279 36.4453L17.5447 20.8531L23.1895 22.3529L18.9727 37.9452C18.9162 38.1559 18.8013 38.3464 18.6412 38.4946L15.2636 41.6172C15.2199 41.6569 15.167 41.685 15.1097 41.6989C15.0524 41.7128 14.9925 41.7122 14.9355 41.6969C14.8786 41.6817 14.8263 41.6524 14.7836 41.6118C14.7408 41.5711 14.709 41.5204 14.691 41.4642L13.3395 37.0851ZM34.1523 23.169C28.9363 23.169 27.1977 21.4303 27.1977 16.2143C32.4136 16.2143 34.1523 17.953 34.1523 23.169ZM30.9068 41.6775C27.7309 42.1643 23.6601 37.7226 22.7467 32.8683L24.8076 25.2553C25.7326 24.444 26.901 24.0197 28.0971 24.0197C29.3937 24.0144 30.6602 24.4104 31.7228 25.1533C32.0969 25.4044 32.5382 25.5365 32.9887 25.5324C33.4392 25.5282 33.8779 25.388 34.2473 25.1302C35.2263 24.4049 36.4135 24.0154 37.6319 24.0197C39.4169 24.0197 41.4407 25.1533 42.3842 26.8039C45.945 33.0538 39.6163 42.3567 35.0958 41.6798C34.8887 41.6394 34.6892 41.5667 34.5047 41.4642C34.0376 41.2248 33.5203 41.0999 32.9955 41.0999C32.4707 41.0999 31.9534 41.2248 31.4864 41.4642C31.3053 41.5648 31.1098 41.6367 30.9068 41.6775Z" fill="#0C2568"/>
</svg>
