<svg width="56" height="56" viewBox="0 0 56 56" fill="none" xmlns="http://www.w3.org/2000/svg">
<rect opacity="0.1" x="3.00149" y="2.35598" width="50.7107" height="50.7107" rx="16.6621" fill="#0C2568" stroke="white" stroke-width="4.34663"/>
<g clip-path="url(#clip0_557_28209)">
<path d="M10.9707 26.6249V42.0192C10.9707 42.5196 11.3759 42.9248 11.8763 42.9248H16.404V24.8138H12.7818C11.7817 24.8138 10.9707 25.6249 10.9707 26.6249ZM31.3455 23.9083H29.9872V21.6444C29.9872 21.3943 29.7846 21.1917 29.5344 21.1917H28.6289C28.3787 21.1917 28.1761 21.3943 28.1761 21.6444V25.2666C28.1761 25.5168 28.3787 25.7194 28.6289 25.7194H31.3455C31.5957 25.7194 31.7983 25.5168 31.7983 25.2666V24.3611C31.7983 24.1109 31.5957 23.9083 31.3455 23.9083ZM39.1417 20.2884L30.0862 14.2512C29.7887 14.053 29.4392 13.9473 29.0817 13.9473C28.7241 13.9473 28.3746 14.053 28.0771 14.2512L19.0216 20.2884C18.7736 20.4537 18.5702 20.6778 18.4295 20.9406C18.2888 21.2034 18.2151 21.4969 18.2151 21.795V42.9248H25.4595V34.7749C25.4595 34.2745 25.8647 33.8693 26.365 33.8693H31.7983C32.2986 33.8693 32.7038 34.2745 32.7038 34.7749V42.9248H39.9482V21.7955C39.9482 21.19 39.6454 20.624 39.1417 20.2884ZM29.0817 28.436C26.5812 28.436 24.5539 26.4087 24.5539 23.9083C24.5539 21.4079 26.5812 19.3806 29.0817 19.3806C31.5821 19.3806 33.6094 21.4079 33.6094 23.9083C33.6094 26.4087 31.5821 28.436 29.0817 28.436ZM45.3815 24.8138H41.7593V42.9248H46.2871C46.7874 42.9248 47.1926 42.5196 47.1926 42.0192V26.6249C47.1926 25.6249 46.3816 24.8138 45.3815 24.8138Z" fill="#0C2568"/>
</g>
<defs>
<clipPath id="clip0_557_28209">
<rect width="36.2219" height="28.9775" fill="white" transform="translate(10.9702 13.9473)"/>
</clipPath>
</defs>
</svg>
