<svg width="56" height="56" viewBox="0 0 56 56" fill="none" xmlns="http://www.w3.org/2000/svg">
<rect opacity="0.1" x="2.28811" y="2.35598" width="50.7107" height="50.7107" rx="16.6621" fill="#0C2568" stroke="white" stroke-width="4.34663"/>
<g clip-path="url(#clip0_557_28216)">
<path d="M27.3353 12.498L44.4114 19.3285V21.6053H42.1346C42.1346 21.9136 42.013 22.1804 41.7699 22.4057C41.5268 22.631 41.2392 22.7437 40.9072 22.7437H13.7634C13.4314 22.7437 13.1438 22.631 12.9007 22.4057C12.6576 22.1804 12.5361 21.9136 12.5361 21.6053H10.2593V19.3285L27.3353 12.498ZM14.8129 23.8821H19.3665V37.5429H21.6433V23.8821H26.1969V37.5429H28.4737V23.8821H33.0273V37.5429H35.3041V23.8821H39.8577V37.5429H40.9072C41.2392 37.5429 41.5268 37.6556 41.7699 37.8809C42.013 38.1062 42.1346 38.373 42.1346 38.6813V39.8197H12.5361V38.6813C12.5361 38.373 12.6576 38.1062 12.9007 37.8809C13.1438 37.6556 13.4314 37.5429 13.7634 37.5429H14.8129V23.8821ZM43.184 40.9581C43.516 40.9581 43.8036 41.0708 44.0467 41.2961C44.2898 41.5214 44.4114 41.7882 44.4114 42.0965V44.3733H10.2593V42.0965C10.2593 41.7882 10.3808 41.5214 10.6239 41.2961C10.867 41.0708 11.1546 40.9581 11.4866 40.9581H43.184Z" fill="#0C2568"/>
</g>
<defs>
<clipPath id="clip0_557_28216">
<rect width="34.1597" height="31.8753" fill="white" transform="translate(10.2568 12.498)"/>
</clipPath>
</defs>
</svg>
