<svg width="53" height="54" viewBox="0 0 53 54" fill="none" xmlns="http://www.w3.org/2000/svg">
<g id="bi:filetype-pdf">
<path id="Vector" fill-rule="evenodd" clip-rule="evenodd" d="M47.125 16.2188V44.125C47.125 45.6831 46.506 47.1775 45.4043 48.2793C44.3025 49.381 42.8081 50 41.25 50H38.3125V47.0625H41.25C42.0291 47.0625 42.7762 46.753 43.3271 46.2021C43.878 45.6512 44.1875 44.9041 44.1875 44.125V16.2188H38.3125C37.1439 16.2188 36.0231 15.7545 35.1968 14.9282C34.3705 14.1019 33.9062 12.9811 33.9062 11.8125V5.9375H17.75C16.9709 5.9375 16.2238 6.24699 15.6729 6.79787C15.122 7.34876 14.8125 8.09593 14.8125 8.875V35.3125H11.875V8.875C11.875 7.31685 12.494 5.82252 13.5957 4.72075C14.6975 3.61897 16.1919 3 17.75 3L33.9062 3L47.125 16.2188Z" fill="#838E9E"/>
</g>
</svg>
