<svg width="31" height="30" viewBox="0 0 31 30" fill="none" xmlns="http://www.w3.org/2000/svg">
<path d="M15.5 18.75C13.2 18.75 13 17.675 13 17.5H10.5C10.5 18.65 11.325 20.6875 14.25 21.15V22.5H16.75V21.15C19.25 20.725 20.5 19.1125 20.5 17.5C20.5 16.1 19.85 13.75 15.5 13.75C13 13.75 13 12.9625 13 12.5C13 12.0375 13.875 11.25 15.5 11.25C17.125 11.25 17.2375 12.05 17.25 12.5H19.75C19.7331 11.6484 19.4268 10.828 18.8816 10.1737C18.3363 9.51938 17.5845 9.07018 16.75 8.9V7.5H14.25V8.8625C11.75 9.275 10.5 10.8875 10.5 12.5C10.5 13.9 11.15 16.25 15.5 16.25C18 16.25 18 17.1 18 17.5C18 17.9 17.225 18.75 15.5 18.75Z" fill="#092674"/>
<path d="M6.75 2.5H3V5H5.5V26.25C5.5 26.5815 5.6317 26.8995 5.86612 27.1339C6.10054 27.3683 6.41848 27.5 6.75 27.5H24.25C24.5815 27.5 24.8995 27.3683 25.1339 27.1339C25.3683 26.8995 25.5 26.5815 25.5 26.25V5H28V2.5H6.75ZM23 25H8V5H23V25Z" fill="#092674"/>
</svg>
