<svg width="70" height="71" viewBox="0 0 70 71" fill="none" xmlns="http://www.w3.org/2000/svg">
<g id="Group 177">
<circle id="Ellipse 5" cx="35" cy="35.5" r="35" fill="#FF8800" fill-opacity="0.08"/>
<g id="Iconly/Light-Outline/Wallet">
<g id="Wallet">
<path id="Combined-Shape" fill-rule="evenodd" clip-rule="evenodd" d="M39.317 25.5C43.0023 25.5 46 28.1657 46 31.4439V38.5561C46 41.8333 43.0023 44.5 39.317 44.5H29.6841C25.9988 44.5 23 41.8333 23 38.5561V31.4439C23 28.1657 25.9988 25.5 29.6841 25.5H39.317ZM39.317 26.9865H29.6841C26.9204 26.9865 24.6716 28.9863 24.6716 31.4439V38.5561C24.6716 41.0137 26.9204 43.0135 29.6841 43.0135H39.317C42.0807 43.0135 44.3284 41.0137 44.3284 38.5561V38.2786L40.6532 38.2792C38.5392 38.2792 36.8186 36.7502 36.8175 34.8713C36.8175 32.9904 38.5381 31.4603 40.6532 31.4593L44.3284 31.4587V31.4439C44.3284 28.9863 42.0807 26.9865 39.317 26.9865ZM44.3284 32.9452L40.6532 32.9458C39.4597 32.9468 38.4891 33.8099 38.4891 34.8703C38.4891 35.9296 39.4608 36.7928 40.6532 36.7928L44.3284 36.7922V32.9452ZM41.1632 34.0656C41.6245 34.0656 41.999 34.3986 41.999 34.8088C41.999 35.2191 41.6245 35.5521 41.1632 35.5521H40.8155C40.3541 35.5521 39.9797 35.2191 39.9797 34.8088C39.9797 34.3986 40.3541 34.0656 40.8155 34.0656H41.1632ZM34.9073 29.9972C35.3687 29.9972 35.7431 30.3301 35.7431 30.7404C35.7431 31.1506 35.3687 31.4836 34.9073 31.4836H28.8907C28.4293 31.4836 28.0549 31.1506 28.0549 30.7404C28.0549 30.3301 28.4293 29.9972 28.8907 29.9972H34.9073Z" fill="#FF8800"/>
</g>
</g>
</g>
</svg>
