<svg width="71" height="71" viewBox="0 0 71 71" fill="none" xmlns="http://www.w3.org/2000/svg">
<circle cx="35.5" cy="35.5" r="35" fill="#6F52ED" fill-opacity="0.08"/>
<path fill-rule="evenodd" clip-rule="evenodd" d="M36 21.5C43.4441 21.5 49.5 27.5559 49.5 35C49.5 42.4441 43.4441 48.5 36 48.5C28.5559 48.5 22.5 42.4441 22.5 35C22.5 27.5559 28.5559 21.5 36 21.5ZM36 23.4756C29.6451 23.4756 24.4756 28.6451 24.4756 35C24.4756 41.3549 29.6451 46.5244 36 46.5244C42.3549 46.5244 47.5244 41.3549 47.5244 35C47.5244 28.6451 42.3549 23.4756 36 23.4756ZM35.4479 30.4053C36.1328 30.6911 40.9388 33.1527 40.9388 34.9939C40.9388 36.7193 36.6135 39.1322 35.5085 39.5932C35.0778 39.7723 34.5865 39.9409 34.1269 39.9409C33.7712 39.9409 33.4341 39.8395 33.1588 39.5655C32.9468 39.3561 32.3804 38.7963 32.3778 35.1098C32.3765 31.1955 32.9652 30.6134 33.1588 30.4197C33.8476 29.7375 34.9698 30.2051 35.4479 30.4053ZM34.5299 32.1504C34.2968 33.4688 34.2928 36.6179 34.5259 37.8691C35.6823 37.4608 38.1874 35.8145 38.8617 34.9992C38.19 34.2076 35.7166 32.5956 34.5299 32.1504Z" fill="#6F52ED"/>
</svg>
