<svg width="71" height="71" viewBox="0 0 71 71" fill="none" xmlns="http://www.w3.org/2000/svg">
<circle cx="35.5" cy="35.5" r="35" fill="#21B8C7" fill-opacity="0.08"/>
<path fill-rule="evenodd" clip-rule="evenodd" d="M38.3257 22.6846C38.38 22.6846 38.4333 22.6891 38.4851 22.6979L38.6581 22.699C38.916 22.699 39.1626 22.8039 39.3421 22.9898L45.7459 29.6616C45.9153 29.8374 46.0103 30.0738 46.0103 30.3178V41.9066C46.0329 45.0788 43.5624 47.6706 40.3852 47.7996L30.2466 47.8009H30.1088C27.0113 47.7308 24.527 45.2257 24.4513 42.1584L24.4509 28.3619C24.5243 25.2251 27.1149 22.699 30.2289 22.699L38.1664 22.6979C38.2182 22.6891 38.2714 22.6846 38.3257 22.6846ZM37.3774 24.595L30.2314 24.5955C28.1364 24.5955 26.3967 26.2922 26.3474 28.3846V41.9066C26.3006 44.0724 28.0075 45.8563 30.1518 45.9044H40.3473C42.4574 45.8171 44.1288 44.0635 44.1138 41.9142L44.1137 31.5133L41.5725 31.5146C39.2588 31.5083 37.3775 29.6219 37.3775 27.3107L37.3774 24.595ZM38.0896 38.6253C38.613 38.6253 39.0378 39.0501 39.0378 39.5735C39.0378 40.097 38.613 40.5218 38.0896 40.5218H31.2622C30.7388 40.5218 30.314 40.097 30.314 39.5735C30.314 39.0501 30.7388 38.6253 31.2622 38.6253H38.0896ZM35.5041 33.8815C36.0276 33.8815 36.4524 34.3064 36.4524 34.8298C36.4524 35.3532 36.0276 35.778 35.5041 35.778H31.2611C30.7376 35.778 30.3128 35.3532 30.3128 34.8298C30.3128 34.3064 30.7376 33.8815 31.2611 33.8815H35.5041ZM39.2738 25.6583L39.274 27.3107C39.274 28.5801 40.3069 29.6143 41.575 29.6181L43.0744 29.6169L39.2738 25.6583Z" fill="#21B8C7"/>
</svg>
