<svg width="41" height="41" viewBox="0 0 41 41" fill="none" xmlns="http://www.w3.org/2000/svg">
<circle opacity="0.25" cx="20.5" cy="20.5" r="20" fill="#00DDAF"/>
<path d="M27 11.5H13C11.3457 11.5 10 12.8457 10 14.5V15.5C10 17.1543 11.3457 18.5 13 18.5V27.5C13 29.1543 14.3457 30.5 16 30.5H24C25.6543 30.5 27 29.1543 27 27.5V18.5C28.6543 18.5 30 17.1543 30 15.5V14.5C30 12.8457 28.6543 11.5 27 11.5ZM25 17.5V27.5C25 28.0513 24.5518 28.5 24 28.5H16C15.4482 28.5 15 28.0513 15 27.5V17.5V16.5H25V17.5ZM28 15.5C28 16.0513 27.5518 16.5 27 16.5V15.5C27 14.9478 26.5527 14.5 26 14.5H14C13.4473 14.5 13 14.9478 13 15.5V16.5C12.4482 16.5 12 16.0513 12 15.5V14.5C12 13.9487 12.4482 13.5 13 13.5H27C27.5518 13.5 28 13.9487 28 14.5V15.5Z" fill="#00DDAF"/>
<path d="M20.667 24.5H18C17.4473 24.5 17 24.9478 17 25.5C17 26.0522 17.4473 26.5 18 26.5H19C19 27.0522 19.4473 27.5 20 27.5C20.5527 27.5 21 27.0522 21 26.5V26.4639C22.1277 26.2889 23 25.2563 23 24C23 22.6216 21.9531 21.5 20.667 21.5H19.333C19.1758 21.5 19 21.2861 19 21C19 20.7139 19.1758 20.5 19.333 20.5H22C22.5527 20.5 23 20.0522 23 19.5C23 18.9478 22.5527 18.5 22 18.5H21C21 17.9478 20.5527 17.5 20 17.5C19.4473 17.5 19 17.9478 19 18.5V18.5361C17.8723 18.7111 17 19.7437 17 21C17 22.3784 18.0469 23.5 19.333 23.5H20.667C20.8242 23.5 21 23.7139 21 24C21 24.2861 20.8242 24.5 20.667 24.5Z" fill="#00DDAF"/>
</svg>
