<svg width="71" height="71" viewBox="0 0 71 71" fill="none" xmlns="http://www.w3.org/2000/svg">
<circle cx="35.5" cy="35.5" r="35" fill="#FFB800" fill-opacity="0.08"/>
<path d="M30.667 34.7742C30.667 35.7046 31.392 36.4659 32.2741 36.4659H34.0866C34.8599 36.4659 35.4883 35.8013 35.4883 34.9917C35.4883 34.1096 35.1016 33.7955 34.5337 33.59L31.6337 32.575C31.0537 32.3696 30.667 32.0555 30.667 31.1734C30.667 30.3638 31.2954 29.6992 32.0687 29.6992H33.8812C34.7754 29.7113 35.5004 30.4605 35.5004 31.3909M33.0837 36.5263V37.4205M33.0837 28.7446V29.6871" stroke="#FFB800" stroke-width="1.67308" stroke-linecap="round" stroke-linejoin="round"/>
<path d="M36.6845 45.021C37.772 46.5556 39.5483 47.5585 41.5783 47.5585C44.877 47.5585 47.5595 44.876 47.5595 41.5773C47.5595 39.5714 46.5687 37.7952 45.0583 36.7077M33.0716 42.7252C35.6322 42.7252 38.0878 41.708 39.8984 39.8974C41.709 38.0868 42.7262 35.6312 42.7262 33.0706C42.7262 30.51 41.709 28.0544 39.8984 26.2438C38.0878 24.4332 35.6322 23.416 33.0716 23.416C30.5111 23.416 28.0554 24.4332 26.2448 26.2438C24.4342 28.0544 23.417 30.51 23.417 33.0706C23.417 35.6312 24.4342 38.0868 26.2448 39.8974C28.0554 41.708 30.5111 42.7252 33.0716 42.7252Z" stroke="#FFB800" stroke-width="1.67308" stroke-linecap="round" stroke-linejoin="round"/>
</svg>
