<svg width="16" height="17" viewBox="0 0 16 17" fill="none" xmlns="http://www.w3.org/2000/svg">
<path d="M16 8.69141C16 10.8131 15.1571 12.848 13.6569 14.3483C12.1566 15.8486 10.1217 16.6914 8 16.6914C5.87827 16.6914 3.84344 15.8486 2.34315 14.3483C0.842855 12.848 0 10.8131 0 8.69141C0 6.56967 0.842855 4.53484 2.34315 3.03455C3.84344 1.53426 5.87827 0.691406 8 0.691406C10.1217 0.691406 12.1566 1.53426 13.6569 3.03455C15.1571 4.53484 16 6.56967 16 8.69141ZM6.79 5.78441C6.71524 5.73117 6.62726 5.69955 6.53572 5.69299C6.44418 5.68644 6.35259 5.7052 6.27101 5.74723C6.18942 5.78927 6.12098 5.85294 6.07317 5.93129C6.02537 6.00964 6.00006 6.09963 6 6.19141V11.1914C6.00006 11.2832 6.02537 11.3732 6.07317 11.4515C6.12098 11.5299 6.18942 11.5935 6.27101 11.6356C6.35259 11.6776 6.44418 11.6964 6.53572 11.6898C6.62726 11.6833 6.71524 11.6516 6.79 11.5984L10.29 9.09841C10.3548 9.05215 10.4076 8.99109 10.4441 8.9203C10.4805 8.84951 10.4996 8.77103 10.4996 8.69141C10.4996 8.61178 10.4805 8.53331 10.4441 8.46251C10.4076 8.39172 10.3548 8.33066 10.29 8.28441L6.79 5.78441Z" fill="white"/>
</svg>
