<svg width="344" height="103" viewBox="0 0 344 103" fill="none" xmlns="http://www.w3.org/2000/svg">
<path d="M190.856 56.5296C193.412 56.5296 195.44 57.6269 196.495 58.8384H196.659V57.1559H201.122V75.6947C201.122 83.3228 196.457 86.4523 190.937 86.4523C185.743 86.4523 182.618 83.0873 181.444 80.3512L185.542 78.7076C186.272 80.39 188.058 82.3833 190.937 82.3833C194.468 82.3833 196.659 80.2735 196.659 76.321V74.8352H196.495C195.44 76.088 193.412 77.1829 190.856 77.1829C185.499 77.1829 180.59 72.6842 180.59 66.8963C180.59 61.0696 185.499 56.5296 190.856 56.5296ZM296.78 57.1389L302.369 70.2976H302.533L307.917 57.1389H313.146L300.223 85.7603H295.322L300.102 75.5296L291.718 57.1389H296.78ZM32.8861 24.4376L59.6028 50.9345L32.8753 77.4416C31.5252 76.7847 30.5957 75.408 30.5957 73.8157V28.0688C30.5957 26.4724 31.5301 25.0925 32.8861 24.4376ZM221.449 56.5296C227.008 56.5296 229.728 60.7952 230.619 63.1016L231.106 64.2743L216.785 69.9845C217.878 72.0578 219.583 73.1139 221.976 73.1139C224.373 73.1139 226.036 71.9801 227.252 70.2588L230.904 72.6065C229.728 74.289 226.887 77.1829 221.976 77.1829C215.891 77.1829 211.347 72.6453 211.347 66.8574C211.347 60.7151 215.931 56.5296 221.449 56.5296ZM116.507 45.1092C121.58 45.1092 125.192 47.0271 127.909 49.5302L124.703 52.6208C122.756 50.8582 120.119 49.4889 116.507 49.4889C109.813 49.4889 104.579 54.6941 104.579 61.1472C104.579 67.6004 109.813 72.8031 116.507 72.8031C120.849 72.8031 123.323 71.1207 124.907 69.5936C126.206 68.3433 127.058 66.5443 127.383 64.08H116.507V59.7003H131.805C131.966 60.482 132.047 61.4216 132.047 62.4364C132.047 65.7237 131.115 69.7902 128.111 72.6842C125.192 75.617 121.456 77.1829 116.507 77.1829C107.337 77.1829 99.6279 69.9845 99.6279 61.1472C99.6279 52.3076 107.337 45.1092 116.507 45.1092ZM144.411 56.5296C150.335 56.5296 155.163 60.8729 155.163 66.8574C155.163 72.8031 150.335 77.1829 144.411 77.1829C138.487 77.1829 133.659 72.8031 133.659 66.8574C133.659 60.8729 138.487 56.5296 144.411 56.5296ZM167.866 56.5296C173.793 56.5296 178.621 60.8729 178.621 66.8574C178.621 72.8031 173.793 77.1829 167.866 77.1829C161.943 77.1829 157.115 72.8031 157.115 66.8574C157.115 60.8729 161.943 56.5296 167.866 56.5296ZM281.832 56.4737C287.22 56.4737 291.393 59.4818 291.393 64.8691V76.5055H286.854V74.1627H286.693C285.6 75.7651 283.857 77.1319 280.699 77.1319C276.566 77.1319 272.879 74.5147 272.879 70.453C272.879 66.0029 277.458 63.6212 281.953 63.6212C284.182 63.6212 286.003 64.3228 286.854 64.7914V64.4782C286.817 61.98 284.343 60.5743 281.913 60.5743C280.173 60.5743 278.513 61.1205 277.619 62.8006L273.448 61.1205C274.906 57.9207 278.43 56.4737 281.832 56.4737ZM209.073 46.2065V76.5565H204.368V46.2065H209.073ZM252.667 46.2041C257.876 46.2041 262.998 49.841 262.998 55.6313C262.998 61.424 257.876 65.0584 252.667 65.0584H246.104V76.5565H241.407V46.2041H252.667ZM270.287 46.2065V76.5565H265.59V46.2065H270.287ZM61.9053 53.2178L68.0787 59.3403L38.8657 76.0676L61.9053 53.2178ZM191.262 60.5986C188.015 60.5986 185.298 63.257 185.298 66.8963C185.298 70.4943 188.015 73.1139 191.262 73.1139C194.468 73.1139 196.984 70.4943 196.984 66.8963C196.984 63.257 194.468 60.5986 191.262 60.5986ZM167.866 60.5986C164.62 60.5986 161.822 63.1405 161.822 66.8574C161.822 70.5331 164.62 73.1139 167.866 73.1139C171.113 73.1139 173.911 70.5331 173.911 66.8574C173.911 63.1405 171.113 60.5986 167.866 60.5986ZM144.411 60.5986C141.164 60.5986 138.364 63.1405 138.364 66.8574C138.364 70.5331 141.164 73.1139 144.411 73.1139C147.657 73.1139 150.455 70.5331 150.455 66.8574C150.455 63.1405 147.657 60.5986 144.411 60.5986ZM282.563 67.2896C280.253 67.2896 277.581 68.1903 277.581 70.5307C277.581 72.3661 279.727 73.109 281.263 73.109C283.981 73.109 286.492 71.1182 286.854 68.3044C285.6 67.7217 284.626 67.2896 282.563 67.2896ZM221.613 60.5209C219.22 60.5209 215.891 62.5529 216.012 66.5443L225.59 62.7108C225.061 61.4216 223.479 60.5209 221.613 60.5209ZM252.791 50.4309H246.104V60.8341H252.791C256.302 60.8341 258.296 57.9838 258.296 55.6313C258.296 53.2326 256.302 50.4309 252.791 50.4309ZM70.9934 44.2045L77.1592 47.7351C78.1309 48.4727 78.7577 49.635 78.7577 50.9423C78.7577 52.2299 78.1499 53.3765 77.2032 54.1155L70.998 57.6687L64.2076 50.9345L70.9934 44.2045ZM38.8828 25.8182L68.0741 42.533L61.9053 48.6509L38.8828 25.8182ZM104.46 18.0771C106.888 18.0771 108.832 18.8139 110.288 20.2874C111.744 21.7609 112.471 23.6744 112.471 26.0277C112.471 28.3811 111.744 30.2972 110.288 31.7681C108.832 33.2416 106.888 33.9783 104.46 33.9783H99.6279V18.0771H104.46ZM116.482 18.0771V33.9783H114.286V18.0771H116.482ZM123.718 18.0771C124.915 18.0771 125.885 18.3993 126.633 19.0437C127.383 19.6906 127.869 20.3959 128.09 21.1595L126.438 21.9028C126.318 21.4233 126.026 20.9768 125.561 20.5633C125.096 20.1549 124.494 19.9494 123.758 19.9494C123.062 19.9494 122.468 20.1574 121.977 20.576C121.483 20.9946 121.236 21.5146 121.236 22.1387C121.236 22.7044 121.464 23.1839 121.915 23.572C122.371 23.9627 123.037 24.3128 123.916 24.6248C124.611 24.8658 125.192 25.0992 125.66 25.3276C126.125 25.5533 126.6 25.8552 127.077 26.2307C127.557 26.6062 127.916 27.0729 128.161 27.6336C128.403 28.1942 128.525 28.8411 128.525 29.5794C128.525 30.3151 128.384 30.9747 128.102 31.5556C127.82 32.1366 127.444 32.5983 126.978 32.9382C126.511 33.2782 126.012 33.5369 125.472 33.7145C124.933 33.8895 124.381 33.9783 123.817 33.9783C122.792 33.9783 121.793 33.6181 120.815 32.8951C119.835 32.1721 119.194 31.1599 118.893 29.8559L120.547 29.1329C120.745 29.9675 121.147 30.6728 121.758 31.2461C122.371 31.8194 123.055 32.1087 123.817 32.1087C124.604 32.1087 125.279 31.8854 125.836 31.4389C126.396 30.9924 126.673 30.3861 126.673 29.62C126.673 28.7701 126.396 28.1156 125.836 27.6539C125.279 27.1947 124.395 26.766 123.187 26.3677C121.939 25.944 120.994 25.3935 120.35 24.7212C119.708 24.0464 119.384 23.1864 119.384 22.1387C119.384 21.0453 119.786 20.0965 120.587 19.2898C121.389 18.4831 122.433 18.0771 123.718 18.0771ZM136.758 18.0771C138.006 18.0771 139.089 18.525 140 19.4208C140.914 20.3166 141.368 21.4456 141.368 22.8078C141.368 24.17 140.914 25.2989 140 26.1921C139.089 27.0905 138.006 27.5384 136.758 27.5384H133.629V33.9783H131.736V18.0771H136.758ZM150.999 18.0771C153.269 18.0771 155.172 18.8484 156.716 20.3933C158.257 21.9383 159.028 23.8156 159.028 26.0277C159.028 28.2526 158.26 30.1324 156.726 31.6698C155.191 33.2097 153.282 33.9783 150.999 33.9783C148.716 33.9783 146.808 33.2097 145.275 31.6698C143.739 30.1324 142.974 28.2526 142.974 26.0277C142.974 23.8029 143.739 21.9205 145.275 20.3832C146.808 18.8458 148.716 18.0771 150.999 18.0771ZM164.517 18.0771L171.601 30.4456H171.683L171.601 27.382V18.0771H173.476V33.9783H171.521L164.111 21.0083H164.029L164.111 24.0745V33.9783H162.238V18.0771H164.517ZM179.21 18.0771V33.9783H177.013V18.0771H179.21ZM188.198 18.0771C189.3 18.0771 190.253 18.4906 191.059 19.3095C191.866 20.1337 192.27 21.1646 192.27 22.4076C192.27 23.1629 192.096 23.8307 191.747 24.4058C191.402 24.9862 190.937 25.4208 190.36 25.7177V25.8051C191.055 26.0728 191.625 26.5313 192.073 27.1832C192.516 27.8352 192.741 28.5905 192.741 29.4491C192.741 30.753 192.317 31.8317 191.472 32.6903C190.628 33.549 189.629 33.9783 188.475 33.9783H183.109V18.0771H188.198ZM197.789 18.0771V32.0251H203.979V33.9783H195.952V18.0771H197.789ZM215.217 18.0771V20.0303H208.956V25.071H214.6V26.9818H208.956V32.0225H215.217V33.9783H207.19V18.0771H215.217ZM226.464 18.0771C227.66 18.0771 228.631 18.3993 229.378 19.0437C230.128 19.6906 230.615 20.3959 230.836 21.1595L229.183 21.9028C229.063 21.4233 228.772 20.9768 228.307 20.5633C227.841 20.1549 227.239 19.9494 226.504 19.9494C225.808 19.9494 225.213 20.1574 224.722 20.576C224.228 20.9946 223.982 21.5146 223.982 22.1387C223.982 22.7044 224.21 23.1839 224.661 23.572C225.117 23.9627 225.782 24.3128 226.661 24.6248C227.357 24.8658 227.938 25.0992 228.405 25.3276C228.871 25.5533 229.346 25.8552 229.823 26.2307C230.302 26.6062 230.662 27.0729 230.906 27.6336C231.148 28.1942 231.271 28.8411 231.271 29.5794C231.271 30.3151 231.13 30.9747 230.848 31.5556C230.565 32.1366 230.189 32.5983 229.724 32.9382C229.256 33.2782 228.758 33.5369 228.217 33.7145C227.679 33.8895 227.127 33.9783 226.563 33.9783C225.538 33.9783 224.539 33.6181 223.561 32.8951C222.581 32.1721 221.939 31.1599 221.638 29.8559L223.293 29.1329C223.49 29.9675 223.892 30.6728 224.503 31.2461C225.117 31.8194 225.801 32.1087 226.563 32.1087C227.35 32.1087 228.025 31.8854 228.582 31.4389C229.141 30.9924 229.418 30.3861 229.418 29.62C229.418 28.7701 229.141 28.1156 228.582 27.6539C228.025 27.1947 227.141 26.766 225.933 26.3677C224.684 25.944 223.74 25.3935 223.096 24.7212C222.454 24.0464 222.129 23.1864 222.129 22.1387C222.129 21.0453 222.531 20.0965 223.333 19.2898C224.134 18.4831 225.178 18.0771 226.464 18.0771ZM236.432 18.0771V27.9409C236.432 29.1722 236.746 30.1651 237.376 30.9272C238.003 31.6867 238.911 32.0678 240.1 32.0678C241.287 32.0678 242.195 31.6867 242.822 30.9272C243.452 30.1651 243.766 29.1722 243.766 27.9409V18.0771H245.719V27.8527C245.719 29.6933 245.213 31.1735 244.201 32.2959C243.192 33.4184 241.823 33.9783 240.1 33.9783C238.431 33.9783 237.08 33.4132 236.04 32.2856C235 31.1553 234.481 29.6777 234.481 27.8527V18.0771H236.432ZM253.669 18.0771C254.846 18.0771 255.868 18.525 256.727 19.4208C257.589 20.3166 258.018 21.4456 258.018 22.8078C258.018 23.9182 257.703 24.8988 257.066 25.7495C256.433 26.6028 255.643 27.1382 254.697 27.3608L254.658 27.427L258.562 33.8909V33.9783H256.447L252.698 27.5384H250.717V33.9783H248.93V18.0771H253.669ZM150.999 19.9468C149.325 19.9468 147.912 20.5176 146.756 21.6592C145.603 22.7983 145.022 24.257 145.022 26.0277C145.022 27.7985 145.603 29.2547 146.756 30.3963C147.912 31.5379 149.325 32.1061 150.999 32.1061C152.671 32.1061 154.087 31.5379 155.243 30.3963C156.398 29.2547 156.979 27.7985 156.979 26.0277C156.979 24.257 156.398 22.7983 155.243 21.6592C154.087 20.5176 152.671 19.9468 150.999 19.9468ZM104.46 20.033H101.658V32.0251H104.46C106.285 32.0251 107.731 31.5004 108.797 30.4483C109.864 29.3961 110.396 27.9226 110.396 26.0277C110.396 24.1488 109.864 22.6805 108.797 21.6205C107.731 20.563 106.285 20.033 104.46 20.033ZM188.475 26.8043H184.917V32.0251H188.555C189.249 32.0251 189.812 31.7495 190.243 31.2009C190.677 30.655 190.893 30.056 190.893 29.4041C190.893 28.7521 190.67 28.1585 190.224 27.6152C189.779 27.0772 189.195 26.8043 188.475 26.8043ZM253.708 20.0303H250.717V25.6276H253.59C254.303 25.6276 254.915 25.3599 255.425 24.8272C255.937 24.2972 256.192 23.6214 256.192 22.8078C256.192 22.1108 255.967 21.4747 255.513 20.897C255.061 20.3192 254.459 20.0303 253.708 20.0303ZM136.8 20.0303H133.629V25.5825H136.8C137.596 25.5825 138.234 25.2963 138.713 24.7185C139.195 24.1408 139.433 23.5048 139.433 22.8078C139.433 22.1108 139.195 21.4747 138.713 20.897C138.234 20.3192 137.596 20.0303 136.8 20.0303ZM188.28 20.033H184.917V24.8961H188.198C188.881 24.8961 189.429 24.6417 189.842 24.1302C190.253 23.6187 190.459 23.0595 190.459 22.4526C190.459 21.8457 190.26 21.2892 189.859 20.7883C189.46 20.2848 188.935 20.033 188.28 20.033Z" fill="black"/>
</svg>
