<svg width="344" height="104" viewBox="0 0 344 104" fill="none" xmlns="http://www.w3.org/2000/svg">
<path d="M100.968 78.9575V47.767H95.9883V78.9575H100.968ZM107.128 60.086C108.817 59.853 110.149 59.1467 111.125 57.9673C112.1 56.7878 112.588 55.3535 112.588 53.6644V47.767H107.128V53.6644H109.792C109.792 54.6254 109.61 55.4773 109.246 56.2199C108.882 56.9625 108.176 57.4067 107.128 57.5523V60.086ZM121.238 78.9575L124.165 70.7012H136.614L139.541 78.9575H145.395L133.382 47.767H127.572L115.602 78.9575H121.238ZM135.173 66.5512H125.65L130.368 53.1402H130.499L135.173 66.5512ZM152.778 87.3012V76.0307H152.865C153.244 76.6422 153.717 77.1737 154.285 77.6251C154.853 78.0765 155.471 78.4478 156.141 78.7391C156.811 79.0303 157.51 79.2414 158.238 79.3725C158.966 79.5035 159.694 79.5691 160.422 79.5691C162.082 79.5691 163.524 79.2414 164.747 78.5862C165.97 77.9309 166.982 77.0572 167.783 75.9651C168.584 74.873 169.181 73.6135 169.574 72.1865C169.967 70.7594 170.164 69.2887 170.164 67.7744C170.164 66.1144 169.945 64.5563 169.509 63.1002C169.072 61.644 168.417 60.3699 167.543 59.2778C166.669 58.1857 165.57 57.3266 164.245 56.7004C162.92 56.0743 161.369 55.7612 159.592 55.7612C158.136 55.7612 156.782 56.0452 155.53 56.6131C154.277 57.181 153.302 58.1202 152.603 59.4307H152.515V56.3728H147.798V87.3012H152.778ZM158.937 75.6375C157.918 75.6375 157.022 75.4336 156.25 75.0259C155.479 74.6182 154.816 74.0649 154.263 73.3659C153.71 72.667 153.295 71.8297 153.018 70.8541C152.741 69.8785 152.603 68.8228 152.603 67.687C152.603 65.2698 153.134 63.3331 154.197 61.877C155.26 60.4209 156.84 59.6928 158.937 59.6928C159.956 59.6928 160.859 59.9185 161.645 60.3699C162.432 60.8213 163.087 61.4183 163.611 62.161C164.135 62.9036 164.529 63.7554 164.791 64.7165C165.053 65.6775 165.184 66.6677 165.184 67.687C165.184 68.6772 165.075 69.6455 164.856 70.592C164.638 71.5385 164.274 72.383 163.764 73.1257C163.255 73.8683 162.607 74.4726 161.82 74.9386C161.034 75.4045 160.073 75.6375 158.937 75.6375ZM179.469 87.3012V76.0307H179.556C179.935 76.6422 180.408 77.1737 180.976 77.6251C181.544 78.0765 182.162 78.4478 182.832 78.7391C183.502 79.0303 184.201 79.2414 184.929 79.3725C185.657 79.5035 186.385 79.5691 187.113 79.5691C188.773 79.5691 190.215 79.2414 191.438 78.5862C192.661 77.9309 193.673 77.0572 194.474 75.9651C195.275 74.873 195.872 73.6135 196.265 72.1865C196.658 70.7594 196.855 69.2887 196.855 67.7744C196.855 66.1144 196.636 64.5563 196.2 63.1002C195.763 61.644 195.107 60.3699 194.234 59.2778C193.36 58.1857 192.261 57.3266 190.936 56.7004C189.611 56.0743 188.06 55.7612 186.283 55.7612C184.827 55.7612 183.473 56.0452 182.221 56.6131C180.968 57.181 179.993 58.1202 179.294 59.4307H179.206V56.3728H174.489V87.3012H179.469ZM185.628 75.6375C184.609 75.6375 183.713 75.4336 182.941 75.0259C182.17 74.6182 181.507 74.0649 180.954 73.3659C180.401 72.667 179.986 71.8297 179.709 70.8541C179.432 69.8785 179.294 68.8228 179.294 67.687C179.294 65.2698 179.825 63.3331 180.888 61.877C181.951 60.4209 183.531 59.6928 185.628 59.6928C186.647 59.6928 187.55 59.9185 188.336 60.3699C189.123 60.8213 189.778 61.4183 190.302 62.161C190.826 62.9036 191.22 63.7554 191.482 64.7165C191.744 65.6775 191.875 66.6677 191.875 67.687C191.875 68.6772 191.766 69.6455 191.547 70.592C191.329 71.5385 190.965 72.383 190.455 73.1257C189.945 73.8683 189.298 74.4726 188.511 74.9386C187.725 75.4045 186.764 75.6375 185.628 75.6375ZM225.031 79.7001C226.575 79.7001 228.089 79.5181 229.574 79.1541C231.06 78.79 232.385 78.2149 233.549 77.4285C234.714 76.6422 235.654 75.6302 236.367 74.3925C237.081 73.1548 237.437 71.6622 237.437 69.9149C237.437 69.0994 237.314 68.284 237.066 67.4686C236.819 66.6531 236.44 65.8887 235.93 65.1752C235.421 64.4616 234.787 63.8282 234.03 63.2749C233.273 62.7216 232.385 62.2847 231.365 61.9644C230.958 61.8479 230.28 61.6659 229.334 61.4183C228.388 61.1708 227.419 60.916 226.429 60.6539C225.439 60.3917 224.543 60.1515 223.742 59.9331C222.942 59.7146 222.483 59.5909 222.366 59.5617C221.26 59.2414 220.364 58.7682 219.68 58.142C218.995 57.5159 218.653 56.6495 218.653 55.5428C218.653 54.7565 218.835 54.1012 219.199 53.577C219.563 53.0528 220.022 52.6378 220.575 52.332C221.129 52.0262 221.74 51.8078 222.41 51.6768C223.08 51.5457 223.735 51.4802 224.376 51.4802C226.269 51.4802 227.827 51.8952 229.05 52.7252C230.273 53.5552 230.958 54.9749 231.103 56.9844H236.564C236.564 55.3535 236.243 53.9192 235.603 52.6815C234.962 51.4438 234.096 50.4027 233.003 49.5581C231.911 48.7135 230.645 48.0801 229.203 47.6578C227.761 47.2356 226.225 47.0244 224.594 47.0244C223.196 47.0244 221.813 47.2064 220.444 47.5705C219.075 47.9345 217.852 48.4951 216.775 49.2523C215.697 50.0095 214.831 50.9633 214.176 52.1136C213.52 53.264 213.193 54.6254 213.193 56.1981C213.193 57.0135 213.302 57.8144 213.52 58.6007C213.739 59.387 214.11 60.1296 214.634 60.8286C215.158 61.5275 215.865 62.161 216.753 62.7288C217.641 63.2967 218.755 63.7554 220.095 64.1049C222.25 64.6873 224.063 65.1606 225.533 65.5246C227.004 65.8887 228.293 66.2745 229.4 66.6823C230.04 66.9152 230.63 67.3157 231.169 67.8836C231.707 68.4515 231.977 69.3324 231.977 70.5265C231.977 71.1089 231.86 71.6841 231.627 72.252C231.394 72.8199 231.016 73.3222 230.492 73.7591C229.967 74.1959 229.283 74.5527 228.438 74.8293C227.594 75.106 226.575 75.2443 225.381 75.2443C224.274 75.2443 223.247 75.1206 222.301 74.873C221.354 74.6255 220.517 74.2323 219.789 73.6936C219.061 73.1548 218.493 72.4631 218.085 71.6186C217.678 70.774 217.474 69.7547 217.474 68.5607H212.013C212.042 70.4828 212.406 72.15 213.105 73.5625C213.804 74.975 214.736 76.1326 215.901 77.0354C217.066 77.9382 218.435 78.608 220.007 79.0449C221.58 79.4817 223.255 79.7001 225.031 79.7001ZM249.232 79.1759C249.785 79.1759 250.324 79.1468 250.848 79.0885C251.373 79.0303 251.911 78.972 252.465 78.9138V75.0696C252.115 75.157 251.766 75.2079 251.416 75.2225C251.067 75.2371 250.717 75.2443 250.368 75.2443C249.815 75.2443 249.378 75.1788 249.057 75.0478C248.737 74.9167 248.497 74.7201 248.337 74.458C248.176 74.1959 248.074 73.8756 248.031 73.497C247.987 73.1184 247.965 72.667 247.965 72.1428V60.086H252.465V56.3728H247.965V49.6018H242.985V56.3728H239.228V60.086H242.985V73.4096C243.014 74.3415 243.109 75.1715 243.269 75.8996C243.429 76.6277 243.735 77.232 244.187 77.7125C244.638 78.193 245.264 78.557 246.065 78.8046C246.866 79.0521 247.922 79.1759 249.232 79.1759ZM266.4 79.5691C268.206 79.5691 269.815 79.2706 271.227 78.6735C272.639 78.0765 273.834 77.2538 274.809 76.2054C275.785 75.157 276.527 73.9047 277.037 72.4486C277.547 70.9924 277.801 69.3907 277.801 67.6433C277.801 65.9251 277.547 64.3379 277.037 62.8817C276.527 61.4256 275.785 60.1733 274.809 59.1249C273.834 58.0765 272.639 57.2538 271.227 56.6568C269.815 56.0597 268.206 55.7612 266.4 55.7612C264.594 55.7612 262.985 56.0597 261.573 56.6568C260.16 57.2538 258.966 58.0765 257.991 59.1249C257.015 60.1733 256.273 61.4256 255.763 62.8817C255.253 64.3379 254.998 65.9251 254.998 67.6433C254.998 69.3907 255.253 70.9924 255.763 72.4486C256.273 73.9047 257.015 75.157 257.991 76.2054C258.966 77.2538 260.16 78.0765 261.573 78.6735C262.985 79.2706 264.594 79.5691 266.4 79.5691ZM266.4 75.6375C265.293 75.6375 264.332 75.4045 263.517 74.9386C262.701 74.4726 262.032 73.861 261.507 73.1038C260.983 72.3466 260.597 71.4948 260.35 70.5483C260.102 69.6018 259.978 68.6335 259.978 67.6433C259.978 66.6823 260.102 65.7212 260.35 64.7602C260.597 63.7991 260.983 62.9473 261.507 62.2046C262.032 61.462 262.701 60.8577 263.517 60.3917C264.332 59.9258 265.293 59.6928 266.4 59.6928C267.507 59.6928 268.468 59.9258 269.283 60.3917C270.099 60.8577 270.768 61.462 271.293 62.2046C271.817 62.9473 272.203 63.7991 272.45 64.7602C272.698 65.7212 272.821 66.6823 272.821 67.6433C272.821 68.6335 272.698 69.6018 272.45 70.5483C272.203 71.4948 271.817 72.3466 271.293 73.1038C270.768 73.861 270.099 74.4726 269.283 74.9386C268.468 75.4045 267.507 75.6375 266.4 75.6375ZM286.931 78.9575V68.2112C286.931 66.9589 287.092 65.8523 287.412 64.8912C287.732 63.9302 288.169 63.122 288.723 62.4667C289.276 61.8115 289.924 61.3164 290.666 60.9815C291.409 60.6466 292.203 60.4791 293.047 60.4791C293.397 60.4791 293.753 60.501 294.117 60.5446C294.482 60.5883 294.838 60.6393 295.188 60.6975V55.8923C294.955 55.8632 294.729 55.834 294.511 55.8049C294.292 55.7758 293.892 55.7612 293.309 55.7612C292.552 55.7612 291.81 55.9068 291.081 56.1981C290.353 56.4893 289.691 56.8752 289.094 57.3557C288.497 57.8362 287.987 58.3677 287.565 58.9502C287.143 59.5326 286.859 60.1296 286.713 60.7412H286.626V56.3728H281.951V78.9575H286.931ZM307.288 79.5691C308.511 79.5691 309.684 79.4016 310.805 79.0667C311.926 78.7318 312.938 78.2367 313.841 77.5814C314.744 76.9262 315.515 76.118 316.156 75.157C316.797 74.1959 317.248 73.1038 317.51 71.8807H312.792C312.356 73.1329 311.693 74.0721 310.805 74.6983C309.917 75.3244 308.744 75.6375 307.288 75.6375C306.24 75.6375 305.337 75.4555 304.58 75.0914C303.823 74.7274 303.197 74.2396 302.701 73.628C302.206 73.0165 301.835 72.3029 301.587 71.4875C301.34 70.6721 301.216 69.8275 301.216 68.9538H317.816C318.02 67.2647 317.911 65.6266 317.488 64.0394C317.066 62.4522 316.389 61.047 315.457 59.8239C314.525 58.6007 313.353 57.6178 311.941 56.8752C310.528 56.1325 308.934 55.7612 307.157 55.7612C305.468 55.7612 303.954 56.0816 302.614 56.7223C301.274 57.363 300.131 58.2294 299.185 59.3215C298.238 60.4136 297.51 61.6804 297.001 63.122C296.491 64.5636 296.236 66.0852 296.236 67.687C296.236 69.4344 296.476 71.0361 296.957 72.4922C297.437 73.9484 298.151 75.2007 299.097 76.2491C300.044 77.2975 301.202 78.1129 302.57 78.6954C303.939 79.2778 305.512 79.5691 307.288 79.5691ZM312.836 65.6775H301.216C301.245 64.833 301.413 64.0466 301.719 63.3186C302.024 62.5905 302.432 61.9571 302.942 61.4183C303.451 60.8795 304.063 60.4573 304.776 60.1515C305.49 59.8457 306.284 59.6928 307.157 59.6928C308.002 59.6928 308.766 59.8603 309.451 60.1952C310.135 60.5301 310.717 60.9669 311.198 61.5057C311.678 62.0445 312.057 62.6779 312.334 63.4059C312.61 64.134 312.778 64.8912 312.836 65.6775Z" fill="black"/>
<path d="M102.144 37.1718V20.3135H108.472V18.1863H93.2891V20.3135H99.6176V37.1718H102.144ZM115.731 21.0049L119.481 16.6973H116.582L114.03 21.0049H115.731ZM116.05 37.4643C117.61 37.4643 118.904 37.0743 119.933 36.2943C120.961 35.5143 121.625 34.3532 121.927 32.811H119.693C119.498 33.7151 119.095 34.3887 118.483 34.8319C117.872 35.275 117.087 35.4966 116.13 35.4966C115.386 35.4966 114.739 35.3725 114.189 35.1244C113.64 34.8762 113.187 34.5438 112.833 34.1272C112.478 33.7106 112.221 33.232 112.062 32.6913C111.902 32.1507 111.831 31.579 111.849 30.9763H122.14C122.175 30.1431 122.1 29.2656 121.914 28.3438C121.727 27.422 121.391 26.5711 120.903 25.7912C120.416 25.0112 119.769 24.3686 118.962 23.8634C118.155 23.3581 117.141 23.1055 115.917 23.1055C114.978 23.1055 114.114 23.2828 113.325 23.6373C112.536 23.9919 111.854 24.4882 111.277 25.1264C110.701 25.7646 110.254 26.518 109.935 27.3866C109.616 28.2552 109.456 29.2124 109.456 30.2583C109.491 31.3042 109.647 32.2703 109.921 33.1567C110.196 34.043 110.608 34.8053 111.158 35.4434C111.707 36.0816 112.385 36.578 113.192 36.9325C113.998 37.287 114.951 37.4643 116.05 37.4643ZM119.746 28.982H111.849C111.885 28.4502 112 27.9494 112.195 27.4796C112.39 27.0099 112.656 26.5977 112.992 26.2432C113.329 25.8887 113.733 25.6095 114.202 25.4056C114.672 25.2017 115.199 25.0998 115.784 25.0998C116.352 25.0998 116.87 25.2017 117.34 25.4056C117.81 25.6095 118.217 25.8842 118.563 26.2299C118.909 26.5756 119.184 26.9877 119.387 27.4663C119.591 27.945 119.711 28.4502 119.746 28.982ZM126.873 37.1718V18.1863H124.612V37.1718H126.873ZM135.913 21.0049L139.663 16.6973H136.764L134.212 21.0049H135.913ZM136.232 37.4643C137.792 37.4643 139.086 37.0743 140.115 36.2943C141.143 35.5143 141.808 34.3532 142.109 32.811H139.875C139.68 33.7151 139.277 34.3887 138.665 34.8319C138.054 35.275 137.269 35.4966 136.312 35.4966C135.568 35.4966 134.921 35.3725 134.371 35.1244C133.822 34.8762 133.37 34.5438 133.015 34.1272C132.66 33.7106 132.403 33.232 132.244 32.6913C132.084 32.1507 132.013 31.579 132.031 30.9763H142.322C142.357 30.1431 142.282 29.2656 142.096 28.3438C141.909 27.422 141.573 26.5711 141.085 25.7912C140.598 25.0112 139.951 24.3686 139.144 23.8634C138.337 23.3581 137.323 23.1055 136.099 23.1055C135.16 23.1055 134.296 23.2828 133.507 23.6373C132.718 23.9919 132.036 24.4882 131.459 25.1264C130.883 25.7646 130.436 26.518 130.117 27.3866C129.798 28.2552 129.638 29.2124 129.638 30.2583C129.673 31.3042 129.829 32.2703 130.103 33.1567C130.378 34.043 130.79 34.8053 131.34 35.4434C131.889 36.0816 132.567 36.578 133.374 36.9325C134.181 37.287 135.133 37.4643 136.232 37.4643ZM139.928 28.982H132.031C132.067 28.4502 132.182 27.9494 132.377 27.4796C132.572 27.0099 132.838 26.5977 133.175 26.2432C133.511 25.8887 133.915 25.6095 134.384 25.4056C134.854 25.2017 135.382 25.0998 135.967 25.0998C136.534 25.0998 137.052 25.2017 137.522 25.4056C137.992 25.6095 138.4 25.8842 138.745 26.2299C139.091 26.5756 139.366 26.9877 139.57 27.4663C139.773 27.945 139.893 28.4502 139.928 28.982ZM150.352 37.4643C152.107 37.4643 153.494 37.0034 154.513 36.0816C155.533 35.1598 156.166 33.848 156.414 32.1462H154.101C153.959 33.2099 153.574 34.0342 152.944 34.6191C152.315 35.2041 151.442 35.4966 150.325 35.4966C149.616 35.4966 149.005 35.3548 148.491 35.0712C147.976 34.7875 147.56 34.4108 147.241 33.9411C146.922 33.4713 146.687 32.9351 146.536 32.3324C146.385 31.7297 146.31 31.1092 146.31 30.4711C146.31 29.7797 146.381 29.1105 146.523 28.4635C146.665 27.8165 146.9 27.2448 147.228 26.7484C147.555 26.2521 147.994 25.8532 148.544 25.5518C149.093 25.2505 149.776 25.0998 150.591 25.0998C151.548 25.0998 152.311 25.3391 152.878 25.8177C153.445 26.2964 153.817 26.97 153.995 27.8386H156.335C156.246 27.0232 156.033 26.3185 155.697 25.7247C155.36 25.1308 154.93 24.6389 154.407 24.2489C153.884 23.8589 153.281 23.5709 152.599 23.3847C151.916 23.1986 151.185 23.1055 150.405 23.1055C149.324 23.1055 148.375 23.2961 147.56 23.6772C146.744 24.0584 146.066 24.5813 145.526 25.2461C144.985 25.9108 144.582 26.6908 144.316 27.586C144.05 28.4812 143.917 29.4429 143.917 30.4711C143.917 31.4992 144.054 32.4432 144.329 33.3029C144.604 34.1627 145.012 34.9028 145.552 35.5232C146.093 36.1437 146.767 36.6223 147.573 36.9591C148.38 37.2959 149.306 37.4643 150.352 37.4643ZM161.201 37.1718V29.4074C161.201 28.787 161.285 28.2153 161.453 27.6924C161.622 27.1694 161.874 26.713 162.211 26.323C162.548 25.933 162.969 25.6316 163.474 25.4189C163.979 25.2062 164.578 25.0998 165.269 25.0998C166.138 25.0998 166.82 25.348 167.316 25.8443C167.813 26.3407 168.061 27.0143 168.061 27.8652V37.1718H170.321V28.1311C170.321 27.3866 170.246 26.7085 170.095 26.0969C169.945 25.4854 169.683 24.958 169.311 24.5148C168.939 24.0716 168.451 23.726 167.848 23.4778C167.246 23.2296 166.492 23.1055 165.588 23.1055C165.18 23.1055 164.759 23.1498 164.325 23.2385C163.891 23.3271 163.474 23.4645 163.075 23.6506C162.676 23.8368 162.318 24.0761 161.998 24.3686C161.679 24.6611 161.431 25.02 161.254 25.4455H161.201V18.1863H158.941V37.1718H161.201ZM184.281 37.4643C184.972 37.4643 185.513 37.3491 185.903 37.1186V35.3637C185.637 35.4523 185.407 35.4966 185.212 35.4966C184.857 35.4966 184.649 35.3725 184.587 35.1244C184.525 34.8762 184.494 34.4862 184.494 33.9544V26.8814C184.494 26.0836 184.343 25.4366 184.042 24.9403C183.74 24.4439 183.342 24.0584 182.845 23.7836C182.349 23.5088 181.795 23.3271 181.183 23.2385C180.572 23.1498 179.956 23.1055 179.335 23.1055C178.555 23.1055 177.824 23.1853 177.142 23.3448C176.459 23.5044 175.852 23.7659 175.32 24.1293C174.788 24.4927 174.363 24.9669 174.044 25.5518C173.725 26.1368 173.548 26.8548 173.512 27.7057H175.772C175.825 26.6952 176.171 26.0083 176.809 25.6449C177.447 25.2815 178.245 25.0998 179.202 25.0998C179.557 25.0998 179.916 25.1264 180.279 25.1796C180.643 25.2328 180.971 25.3391 181.263 25.4987C181.556 25.6582 181.795 25.8887 181.981 26.19C182.167 26.4914 182.26 26.8902 182.26 27.3866C182.26 27.812 182.136 28.1355 181.888 28.3571C181.64 28.5787 181.303 28.7471 180.878 28.8623C180.452 28.9776 179.96 29.0662 179.402 29.1282C178.843 29.1903 178.254 29.2833 177.634 29.4074C177.049 29.5138 176.477 29.6468 175.918 29.8063C175.36 29.9658 174.864 30.2007 174.429 30.5109C173.995 30.8212 173.645 31.2244 173.379 31.7208C173.113 32.2171 172.98 32.8553 172.98 33.6353C172.98 34.3266 173.1 34.9161 173.339 35.4036C173.579 35.891 173.902 36.2855 174.31 36.5868C174.717 36.8882 175.201 37.1098 175.759 37.2516C176.317 37.3934 176.907 37.4643 177.527 37.4643C178.484 37.4643 179.375 37.3003 180.2 36.9724C181.024 36.6444 181.746 36.1082 182.367 35.3637C182.367 36.1082 182.539 36.6444 182.885 36.9724C183.231 37.3003 183.696 37.4643 184.281 37.4643ZM178.032 35.4966C177.678 35.4966 177.341 35.4612 177.022 35.3903C176.703 35.3194 176.424 35.2041 176.184 35.0446C175.945 34.885 175.75 34.6768 175.599 34.4197C175.449 34.1627 175.373 33.848 175.373 33.4758C175.373 32.9085 175.502 32.4609 175.759 32.1329C176.016 31.805 176.348 31.5524 176.756 31.3751C177.164 31.1979 177.625 31.0693 178.139 30.9896C178.653 30.9098 179.162 30.8389 179.668 30.7768C180.173 30.7148 180.656 30.635 181.117 30.5375C181.578 30.44 181.95 30.2849 182.234 30.0722V32.3856C182.234 32.7046 182.154 33.0459 181.994 33.4093C181.835 33.7727 181.587 34.1095 181.25 34.4197C180.913 34.7299 180.479 34.987 179.947 35.1908C179.415 35.3947 178.777 35.4966 178.032 35.4966ZM190.184 37.1718V31.056C190.184 30.1697 190.273 29.3853 190.45 28.7028C190.627 28.0203 190.911 27.4398 191.301 26.9611C191.691 26.4825 192.205 26.1191 192.843 25.8709C193.481 25.6227 194.253 25.4987 195.157 25.4987V23.1055C193.933 23.0701 192.923 23.3183 192.125 23.8501C191.328 24.3819 190.654 25.2062 190.104 26.323H190.051V23.4246H187.924V37.1718H190.184ZM202.336 42.7292C204.534 42.7292 206.147 42.1708 207.175 41.054C208.204 39.9372 208.718 38.2531 208.718 36.0018V23.4246H206.59V25.3923H206.564C206.156 24.63 205.589 24.0584 204.862 23.6772C204.135 23.2961 203.338 23.1055 202.469 23.1055C201.281 23.1055 200.28 23.3315 199.464 23.7836C198.649 24.2356 197.993 24.8117 197.497 25.512C197 26.2122 196.646 26.9922 196.433 27.8519C196.22 28.7117 196.114 29.5493 196.114 30.3647C196.114 31.3042 196.242 32.195 196.499 33.037C196.756 33.879 197.142 34.6147 197.656 35.244C198.17 35.8733 198.808 36.3741 199.571 36.7464C200.333 37.1186 201.228 37.3048 202.256 37.3048C203.143 37.3048 203.98 37.1053 204.769 36.7065C205.558 36.3076 206.147 35.6828 206.537 34.8319H206.59V35.7359C206.59 36.4982 206.515 37.1984 206.364 37.8366C206.214 38.4747 205.97 39.0198 205.633 39.4719C205.296 39.9239 204.871 40.2784 204.357 40.5355C203.843 40.7925 203.213 40.921 202.469 40.921C202.097 40.921 201.707 40.8812 201.299 40.8014C200.891 40.7216 200.515 40.5931 200.169 40.4158C199.823 40.2386 199.531 40.0081 199.291 39.7245C199.052 39.4408 198.924 39.0952 198.906 38.6875H196.646C196.681 39.432 196.876 40.0613 197.231 40.5754C197.585 41.0894 198.033 41.506 198.573 41.8251C199.114 42.1442 199.717 42.3746 200.382 42.5165C201.046 42.6583 201.698 42.7292 202.336 42.7292ZM202.389 35.3371C201.645 35.3371 201.024 35.182 200.528 34.8717C200.031 34.5615 199.633 34.1538 199.331 33.6486C199.03 33.1434 198.817 32.5805 198.693 31.9601C198.569 31.3397 198.507 30.7192 198.507 30.0988C198.507 29.4429 198.582 28.8136 198.733 28.2109C198.884 27.6082 199.123 27.0764 199.451 26.6155C199.779 26.1546 200.2 25.7867 200.714 25.512C201.228 25.2372 201.848 25.0998 202.575 25.0998C203.284 25.0998 203.887 25.2416 204.383 25.5253C204.88 25.8089 205.283 26.1856 205.593 26.6553C205.903 27.1251 206.13 27.6525 206.271 28.2375C206.413 28.8225 206.484 29.4163 206.484 30.019C206.484 30.6572 206.409 31.2953 206.258 31.9335C206.107 32.5717 205.872 33.1434 205.553 33.6486C205.234 34.1538 204.813 34.5615 204.29 34.8717C203.767 35.182 203.134 35.3371 202.389 35.3371ZM217.971 37.4643C219.531 37.4643 220.825 37.0743 221.853 36.2943C222.881 35.5143 223.546 34.3532 223.848 32.811H221.614C221.419 33.7151 221.016 34.3887 220.404 34.8319C219.792 35.275 219.008 35.4966 218.051 35.4966C217.306 35.4966 216.659 35.3725 216.11 35.1244C215.56 34.8762 215.108 34.5438 214.754 34.1272C214.399 33.7106 214.142 33.232 213.983 32.6913C213.823 32.1507 213.752 31.579 213.77 30.9763H224.06C224.096 30.1431 224.02 29.2656 223.834 28.3438C223.648 27.422 223.311 26.5711 222.824 25.7912C222.336 25.0112 221.689 24.3686 220.883 23.8634C220.076 23.3581 219.061 23.1055 217.838 23.1055C216.899 23.1055 216.034 23.2828 215.246 23.6373C214.457 23.9919 213.774 24.4882 213.198 25.1264C212.622 25.7646 212.174 26.518 211.855 27.3866C211.536 28.2552 211.377 29.2124 211.377 30.2583C211.412 31.3042 211.567 32.2703 211.842 33.1567C212.117 34.043 212.529 34.8053 213.078 35.4434C213.628 36.0816 214.306 36.578 215.113 36.9325C215.919 37.287 216.872 37.4643 217.971 37.4643ZM221.667 28.982H213.77C213.805 28.4502 213.92 27.9494 214.115 27.4796C214.31 27.0099 214.576 26.5977 214.913 26.2432C215.25 25.8887 215.653 25.6095 216.123 25.4056C216.593 25.2017 217.12 25.0998 217.705 25.0998C218.272 25.0998 218.791 25.2017 219.261 25.4056C219.73 25.6095 220.138 25.8842 220.484 26.2299C220.83 26.5756 221.104 26.9877 221.308 27.4663C221.512 27.945 221.632 28.4502 221.667 28.982ZM228.581 37.1718V31.056C228.581 30.1697 228.669 29.3853 228.846 28.7028C229.024 28.0203 229.307 27.4398 229.697 26.9611C230.087 26.4825 230.601 26.1191 231.24 25.8709C231.878 25.6227 232.649 25.4987 233.553 25.4987V23.1055C232.33 23.0701 231.319 23.3183 230.522 23.8501C229.724 24.3819 229.05 25.2062 228.501 26.323H228.448V23.4246H226.32V37.1718H228.581ZM248.231 37.4643C249.188 37.4643 250.066 37.2959 250.863 36.9591C251.661 36.6223 252.246 36.0727 252.618 35.3105H252.671V37.1718H254.932V18.1863H252.671V25.2593H252.618C252.37 24.8516 252.064 24.5104 251.701 24.2356C251.337 23.9609 250.952 23.7393 250.544 23.5709C250.136 23.4025 249.729 23.2828 249.321 23.2119C248.913 23.141 248.532 23.1055 248.178 23.1055C247.132 23.1055 246.214 23.2961 245.426 23.6772C244.637 24.0584 243.981 24.5724 243.458 25.2195C242.935 25.8665 242.545 26.6243 242.288 27.4929C242.031 28.3616 241.902 29.2833 241.902 30.2583C241.902 31.2333 242.035 32.1551 242.301 33.0237C242.567 33.8923 242.962 34.6546 243.484 35.3105C244.007 35.9664 244.663 36.4893 245.452 36.8793C246.241 37.2693 247.167 37.4643 248.231 37.4643ZM248.55 35.4966C247.823 35.4966 247.189 35.3548 246.649 35.0712C246.108 34.7875 245.665 34.4064 245.319 33.9278C244.974 33.4492 244.716 32.9041 244.548 32.2925C244.38 31.6809 244.295 31.056 244.295 30.4179C244.295 29.7442 244.366 29.0884 244.508 28.4502C244.65 27.812 244.88 27.2448 245.2 26.7484C245.519 26.2521 245.944 25.8532 246.476 25.5518C247.008 25.2505 247.655 25.0998 248.417 25.0998C249.197 25.0998 249.862 25.2461 250.411 25.5385C250.961 25.831 251.408 26.2166 251.754 26.6952C252.1 27.1739 252.352 27.7278 252.512 28.3571C252.671 28.9864 252.751 29.6379 252.751 30.3115C252.751 30.9497 252.676 31.579 252.525 32.1994C252.374 32.8199 252.131 33.3738 251.794 33.8613C251.457 34.3488 251.023 34.7432 250.491 35.0446C249.959 35.3459 249.312 35.4966 248.55 35.4966ZM268.971 37.4643C269.663 37.4643 270.203 37.3491 270.593 37.1186V35.3637C270.327 35.4523 270.097 35.4966 269.902 35.4966C269.547 35.4966 269.339 35.3725 269.277 35.1244C269.215 34.8762 269.184 34.4862 269.184 33.9544V26.8814C269.184 26.0836 269.033 25.4366 268.732 24.9403C268.431 24.4439 268.032 24.0584 267.535 23.7836C267.039 23.5088 266.485 23.3271 265.874 23.2385C265.262 23.1498 264.646 23.1055 264.025 23.1055C263.245 23.1055 262.514 23.1853 261.832 23.3448C261.149 23.5044 260.542 23.7659 260.01 24.1293C259.479 24.4927 259.053 24.9669 258.734 25.5518C258.415 26.1368 258.238 26.8548 258.202 27.7057H260.462C260.516 26.6952 260.861 26.0083 261.499 25.6449C262.138 25.2815 262.935 25.0998 263.893 25.0998C264.247 25.0998 264.606 25.1264 264.969 25.1796C265.333 25.2328 265.661 25.3391 265.953 25.4987C266.246 25.6582 266.485 25.8887 266.671 26.19C266.857 26.4914 266.95 26.8902 266.95 27.3866C266.95 27.812 266.826 28.1355 266.578 28.3571C266.33 28.5787 265.993 28.7471 265.568 28.8623C265.142 28.9776 264.65 29.0662 264.092 29.1282C263.534 29.1903 262.944 29.2833 262.324 29.4074C261.739 29.5138 261.167 29.6468 260.609 29.8063C260.05 29.9658 259.554 30.2007 259.12 30.5109C258.685 30.8212 258.335 31.2244 258.069 31.7208C257.803 32.2171 257.67 32.8553 257.67 33.6353C257.67 34.3266 257.79 34.9161 258.029 35.4036C258.269 35.891 258.592 36.2855 259 36.5868C259.408 36.8882 259.891 37.1098 260.449 37.2516C261.007 37.3934 261.597 37.4643 262.217 37.4643C263.175 37.4643 264.065 37.3003 264.89 36.9724C265.714 36.6444 266.436 36.1082 267.057 35.3637C267.057 36.1082 267.23 36.6444 267.575 36.9724C267.921 37.3003 268.386 37.4643 268.971 37.4643ZM262.723 35.4966C262.368 35.4966 262.031 35.4612 261.712 35.3903C261.393 35.3194 261.114 35.2041 260.875 35.0446C260.635 34.885 260.44 34.6768 260.29 34.4197C260.139 34.1627 260.064 33.848 260.064 33.4758C260.064 32.9085 260.192 32.4609 260.449 32.1329C260.706 31.805 261.039 31.5524 261.446 31.3751C261.854 31.1979 262.315 31.0693 262.829 30.9896C263.343 30.9098 263.853 30.8389 264.358 30.7768C264.863 30.7148 265.346 30.635 265.807 30.5375C266.268 30.44 266.64 30.2849 266.924 30.0722V32.3856C266.924 32.7046 266.844 33.0459 266.685 33.4093C266.525 33.7727 266.277 34.1095 265.94 34.4197C265.603 34.7299 265.169 34.987 264.637 35.1908C264.105 35.3947 263.467 35.4966 262.723 35.4966ZM274.954 37.1718V29.4074C274.954 28.787 275.038 28.2153 275.207 27.6924C275.375 27.1694 275.628 26.713 275.965 26.323C276.301 25.933 276.722 25.6316 277.228 25.4189C277.733 25.2062 278.331 25.0998 279.022 25.0998C279.891 25.0998 280.574 25.348 281.07 25.8443C281.566 26.3407 281.814 27.0143 281.814 27.8652V37.1718H284.075V28.1311C284.075 27.3866 283.999 26.7085 283.849 26.0969C283.698 25.4854 283.436 24.958 283.064 24.5148C282.692 24.0716 282.204 23.726 281.602 23.4778C280.999 23.2296 280.246 23.1055 279.341 23.1055C277.303 23.1055 275.814 23.9387 274.874 25.605H274.821V23.4246H272.694V37.1718H274.954ZM292.424 37.4643C293.115 37.4643 293.811 37.3978 294.511 37.2649C295.212 37.1319 295.841 36.897 296.399 36.5602C296.958 36.2234 297.41 35.7802 297.755 35.2307C298.101 34.6812 298.274 33.9898 298.274 33.1567C298.274 32.5008 298.145 31.9512 297.888 31.5081C297.631 31.0649 297.294 30.6971 296.878 30.4046C296.461 30.1121 295.983 29.8772 295.442 29.6999C294.901 29.5227 294.347 29.372 293.78 29.2479C293.248 29.1238 292.716 29.0042 292.185 28.8889C291.653 28.7737 291.174 28.6319 290.749 28.4635C290.323 28.2951 289.973 28.0824 289.698 27.8253C289.424 27.5683 289.286 27.2448 289.286 26.8548C289.286 26.5002 289.375 26.2122 289.552 25.9906C289.729 25.769 289.96 25.5917 290.244 25.4588C290.527 25.3258 290.842 25.2328 291.188 25.1796C291.533 25.1264 291.874 25.0998 292.211 25.0998C292.583 25.0998 292.951 25.1397 293.315 25.2195C293.678 25.2992 294.01 25.4278 294.312 25.605C294.613 25.7823 294.861 26.0172 295.056 26.3097C295.251 26.6022 295.367 26.97 295.402 27.4132H297.662C297.609 26.58 297.432 25.8842 297.13 25.3258C296.829 24.7674 296.426 24.3243 295.921 23.9963C295.415 23.6684 294.835 23.4379 294.179 23.305C293.523 23.172 292.805 23.1055 292.025 23.1055C291.422 23.1055 290.815 23.1809 290.204 23.3315C289.592 23.4822 289.043 23.7127 288.555 24.0229C288.068 24.3331 287.669 24.7364 287.358 25.2328C287.048 25.7291 286.893 26.323 286.893 27.0143C286.893 27.9007 287.115 28.592 287.558 29.0884C288.001 29.5847 288.555 29.9703 289.22 30.245C289.885 30.5198 290.607 30.7325 291.387 30.8832C292.167 31.0339 292.889 31.2023 293.554 31.3884C294.219 31.5745 294.773 31.8183 295.216 32.1196C295.659 32.421 295.881 32.8642 295.881 33.4492C295.881 33.8746 295.774 34.2247 295.562 34.4995C295.349 34.7743 295.079 34.9825 294.751 35.1244C294.423 35.2662 294.064 35.3637 293.674 35.4168C293.284 35.47 292.911 35.4966 292.557 35.4966C292.096 35.4966 291.648 35.4523 291.214 35.3637C290.78 35.275 290.39 35.1288 290.044 34.9249C289.698 34.7211 289.419 34.4463 289.206 34.1006C288.994 33.755 288.879 33.3339 288.861 32.8376H286.601C286.636 33.6885 286.813 34.4108 287.132 35.0047C287.452 35.5985 287.877 36.0772 288.409 36.4406C288.941 36.804 289.552 37.0654 290.244 37.225C290.935 37.3845 291.662 37.4643 292.424 37.4643Z" fill="black"/>
<path d="M75.046 72.8385C72.342 76.7752 69.545 80.6876 65.129 80.7696C60.7829 80.8516 59.3896 78.2067 54.4303 78.2067C49.4658 78.2067 47.9128 80.6876 43.8093 80.8516C39.5461 81.0105 36.3043 76.5999 33.5781 72.681C28.0085 64.6682 23.7576 50.0248 29.4746 40.1427C32.3057 35.2349 37.3787 32.1298 42.876 32.0478C47.0627 31.9711 51.0178 34.858 53.5751 34.858C56.1362 34.858 60.9367 31.392 65.9836 31.9003C68.0961 31.9872 74.0251 32.7478 77.8329 38.2949C77.532 38.4918 70.7558 42.4166 70.8384 50.5934C70.9214 60.3609 79.4356 63.6076 79.5345 63.6518C79.4574 63.8814 78.1735 68.2868 75.046 72.8385ZM56.5044 21.1705C58.8418 18.4438 62.791 16.4156 66.0502 16.2793C66.4666 20.0669 64.9361 23.8598 62.6755 26.5929C60.4104 29.3211 56.7026 31.4463 53.0637 31.1625C52.5692 27.4568 54.4033 23.5921 56.5044 21.1705Z" fill="black"/>
</svg>
