<svg width="30" height="30" viewBox="0 0 30 30" fill="none" xmlns="http://www.w3.org/2000/svg">
<g id="solar:wallet-bold">
<g id="Group">
<path id="Vector" fill-rule="evenodd" clip-rule="evenodd" d="M26.3748 10.005C26.306 10 26.2298 10 26.1498 10H22.9935C20.4085 10 18.1973 12.035 18.1973 14.6875C18.1973 17.34 20.4098 19.375 22.9935 19.375H26.1498C26.2298 19.375 26.306 19.375 26.3773 19.37C26.9085 19.338 27.4101 19.1139 27.7884 18.7395C28.1667 18.3651 28.396 17.8659 28.4335 17.335C28.4385 17.26 28.4385 17.1787 28.4385 17.1037V12.2713C28.4385 12.1963 28.4385 12.115 28.4335 12.04C28.396 11.5091 28.1667 11.0099 27.7884 10.6355C27.4101 10.2611 26.9085 10.037 26.3773 10.005H26.3748ZM22.7148 15.9375C23.3798 15.9375 23.9185 15.3775 23.9185 14.6875C23.9185 13.9975 23.3798 13.4375 22.7148 13.4375C22.0485 13.4375 21.5098 13.9975 21.5098 14.6875C21.5098 15.3775 22.0485 15.9375 22.7148 15.9375Z" fill="#092674"/>
<path id="Vector_2" fill-rule="evenodd" clip-rule="evenodd" d="M26.1475 21.25C26.1907 21.2483 26.2337 21.2567 26.2731 21.2748C26.3124 21.2928 26.3469 21.3198 26.3738 21.3536C26.4007 21.3875 26.4193 21.4272 26.4279 21.4696C26.4366 21.512 26.4352 21.5558 26.4237 21.5975C26.1737 22.4875 25.775 23.2475 25.1362 23.885C24.2 24.8225 23.0138 25.2362 21.5487 25.4337C20.1238 25.625 18.305 25.625 16.0075 25.625H13.3675C11.07 25.625 9.25 25.625 7.82625 25.4337C6.36125 25.2362 5.175 24.8212 4.23875 23.8862C3.30375 22.95 2.88875 21.7637 2.69125 20.2987C2.5 18.8737 2.5 17.055 2.5 14.7575V14.6175C2.5 12.32 2.5 10.5 2.69125 9.075C2.88875 7.61 3.30375 6.42375 4.23875 5.4875C5.175 4.5525 6.36125 4.1375 7.82625 3.94C9.25125 3.75 11.07 3.75 13.3675 3.75H16.0075C18.305 3.75 20.125 3.75 21.5487 3.94125C23.0138 4.13875 24.2 4.55375 25.1362 5.48875C25.775 6.12875 26.1737 6.8875 26.4237 7.7775C26.4352 7.81921 26.4366 7.86303 26.4279 7.9054C26.4193 7.94777 26.4007 7.98749 26.3738 8.02135C26.3469 8.05521 26.3124 8.08224 26.2731 8.10024C26.2337 8.11825 26.1907 8.12674 26.1475 8.125H22.9925C19.4462 8.125 16.3212 10.925 16.3212 14.6875C16.3212 18.45 19.4462 21.25 22.9925 21.25H26.1475ZM7.1875 8.75C6.93886 8.75 6.7004 8.84877 6.52459 9.02459C6.34877 9.2004 6.25 9.43886 6.25 9.6875C6.25 9.93614 6.34877 10.1746 6.52459 10.3504C6.7004 10.5262 6.93886 10.625 7.1875 10.625H12.1875C12.4361 10.625 12.6746 10.5262 12.8504 10.3504C13.0262 10.1746 13.125 9.93614 13.125 9.6875C13.125 9.43886 13.0262 9.2004 12.8504 9.02459C12.6746 8.84877 12.4361 8.75 12.1875 8.75H7.1875Z" fill="#092674"/>
</g>
</g>
</svg>
