<svg width="30" height="30" viewBox="0 0 30 30" fill="none" xmlns="http://www.w3.org/2000/svg">
<path d="M23.9685 8.56203C24.2123 8.80577 24.4212 9.13657 24.5953 9.55441C24.7694 9.97226 24.8564 10.3553 24.8564 10.7035V25.746C24.8564 26.0942 24.7346 26.3902 24.4908 26.6339C24.2471 26.8776 23.9511 26.9995 23.6029 26.9995H6.05334C5.70514 26.9995 5.40916 26.8776 5.16542 26.6339C4.92168 26.3902 4.7998 26.0942 4.7998 25.746V4.85364C4.7998 4.50543 4.92168 4.20946 5.16542 3.96571C5.40916 3.72197 5.70514 3.6001 6.05334 3.6001H17.7531C18.1013 3.6001 18.4843 3.68715 18.9021 3.86125C19.32 4.03535 19.6508 4.24428 19.8945 4.48802L23.9685 8.56203ZM18.1709 5.37595V10.2856H23.0806C22.9935 10.0332 22.8978 9.85474 22.7933 9.75028L18.7063 5.66322C18.6018 5.55875 18.4233 5.463 18.1709 5.37595ZM23.1851 25.3281V11.957H17.7531C17.4048 11.957 17.1089 11.8352 16.8651 11.5914C16.6214 11.3477 16.4995 11.0517 16.4995 10.7035V5.27148H6.47119V25.3281H23.1851Z" fill="#243752"/>
</svg>
